<svg width="2576" height="630" viewBox="0 0 2576 630" fill="none" xmlns="http://www.w3.org/2000/svg">
<g clip-path="url(#clip0_302_3485)">
<path d="M1216.15 585.781C1204.35 588.392 1196.28 599.446 1198.12 610.464C1199.95 621.484 1211.01 628.299 1222.8 625.688C1234.59 623.075 1242.67 612.021 1240.83 601.001C1238.99 589.983 1227.94 583.169 1216.15 585.781Z" fill="#222222"/>
<path d="M1222.8 625.687C1211 628.3 1199.95 621.485 1198.12 610.465C1196.28 599.445 1204.35 588.393 1216.15 585.78C1227.94 583.167 1238.99 589.982 1240.83 601.002C1242.67 612.022 1234.6 623.074 1222.8 625.687Z" stroke="#222222" stroke-width="4" stroke-miterlimit="10"/>
<path d="M1212.36 568.733C1200.56 571.345 1192.49 582.399 1194.33 593.416C1196.16 604.436 1207.22 611.251 1219.01 608.64C1230.81 606.027 1238.88 594.973 1237.04 583.953C1235.2 572.936 1224.15 566.121 1212.36 568.733Z" fill="#EE72A8"/>
<path d="M1219.01 608.638C1207.22 611.251 1196.16 604.436 1194.33 593.416C1192.49 582.396 1200.56 571.345 1212.36 568.731C1224.15 566.118 1235.2 572.933 1237.04 583.953C1238.88 594.973 1230.81 606.025 1219.01 608.638Z" stroke="#222222" stroke-width="4" stroke-miterlimit="10"/>
<path d="M1151.14 432.665C1130.61 436.625 1117.13 456.547 1121.1 477.07C1125.06 497.596 1144.98 511.074 1165.5 507.113C1186.03 503.152 1199.51 483.231 1195.54 462.705C1191.58 442.18 1171.66 428.704 1151.14 432.665ZM1147.38 413.213C1178.63 407.183 1208.96 427.7 1214.99 458.952C1221.03 490.203 1200.51 520.536 1169.26 526.565C1138 532.595 1107.67 512.078 1101.64 480.825C1095.61 449.575 1116.13 419.243 1147.38 413.213Z" fill="#222222"/>
<path d="M1151.14 432.665C1130.61 436.625 1117.13 456.547 1121.1 477.07C1125.06 497.596 1144.98 511.074 1165.5 507.113C1186.03 503.152 1199.51 483.231 1195.54 462.705C1191.58 442.18 1171.66 428.704 1151.14 432.665ZM1147.38 413.213C1178.63 407.183 1208.96 427.7 1214.99 458.952C1221.03 490.203 1200.51 520.536 1169.26 526.565C1138 532.595 1107.67 512.078 1101.64 480.825C1095.61 449.575 1116.13 419.243 1147.38 413.213Z" stroke="#222222" stroke-width="4" stroke-miterlimit="10"/>
<path d="M1147.54 416.504C1127.02 420.463 1113.54 440.386 1117.5 460.909C1121.46 481.435 1141.38 494.913 1161.91 490.952C1182.44 486.991 1195.91 467.07 1191.95 446.544C1187.99 426.019 1168.07 412.543 1147.54 416.504ZM1143.79 397.052C1175.04 391.022 1205.37 411.539 1211.4 442.791C1217.43 474.042 1196.92 504.375 1165.66 510.404C1134.41 516.434 1104.08 495.917 1098.05 464.664C1092.02 433.414 1112.54 403.081 1143.79 397.052Z" fill="#F9E105"/>
<path d="M1147.54 416.504C1127.02 420.463 1113.54 440.386 1117.5 460.909C1121.46 481.435 1141.38 494.913 1161.91 490.952C1182.44 486.991 1195.91 467.07 1191.95 446.544C1187.99 426.019 1168.07 412.543 1147.54 416.504ZM1143.79 397.052C1175.04 391.022 1205.37 411.539 1211.4 442.791C1217.43 474.042 1196.92 504.375 1165.66 510.404C1134.41 516.434 1104.08 495.917 1098.05 464.664C1092.02 433.414 1112.54 403.081 1143.79 397.052Z" stroke="#222222" stroke-width="4" stroke-miterlimit="10"/>
<path d="M1533.24 322.258L1576.85 334.561L1602.28 297.043L1645.9 309.346L1667.11 278.048L1684.35 289.739L1654.71 333.481L1611.09 321.18L1585.67 358.697L1542.06 346.394L1516.64 383.911L1465.79 369.568L1471.44 349.514L1507.82 359.775L1533.24 322.258Z" fill="#222222" stroke="#222222" stroke-width="4" stroke-miterlimit="10"/>
<path d="M1529.45 305.21L1573.07 317.513L1598.49 279.995L1642.11 292.299L1663.32 261L1680.57 272.691L1650.92 316.433L1607.3 304.132L1581.88 341.649L1538.27 329.346L1512.85 366.863L1462 352.52L1467.66 332.466L1504.04 342.727L1529.45 305.21Z" fill="#EE72A8" stroke="#222222" stroke-width="4" stroke-miterlimit="10"/>
<path d="M1894.6 69.5026L1801.79 37.3535L1876.04 -26.9521L1894.6 69.5026Z" fill="#222222" stroke="#222222" stroke-width="4" stroke-miterlimit="10"/>
<path d="M1890.82 52.4547L1798 20.3057L1872.25 -44L1890.82 52.4547Z" fill="#EE72A8" stroke="#222222" stroke-width="4" stroke-miterlimit="10"/>
<path d="M1829.79 479.333L1731.79 418.3L1755.46 379.228L1853.46 440.266L1829.79 479.333Z" fill="#222222" stroke="#222222" stroke-width="4" stroke-miterlimit="10"/>
<path d="M1826 462.286L1728 401.252L1751.67 362.18L1849.67 423.218L1826 462.286Z" fill="#7DC8D1" stroke="#222222" stroke-width="4" stroke-miterlimit="10"/>
<path d="M1428.6 509.758L1398.83 497.472C1408.76 473.411 1397.27 445.754 1373.21 435.822C1349.14 425.891 1321.49 437.387 1311.56 461.449L1281.79 449.163C1298.49 408.689 1345.02 389.351 1385.49 406.056C1425.97 422.761 1445.3 469.282 1428.6 509.758Z" fill="#222222" stroke="#222222" stroke-width="4" stroke-miterlimit="10"/>
<path d="M1424.81 492.709L1395.04 480.423C1404.97 456.363 1393.48 428.705 1369.42 418.773C1345.35 408.842 1317.7 420.338 1307.77 444.4L1278 432.114C1294.71 391.64 1341.23 372.302 1381.7 389.007C1422.18 405.712 1441.51 452.233 1424.81 492.709Z" fill="#7DC8D1" stroke="#222222" stroke-width="4" stroke-miterlimit="10"/>
<path d="M821.598 89.7571L791.832 77.471C801.761 53.4104 790.265 25.7526 766.205 15.823C742.142 5.89148 714.486 17.3876 704.555 41.4502L674.789 29.1641C691.494 -11.312 738.015 -30.6503 778.489 -13.945C818.965 2.76219 838.303 49.2809 821.598 89.7571Z" fill="#222222" stroke="#222222" stroke-width="4" stroke-miterlimit="10"/>
<path d="M817.809 72.7092L788.043 60.4232C797.973 36.3625 786.477 8.70473 762.416 -1.22487C738.354 -11.1564 710.698 0.339771 700.766 24.4023L671 12.1163C687.705 -28.3599 734.226 -47.6982 774.7 -30.9929C815.176 -14.2857 834.515 32.2331 817.809 72.7092Z" fill="#6BC298" stroke="#222222" stroke-width="4" stroke-miterlimit="10"/>
<path d="M1692.6 4.28906L1699.87 35.6596C1674.51 41.5374 1658.66 66.9505 1664.54 92.3087C1670.42 117.667 1695.83 133.516 1721.19 127.638L1728.46 159.009C1685.8 168.897 1643.05 142.237 1633.17 99.5807C1623.28 56.9224 1649.94 14.1751 1692.6 4.28906Z" fill="#222222" stroke="#222222" stroke-width="4" stroke-miterlimit="10"/>
<path d="M1688.81 -12.7593L1696.08 18.6112C1670.72 24.4891 1654.87 49.9022 1660.75 75.2604C1666.63 100.619 1692.04 116.468 1717.4 110.59L1724.67 141.96C1682.01 151.848 1639.27 125.189 1629.38 82.5324C1619.49 39.8741 1646.15 -2.87324 1688.81 -12.7593Z" fill="#F9E105" stroke="#222222" stroke-width="4" stroke-miterlimit="10"/>
<path d="M1510.6 146.503L1417.79 114.354L1492.04 50.0479L1510.6 146.503Z" fill="#222222" stroke="#222222" stroke-width="4" stroke-miterlimit="10"/>
<path d="M1506.82 129.455L1414 97.3057L1488.25 33L1506.82 129.455Z" fill="#EE72A8" stroke="#222222" stroke-width="4" stroke-miterlimit="10"/>
<path d="M1596.59 195.406C1597.59 189.841 1597.52 183.92 1594.34 179.019C1591.41 174.515 1585.63 171.084 1580.23 172.865C1574.87 174.63 1571.96 180.47 1569.5 185.094C1566.27 191.165 1563.42 197.685 1558.98 203C1557.2 205.122 1554.29 208.856 1551.13 208.348C1548.25 207.886 1549.09 204.923 1549.43 202.627C1550.18 197.609 1551.63 192.624 1553.07 187.773C1556.05 177.712 1559.13 166.822 1554.28 156.806C1549.12 146.141 1534.99 141.663 1528.51 153.674C1525.1 160.009 1523.53 167.466 1521.38 174.286C1518.94 182.007 1516.54 189.62 1514.55 197.475C1512.34 206.175 1509.67 214.498 1505.01 222.219C1502.2 226.881 1495.66 235.775 1491.12 227.599C1488.16 222.261 1488.66 215.209 1487.52 209.348C1486.47 203.963 1483.38 198.432 1478.54 195.577C1472.53 192.037 1466.36 194.465 1461.83 199.233C1456.06 205.315 1454.37 213.8 1451.68 221.458C1449.66 227.199 1458.86 229.469 1460.87 223.748C1463.02 217.613 1464.21 210.007 1469.12 205.351C1471.42 203.175 1472.7 202.606 1474.93 204.701C1476.53 206.2 1477.51 208.285 1478.06 210.367C1480.52 219.691 1478.83 230.838 1487.35 237.474C1501.9 248.809 1513.91 227.406 1518.49 216.304C1522.7 206.107 1524.39 195.194 1527.84 184.757C1530.18 177.659 1532.3 170.48 1534.71 163.407C1535.4 161.388 1536.35 157.33 1538.27 156.093C1540.08 154.927 1542.69 156.698 1543.96 158.088C1550.84 165.565 1546.16 177.767 1543.71 186.045C1541.48 193.573 1536.67 205.889 1541.64 213.095C1545.09 218.094 1552.59 219.124 1557.81 216.455C1563.64 213.474 1567.96 207.308 1571.24 201.847C1574.75 196.024 1577.08 188.996 1581.32 183.67C1583.18 181.332 1584.77 181.711 1586.46 184.293C1588.13 186.835 1587.91 190.267 1587.39 193.116C1586.31 199.076 1595.5 201.426 1596.59 195.406Z" fill="#222222"/>
<path d="M1596.59 195.406C1597.59 189.841 1597.52 183.92 1594.34 179.019C1591.41 174.515 1585.63 171.084 1580.23 172.865C1574.87 174.63 1571.96 180.47 1569.5 185.094C1566.27 191.165 1563.42 197.685 1558.98 203C1557.2 205.122 1554.29 208.856 1551.13 208.348C1548.25 207.886 1549.09 204.923 1549.43 202.627C1550.18 197.609 1551.63 192.624 1553.07 187.773C1556.05 177.712 1559.13 166.822 1554.28 156.806C1549.12 146.141 1534.99 141.663 1528.51 153.674C1525.1 160.009 1523.53 167.466 1521.38 174.286C1518.94 182.007 1516.54 189.62 1514.55 197.475C1512.34 206.175 1509.67 214.498 1505.01 222.219C1502.2 226.881 1495.66 235.775 1491.12 227.599C1488.16 222.261 1488.66 215.209 1487.52 209.348C1486.47 203.963 1483.38 198.432 1478.54 195.577C1472.53 192.037 1466.36 194.465 1461.83 199.233C1456.06 205.315 1454.37 213.8 1451.68 221.458C1449.66 227.199 1458.86 229.469 1460.87 223.748C1463.02 217.613 1464.21 210.007 1469.12 205.351C1471.42 203.175 1472.7 202.606 1474.93 204.701C1476.53 206.2 1477.51 208.285 1478.06 210.367C1480.52 219.691 1478.83 230.838 1487.35 237.474C1501.9 248.809 1513.91 227.406 1518.49 216.304C1522.7 206.107 1524.39 195.194 1527.84 184.757C1530.18 177.659 1532.3 170.48 1534.71 163.407C1535.4 161.388 1536.35 157.33 1538.27 156.093C1540.08 154.927 1542.69 156.698 1543.96 158.088C1550.84 165.565 1546.16 177.767 1543.71 186.045C1541.48 193.573 1536.67 205.889 1541.64 213.095C1545.09 218.094 1552.59 219.124 1557.81 216.455C1563.64 213.474 1567.96 207.308 1571.24 201.847C1574.75 196.024 1577.08 188.996 1581.32 183.67C1583.18 181.332 1584.77 181.711 1586.46 184.293C1588.13 186.835 1587.91 190.267 1587.39 193.116C1586.31 199.076 1595.5 201.426 1596.59 195.406Z" stroke="#222222" stroke-width="4" stroke-miterlimit="10"/>
<path d="M1592.8 185.936C1593.8 180.37 1593.73 174.449 1590.55 169.547C1587.62 165.044 1581.85 161.614 1576.44 163.394C1571.09 165.16 1568.18 171.002 1565.71 175.623C1562.48 181.695 1559.63 188.215 1555.19 193.53C1553.42 195.651 1550.5 199.385 1547.34 198.877C1544.46 198.415 1545.3 195.452 1545.64 193.157C1546.39 188.139 1547.85 183.153 1549.28 178.302C1552.27 168.244 1555.34 157.352 1550.49 147.335C1545.33 136.67 1531.21 132.192 1524.73 144.204C1521.31 150.538 1519.74 157.996 1517.59 164.813C1515.16 172.534 1512.75 180.149 1510.76 188.004C1508.55 196.704 1505.88 205.028 1501.22 212.749C1498.41 217.41 1491.87 226.304 1487.33 218.128C1484.37 212.79 1484.87 205.738 1483.73 199.877C1482.68 194.492 1479.6 188.961 1474.76 186.106C1468.75 182.566 1462.57 184.994 1458.04 189.762C1452.27 195.845 1450.58 204.329 1447.89 211.987C1445.88 217.729 1455.07 219.998 1457.08 214.277C1459.23 208.142 1460.42 200.537 1465.34 195.881C1467.64 193.704 1468.91 193.136 1471.14 195.231C1472.74 196.729 1473.72 198.815 1474.27 200.896C1476.74 210.22 1475.04 221.368 1483.56 228.003C1498.12 239.338 1510.12 217.935 1514.7 206.833C1518.91 196.636 1520.61 185.724 1524.05 175.286C1526.39 168.189 1528.51 161.009 1530.92 153.936C1531.61 151.917 1532.56 147.86 1534.48 146.623C1536.29 145.456 1538.9 147.227 1540.17 148.617C1547.05 156.094 1542.37 168.298 1539.92 176.574C1537.7 184.102 1532.88 196.418 1537.85 203.624C1541.3 208.623 1548.8 209.654 1554.02 206.985C1559.86 204.003 1564.17 197.837 1567.45 192.376C1570.96 186.553 1573.29 179.526 1577.53 174.199C1579.39 171.862 1580.98 172.24 1582.67 174.822C1584.34 177.364 1584.12 180.797 1583.6 183.646C1582.53 189.605 1591.71 191.956 1592.8 185.936Z" fill="#FEFFFF"/>
<path d="M1592.8 185.936C1593.8 180.37 1593.73 174.449 1590.55 169.547C1587.62 165.044 1581.85 161.614 1576.44 163.394C1571.09 165.16 1568.18 171.002 1565.71 175.623C1562.48 181.695 1559.63 188.215 1555.19 193.53C1553.42 195.651 1550.5 199.385 1547.34 198.877C1544.46 198.415 1545.3 195.452 1545.64 193.157C1546.39 188.139 1547.85 183.153 1549.28 178.302C1552.27 168.244 1555.34 157.352 1550.49 147.335C1545.33 136.67 1531.21 132.192 1524.73 144.204C1521.31 150.538 1519.74 157.996 1517.59 164.813C1515.16 172.534 1512.75 180.149 1510.76 188.004C1508.55 196.704 1505.88 205.028 1501.22 212.749C1498.41 217.41 1491.87 226.304 1487.33 218.128C1484.37 212.79 1484.87 205.738 1483.73 199.877C1482.68 194.492 1479.6 188.961 1474.76 186.106C1468.75 182.566 1462.57 184.994 1458.04 189.762C1452.27 195.845 1450.58 204.329 1447.89 211.987C1445.88 217.729 1455.07 219.998 1457.08 214.277C1459.23 208.142 1460.42 200.537 1465.34 195.881C1467.64 193.704 1468.91 193.136 1471.14 195.231C1472.74 196.729 1473.72 198.815 1474.27 200.896C1476.74 210.22 1475.04 221.368 1483.56 228.003C1498.12 239.338 1510.12 217.935 1514.7 206.833C1518.91 196.636 1520.61 185.724 1524.05 175.286C1526.39 168.189 1528.51 161.009 1530.92 153.936C1531.61 151.917 1532.56 147.86 1534.48 146.623C1536.29 145.456 1538.9 147.227 1540.17 148.617C1547.05 156.094 1542.37 168.298 1539.92 176.574C1537.7 184.102 1532.88 196.418 1537.85 203.624C1541.3 208.623 1548.8 209.654 1554.02 206.985C1559.86 204.003 1564.17 197.837 1567.45 192.376C1570.96 186.553 1573.29 179.526 1577.53 174.199C1579.39 171.862 1580.98 172.24 1582.67 174.822C1584.34 177.364 1584.12 180.797 1583.6 183.646C1582.53 189.605 1591.71 191.956 1592.8 185.936Z" stroke="#222222" stroke-width="4" stroke-miterlimit="10"/>
<path d="M1249.79 31.7733L1274.52 11.1488C1291.19 31.1406 1321.02 33.838 1341.01 17.1668C1361 0.493724 1363.7 -29.3349 1347.03 -49.3248L1371.76 -69.9512C1399.8 -36.3227 1395.26 13.85 1361.64 41.8961C1328.01 69.9404 1277.83 65.3999 1249.79 31.7733Z" fill="#222222" stroke="#222222" stroke-width="4" stroke-miterlimit="10"/>
<path d="M1246 14.7245L1270.73 -5.89999C1287.4 14.0918 1317.23 16.7892 1337.22 0.117999C1357.21 -16.5551 1359.91 -46.3837 1343.24 -66.3736L1367.97 -87C1396.01 -53.3716 1391.47 -3.19881 1357.85 24.8473C1324.22 52.8915 1274.05 48.3511 1246 14.7245Z" fill="#7DC8D1" stroke="#222222" stroke-width="4" stroke-miterlimit="10"/>
<path d="M1845.68 239.947C1823.63 239.947 1805.69 257.888 1805.69 279.939C1805.69 301.991 1823.63 319.932 1845.68 319.932C1867.73 319.932 1885.67 301.991 1885.67 279.939C1885.67 257.888 1867.73 239.947 1845.68 239.947ZM1845.68 340.831C1812.11 340.831 1784.79 313.514 1784.79 279.939C1784.79 246.363 1812.11 219.048 1845.68 219.048C1879.26 219.048 1906.57 246.363 1906.57 279.939C1906.57 313.514 1879.26 340.831 1845.68 340.831Z" fill="#222222"/>
<path d="M1845.68 239.947C1823.63 239.947 1805.69 257.888 1805.69 279.939C1805.69 301.991 1823.63 319.932 1845.68 319.932C1867.73 319.932 1885.67 301.991 1885.67 279.939C1885.67 257.888 1867.73 239.947 1845.68 239.947ZM1845.68 340.831C1812.11 340.831 1784.79 313.514 1784.79 279.939C1784.79 246.363 1812.11 219.048 1845.68 219.048C1879.26 219.048 1906.57 246.363 1906.57 279.939C1906.57 313.514 1879.26 340.831 1845.68 340.831Z" stroke="#222222" stroke-width="4" stroke-miterlimit="10"/>
<path d="M1841.89 222.899C1819.84 222.899 1801.9 240.839 1801.9 262.89C1801.9 284.943 1819.84 302.883 1841.89 302.883C1863.95 302.883 1881.88 284.943 1881.88 262.89C1881.88 240.839 1863.95 222.899 1841.89 222.899ZM1841.89 323.783C1808.32 323.783 1781 296.466 1781 262.89C1781 229.315 1808.32 202 1841.89 202C1875.47 202 1902.78 229.315 1902.78 262.89C1902.78 296.466 1875.47 323.783 1841.89 323.783Z" fill="#7DC8D1"/>
<path d="M1841.89 222.899C1819.84 222.899 1801.9 240.839 1801.9 262.89C1801.9 284.943 1819.84 302.883 1841.89 302.883C1863.95 302.883 1881.88 284.943 1881.88 262.89C1881.88 240.839 1863.95 222.899 1841.89 222.899ZM1841.89 323.783C1808.32 323.783 1781 296.466 1781 262.89C1781 229.315 1808.32 202 1841.89 202C1875.47 202 1902.78 229.315 1902.78 262.89C1902.78 296.466 1875.47 323.783 1841.89 323.783Z" stroke="#222222" stroke-width="4" stroke-miterlimit="10"/>
<path d="M752.809 398.424C741.4 390.633 734.847 376.956 734.287 363.284C733.709 349.211 738.46 331.311 747.992 320.703C751.439 316.863 758.7 309.864 763.788 314.677C769.535 320.116 763.867 328.848 761.749 334.705C758.346 344.125 758.857 363.248 773.494 361.516C788.58 359.73 789.733 341.382 793.317 330.123C795.365 323.69 785.418 320.313 783.363 326.768C781.465 332.729 780.862 339.155 778.315 344.908C777.379 347.022 775.871 350.056 773.439 350.778C770.194 351.738 770.126 347.353 770.154 344.856C770.245 337.221 775.733 330.506 776.65 322.915C777.46 316.212 774.7 309.419 769.135 305.454C756.177 296.226 741.102 310.383 734.734 321.122C727.189 333.843 722.821 350.85 723.971 365.646C725.238 381.972 733.262 397.799 746.925 407.13C752.517 410.946 758.391 402.237 752.809 398.424Z" fill="#222222"/>
<path d="M752.809 398.424C741.4 390.633 734.847 376.956 734.287 363.284C733.709 349.211 738.46 331.311 747.992 320.703C751.439 316.863 758.7 309.864 763.788 314.677C769.535 320.116 763.867 328.848 761.749 334.705C758.346 344.125 758.857 363.248 773.494 361.516C788.58 359.73 789.733 341.382 793.317 330.123C795.365 323.69 785.418 320.313 783.363 326.768C781.465 332.729 780.862 339.155 778.315 344.908C777.379 347.022 775.871 350.056 773.439 350.778C770.194 351.738 770.126 347.353 770.154 344.856C770.245 337.221 775.733 330.506 776.65 322.915C777.46 316.212 774.7 309.419 769.135 305.454C756.177 296.226 741.102 310.383 734.734 321.122C727.189 333.843 722.821 350.85 723.971 365.646C725.238 381.972 733.262 397.799 746.925 407.13C752.517 410.946 758.391 402.237 752.809 398.424Z" stroke="#222222" stroke-width="4" stroke-miterlimit="10"/>
<path d="M749.02 388.952C737.611 381.161 731.059 367.485 730.498 353.812C729.921 339.74 734.671 321.839 744.203 311.232C747.651 307.392 754.911 300.393 759.999 305.206C765.746 310.645 760.079 319.377 757.961 325.234C754.557 334.654 755.069 353.776 769.705 352.045C784.791 350.259 785.945 331.911 789.529 320.652C791.576 314.219 781.63 310.842 779.574 317.297C777.676 323.258 777.074 329.684 774.526 335.436C773.591 337.55 772.083 340.585 769.651 341.307C766.406 342.267 766.337 337.882 766.366 335.385C766.457 327.75 771.944 321.034 772.861 313.444C773.672 306.74 770.912 299.948 765.347 295.983C752.388 286.754 737.314 300.912 730.946 311.65C723.401 324.372 719.033 341.379 720.182 356.174C721.45 372.501 729.474 388.327 743.137 397.658C748.729 401.475 754.603 392.766 749.02 388.952Z" fill="#6BC298"/>
<path d="M749.02 388.952C737.611 381.161 731.059 367.485 730.498 353.812C729.921 339.74 734.671 321.839 744.203 311.232C747.651 307.392 754.911 300.393 759.999 305.206C765.746 310.645 760.079 319.377 757.961 325.234C754.557 334.654 755.069 353.776 769.705 352.045C784.791 350.259 785.945 331.911 789.529 320.652C791.576 314.219 781.63 310.842 779.574 317.297C777.676 323.258 777.074 329.684 774.526 335.436C773.591 337.55 772.083 340.585 769.651 341.307C766.406 342.267 766.337 337.882 766.366 335.385C766.457 327.75 771.944 321.034 772.861 313.444C773.672 306.74 770.912 299.948 765.347 295.983C752.388 286.754 737.314 300.912 730.946 311.65C723.401 324.372 719.033 341.379 720.182 356.174C721.45 372.501 729.474 388.327 743.137 397.658C748.729 401.475 754.603 392.766 749.02 388.952Z" stroke="#222222" stroke-width="4" stroke-miterlimit="10"/>
<path d="M1153.27 234.689L1193.51 255.519L1186.42 300.28L1226.67 321.119L1220.75 358.46L1241.33 361.718L1249.6 309.528L1209.35 288.69L1216.44 243.929L1176.2 223.098L1183.29 178.339L1136.37 154.049L1126.79 172.554L1160.36 189.93L1153.27 234.689Z" fill="#222222" stroke="#222222" stroke-width="4" stroke-miterlimit="10"/>
<path d="M1149.48 217.64L1189.72 238.471L1182.63 283.232L1222.88 304.07L1216.97 341.411L1237.54 344.669L1245.81 292.479L1205.56 271.641L1212.65 226.88L1172.41 206.049L1179.5 161.29L1132.58 137L1123 155.505L1156.57 172.881L1149.48 217.64Z" fill="#F9E105" stroke="#222222" stroke-width="4" stroke-miterlimit="10"/>
<path d="M927.788 315.092L976.94 400.136L1026.01 315.049L927.788 315.092Z" fill="#222222" stroke="#222222" stroke-width="4" stroke-miterlimit="10"/>
<path d="M924 298.044L973.152 383.087L1022.22 298L924 298.044Z" fill="#EE72A8" stroke="#222222" stroke-width="4" stroke-miterlimit="10"/>
<path d="M1281.71 168.99L1357.01 251.612L1393.32 218.045L1318.02 135.422L1281.71 168.99Z" fill="#222222" stroke="#222222" stroke-width="4" stroke-miterlimit="10"/>
<path d="M1277.92 151.942L1353.22 234.564L1389.53 200.997L1314.23 118.374L1277.92 151.942Z" fill="#6BC298" stroke="#222222" stroke-width="4" stroke-miterlimit="10"/>
<path d="M869.296 131.528C874.892 132.335 880.487 134.282 884.126 138.857C887.469 143.058 888.892 149.626 885.492 154.185C882.118 158.707 875.655 159.616 870.491 160.483C863.71 161.624 856.624 162.262 850.172 164.791C847.598 165.801 843.131 167.384 842.612 170.544C842.138 173.421 845.213 173.561 847.501 173.965C852.498 174.842 857.686 175.044 862.744 175.219C873.229 175.581 884.533 176.113 892.497 183.885C900.977 192.161 900.746 206.978 887.299 209.317C880.209 210.55 872.639 209.677 865.491 209.556C857.396 209.417 849.41 209.283 841.33 208.682C832.381 208.018 823.639 207.913 814.839 209.883C809.527 211.073 799.02 214.458 805.335 221.349C809.461 225.852 816.307 227.615 821.503 230.555C826.278 233.258 830.546 237.933 831.718 243.432C833.175 250.252 828.913 255.343 822.955 258.124C815.354 261.674 806.773 260.586 798.658 260.71C792.574 260.801 793.337 251.354 799.401 251.263C805.902 251.166 813.49 252.453 819.462 249.267C822.258 247.776 823.202 246.743 821.919 243.965C821.004 241.977 819.339 240.381 817.54 239.199C809.476 233.91 798.368 231.983 794.773 221.802C788.634 204.403 812.744 199.798 824.723 198.974C835.724 198.217 846.614 200.066 857.607 200.107C865.08 200.134 872.562 200.401 880.033 200.353C882.167 200.342 886.314 200.732 888.096 199.302C889.779 197.953 888.922 194.917 888.011 193.267C883.098 184.379 870.041 184.946 861.416 184.646C853.568 184.372 840.363 185.033 835.103 178.032C831.457 173.175 832.857 165.738 837.043 161.631C841.718 157.044 848.931 154.911 855.152 153.524C861.787 152.047 869.19 152.062 875.587 149.728C878.394 148.703 878.54 147.078 876.627 144.655C874.744 142.268 871.418 141.386 868.554 140.973C862.558 140.107 863.24 130.655 869.296 131.528Z" fill="#222222"/>
<path d="M869.296 131.528C874.892 132.335 880.487 134.282 884.126 138.857C887.469 143.058 888.892 149.626 885.492 154.185C882.118 158.707 875.655 159.616 870.491 160.483C863.71 161.624 856.624 162.262 850.172 164.791C847.598 165.801 843.131 167.384 842.612 170.544C842.138 173.421 845.213 173.561 847.501 173.965C852.498 174.842 857.686 175.044 862.744 175.219C873.229 175.581 884.533 176.113 892.497 183.885C900.977 192.161 900.746 206.978 887.299 209.317C880.209 210.55 872.639 209.677 865.491 209.556C857.396 209.417 849.41 209.283 841.33 208.682C832.381 208.018 823.639 207.913 814.839 209.883C809.527 211.073 799.02 214.458 805.335 221.349C809.461 225.852 816.307 227.615 821.503 230.555C826.278 233.258 830.546 237.933 831.718 243.432C833.175 250.252 828.913 255.343 822.955 258.124C815.354 261.674 806.773 260.586 798.658 260.71C792.574 260.801 793.337 251.354 799.401 251.263C805.902 251.166 813.49 252.453 819.462 249.267C822.258 247.776 823.202 246.743 821.919 243.965C821.004 241.977 819.339 240.381 817.54 239.199C809.476 233.91 798.368 231.983 794.773 221.802C788.634 204.403 812.744 199.798 824.723 198.974C835.724 198.217 846.614 200.066 857.607 200.107C865.08 200.134 872.562 200.401 880.033 200.353C882.167 200.342 886.314 200.732 888.096 199.302C889.779 197.953 888.922 194.917 888.011 193.267C883.098 184.379 870.041 184.946 861.416 184.646C853.568 184.372 840.363 185.033 835.103 178.032C831.457 173.175 832.857 165.738 837.043 161.631C841.718 157.044 848.931 154.911 855.152 153.524C861.787 152.047 869.19 152.062 875.587 149.728C878.394 148.703 878.54 147.078 876.627 144.655C874.744 142.268 871.418 141.386 868.554 140.973C862.558 140.107 863.24 130.655 869.296 131.528Z" stroke="#222222" stroke-width="4" stroke-miterlimit="10"/>
<path d="M865.508 122.057C871.103 122.864 876.699 124.811 880.338 129.386C883.681 133.587 885.103 140.154 881.703 144.714C878.33 149.235 871.866 150.145 866.703 151.012C859.921 152.153 852.835 152.791 846.383 155.32C843.809 156.329 839.342 157.913 838.823 161.073C838.35 163.95 841.424 164.09 843.712 164.494C848.709 165.371 853.898 165.573 858.955 165.748C869.44 166.109 880.745 166.642 888.708 174.414C897.189 182.69 896.958 197.506 883.51 199.846C876.42 201.079 868.851 200.206 861.702 200.084C853.608 199.946 845.622 199.812 837.541 199.211C828.593 198.546 819.851 198.442 811.05 200.412C805.739 201.602 795.231 204.987 801.547 211.878C805.672 216.381 812.518 218.144 817.714 221.084C822.489 223.787 826.757 228.462 827.93 233.961C829.386 240.78 825.124 245.872 819.167 248.653C811.565 252.203 802.984 251.115 794.869 251.238C788.785 251.329 789.548 241.883 795.612 241.792C802.113 241.695 809.701 242.981 815.674 239.795C818.47 238.305 819.413 237.272 818.131 234.493C817.216 232.506 815.551 230.909 813.751 229.727C805.687 224.439 794.58 222.512 790.984 212.331C784.845 194.932 808.955 190.327 820.934 189.503C831.936 188.746 842.826 190.594 853.818 190.636C861.291 190.663 868.773 190.93 876.244 190.882C878.379 190.871 882.525 191.261 884.308 189.831C885.99 188.482 885.134 185.446 884.223 183.796C879.309 174.908 866.252 175.474 857.627 175.173C849.78 174.901 836.575 175.562 831.315 168.561C827.668 163.704 829.068 156.267 833.254 152.16C837.929 147.572 845.143 145.439 851.363 144.053C857.999 142.575 865.401 142.59 871.798 140.257C874.606 139.232 874.751 137.607 872.838 135.184C870.955 132.797 867.629 131.915 864.765 131.502C858.77 130.636 859.452 121.184 865.508 122.057Z" fill="#FEFFFF"/>
<path d="M865.508 122.057C871.103 122.864 876.699 124.811 880.338 129.386C883.681 133.587 885.103 140.154 881.703 144.714C878.33 149.235 871.866 150.145 866.703 151.012C859.921 152.153 852.835 152.791 846.383 155.32C843.809 156.329 839.342 157.913 838.823 161.073C838.35 163.95 841.424 164.09 843.712 164.494C848.709 165.371 853.898 165.573 858.955 165.748C869.44 166.109 880.745 166.642 888.708 174.414C897.189 182.69 896.958 197.506 883.51 199.846C876.42 201.079 868.851 200.206 861.702 200.084C853.608 199.946 845.622 199.812 837.541 199.211C828.593 198.546 819.851 198.442 811.05 200.412C805.739 201.602 795.231 204.987 801.547 211.878C805.672 216.381 812.518 218.144 817.714 221.084C822.489 223.787 826.757 228.462 827.93 233.961C829.386 240.78 825.124 245.872 819.167 248.653C811.565 252.203 802.984 251.115 794.869 251.238C788.785 251.329 789.548 241.883 795.612 241.792C802.113 241.695 809.701 242.981 815.674 239.795C818.47 238.305 819.413 237.272 818.131 234.493C817.216 232.506 815.551 230.909 813.751 229.727C805.687 224.439 794.58 222.512 790.984 212.331C784.845 194.932 808.955 190.327 820.934 189.503C831.936 188.746 842.826 190.594 853.818 190.636C861.291 190.663 868.773 190.93 876.244 190.882C878.379 190.871 882.525 191.261 884.308 189.831C885.99 188.482 885.134 185.446 884.223 183.796C879.309 174.908 866.252 175.474 857.627 175.173C849.78 174.901 836.575 175.562 831.315 168.561C827.668 163.704 829.068 156.267 833.254 152.16C837.929 147.572 845.143 145.439 851.363 144.053C857.999 142.575 865.401 142.59 871.798 140.257C874.606 139.232 874.751 137.607 872.838 135.184C870.955 132.797 867.629 131.915 864.765 131.502C858.77 130.636 859.452 121.184 865.508 122.057Z" fill="#F9E105" stroke="#222222" stroke-width="4" stroke-miterlimit="10"/>
<path d="M990.557 477.943L958.378 476.748C957.412 502.762 935.461 523.138 909.448 522.172C883.434 521.206 863.058 499.257 864.024 473.244L831.844 472.048C830.217 515.805 864.494 552.726 908.252 554.351C952.009 555.976 988.932 521.7 990.557 477.943Z" fill="#222222" stroke="#222222" stroke-width="4" stroke-miterlimit="10"/>
<path d="M986.768 460.895L954.589 459.7C953.623 485.713 931.672 506.09 905.659 505.123C879.645 504.157 859.269 482.209 860.235 456.195L828.056 455C826.428 498.757 860.705 535.678 904.464 537.303C948.221 538.928 985.143 504.652 986.768 460.895Z" fill="#7DC8D1" stroke="#222222" stroke-width="4" stroke-miterlimit="10"/>
<path d="M1085.79 -2.90571L1134.94 82.1381L1184.01 -2.95117L1085.79 -2.90571Z" fill="#222222" stroke="#222222" stroke-width="4" stroke-miterlimit="10"/>
<path d="M1082 -19.9545L1131.15 65.0893L1180.23 -20L1082 -19.9545Z" fill="#EE72A8" stroke="#222222" stroke-width="4" stroke-miterlimit="10"/>
<path d="M992.341 -75.4095C997.612 -77.4534 1003.44 -78.5047 1008.86 -76.3055C1013.83 -74.2862 1018.3 -69.2627 1017.57 -63.6216C1016.85 -58.0261 1011.67 -54.0614 1007.6 -50.7711C1002.25 -46.4466 996.389 -42.4137 992.011 -37.0436C990.263 -34.8993 987.151 -31.3286 988.247 -28.3206C989.248 -25.5815 991.994 -26.9662 994.188 -27.739C998.969 -29.4268 1003.59 -31.7984 1008.08 -34.1302C1017.39 -38.9624 1027.5 -44.0485 1038.26 -41.1863C1049.71 -38.1384 1056.78 -25.1174 1046.21 -16.4778C1040.64 -11.9221 1033.62 -8.96713 1027.33 -5.56318C1020.21 -1.71218 1013.19 2.09335 1005.85 5.53518C997.732 9.35018 990.064 13.5497 983.364 19.5867C979.32 23.2312 971.828 31.3385 980.712 34.2424C986.518 36.1404 993.347 34.3144 999.317 34.3257C1004.8 34.3371 1010.82 36.3147 1014.54 40.5294C1019.16 45.7556 1017.94 52.2831 1014.12 57.6287C1009.24 64.4536 1001.23 67.7212 994.218 71.8109C988.961 74.8757 984.989 66.2721 990.229 63.2186C995.845 59.9415 1003.09 57.337 1006.73 51.6277C1008.43 48.9569 1008.74 47.5949 1006.27 45.8029C1004.49 44.5205 1002.26 43.9485 1000.11 43.8026C990.486 43.1529 979.862 46.9262 971.733 39.8209C957.845 27.6789 976.586 11.8297 986.618 5.23021C995.834 -0.829465 1006.23 -4.56491 1015.82 -9.92561C1022.35 -13.5701 1029 -17.0101 1035.48 -20.719C1037.34 -21.7779 1041.14 -23.4751 1041.99 -25.5948C1042.8 -27.5951 1040.56 -29.8208 1038.95 -30.8115C1030.31 -36.1419 1019.21 -29.2374 1011.55 -25.2652C1004.58 -21.651 993.4 -14.593 985.383 -18.1106C979.822 -20.5504 977.388 -27.7182 979.021 -33.3498C980.843 -39.6424 986.078 -45.041 990.818 -49.3031C995.872 -53.8493 1002.33 -57.4691 1006.76 -62.6442C1008.7 -64.9135 1008.03 -66.4005 1005.17 -67.573C1002.36 -68.7266 999.029 -67.8628 996.33 -66.8172C990.683 -64.6294 986.637 -73.1989 992.341 -75.4095Z" fill="#222222"/>
<path d="M992.341 -75.4095C997.612 -77.4534 1003.44 -78.5047 1008.86 -76.3055C1013.83 -74.2862 1018.3 -69.2627 1017.57 -63.6216C1016.85 -58.0261 1011.67 -54.0614 1007.6 -50.7711C1002.25 -46.4466 996.389 -42.4137 992.011 -37.0436C990.263 -34.8993 987.151 -31.3286 988.247 -28.3206C989.248 -25.5815 991.994 -26.9662 994.188 -27.739C998.969 -29.4268 1003.59 -31.7984 1008.08 -34.1302C1017.39 -38.9624 1027.5 -44.0485 1038.26 -41.1863C1049.71 -38.1384 1056.78 -25.1174 1046.21 -16.4778C1040.64 -11.9221 1033.62 -8.96713 1027.33 -5.56318C1020.21 -1.71218 1013.19 2.09335 1005.85 5.53518C997.732 9.35018 990.064 13.5497 983.364 19.5867C979.32 23.2312 971.828 31.3385 980.712 34.2424C986.518 36.1404 993.347 34.3144 999.317 34.3257C1004.8 34.3371 1010.82 36.3147 1014.54 40.5294C1019.16 45.7556 1017.94 52.2831 1014.12 57.6287C1009.24 64.4536 1001.23 67.7212 994.218 71.8109C988.961 74.8757 984.989 66.2721 990.229 63.2186C995.845 59.9415 1003.09 57.337 1006.73 51.6277C1008.43 48.9569 1008.74 47.5949 1006.27 45.8029C1004.49 44.5205 1002.26 43.9485 1000.11 43.8026C990.486 43.1529 979.862 46.9262 971.733 39.8209C957.845 27.6789 976.586 11.8297 986.618 5.23021C995.834 -0.829465 1006.23 -4.56491 1015.82 -9.92561C1022.35 -13.5701 1029 -17.0101 1035.48 -20.719C1037.34 -21.7779 1041.14 -23.4751 1041.99 -25.5948C1042.8 -27.5951 1040.56 -29.8208 1038.95 -30.8115C1030.31 -36.1419 1019.21 -29.2374 1011.55 -25.2652C1004.58 -21.651 993.4 -14.593 985.383 -18.1106C979.822 -20.5504 977.388 -27.7182 979.021 -33.3498C980.843 -39.6424 986.078 -45.041 990.818 -49.3031C995.872 -53.8493 1002.33 -57.4691 1006.76 -62.6442C1008.7 -64.9135 1008.03 -66.4005 1005.17 -67.573C1002.36 -68.7266 999.029 -67.8628 996.33 -66.8172C990.683 -64.6294 986.637 -73.1989 992.341 -75.4095Z" stroke="#222222" stroke-width="4" stroke-miterlimit="10"/>
<path d="M988.552 -84.8802C993.824 -86.9241 999.655 -87.9754 1005.07 -85.7762C1010.05 -83.7569 1014.51 -78.7334 1013.78 -73.0923C1013.07 -67.4968 1007.88 -63.5321 1003.81 -60.2418C998.459 -55.9173 992.6 -51.8844 988.223 -46.5143C986.474 -44.37 983.362 -40.7993 984.459 -37.7913C985.459 -35.0522 988.206 -36.4369 990.399 -37.2097C995.18 -38.8975 999.8 -41.2691 1004.3 -43.6009C1013.61 -48.4331 1023.72 -53.5192 1034.47 -50.657C1045.92 -47.6091 1052.99 -34.5881 1042.42 -25.9485C1036.85 -21.3928 1029.83 -18.4378 1023.54 -15.0339C1016.42 -11.1829 1009.4 -7.37736 1002.07 -3.93552C993.943 -0.120523 986.276 4.07901 979.576 10.116C975.531 13.7605 968.04 21.8678 976.924 24.7717C982.73 26.6697 989.558 24.8437 995.529 24.855C1001.02 24.8664 1007.03 26.844 1010.75 31.0587C1015.37 36.2849 1014.15 42.8124 1010.33 48.158C1005.45 54.9829 997.438 58.2505 990.43 62.3402C985.173 65.405 981.201 56.8014 986.44 53.7479C992.057 50.4708 999.298 47.8663 1002.94 42.157C1004.64 39.4862 1004.96 38.1242 1002.48 36.3322C1000.7 35.0498 998.469 34.4778 996.321 34.3319C986.698 33.6822 976.073 37.4555 967.945 30.3502C954.056 18.2082 972.798 2.35904 982.83 -4.24049C992.045 -10.3002 1002.44 -14.0356 1012.04 -19.3963C1018.56 -23.0408 1025.21 -26.4808 1031.69 -30.1897C1033.55 -31.2486 1037.35 -32.9458 1038.2 -35.0655C1039.01 -37.0658 1036.77 -39.2915 1035.17 -40.2822C1026.52 -45.6126 1015.43 -38.7081 1007.76 -34.7359C1000.79 -31.1217 989.611 -24.0637 981.595 -27.5813C976.033 -30.0211 973.599 -37.1889 975.232 -42.8205C977.054 -49.1132 982.29 -54.5117 987.03 -58.7738C992.083 -63.32 998.543 -66.9398 1002.97 -72.1149C1004.91 -74.3842 1004.24 -75.8712 1001.38 -77.0437C998.573 -78.1973 995.241 -77.3335 992.542 -76.2879C986.895 -74.1001 982.849 -82.6696 988.552 -84.8802Z" fill="#FEFFFF"/>
<path d="M988.552 -84.8802C993.824 -86.9241 999.655 -87.9754 1005.07 -85.7762C1010.05 -83.7569 1014.51 -78.7334 1013.78 -73.0923C1013.07 -67.4968 1007.88 -63.5321 1003.81 -60.2418C998.459 -55.9173 992.6 -51.8844 988.223 -46.5143C986.474 -44.37 983.362 -40.7993 984.459 -37.7913C985.459 -35.0522 988.206 -36.4369 990.399 -37.2097C995.18 -38.8975 999.8 -41.2691 1004.3 -43.6009C1013.61 -48.4331 1023.72 -53.5192 1034.47 -50.657C1045.92 -47.6091 1052.99 -34.5881 1042.42 -25.9485C1036.85 -21.3928 1029.83 -18.4378 1023.54 -15.0339C1016.42 -11.1829 1009.4 -7.37736 1002.07 -3.93552C993.943 -0.120523 986.276 4.07901 979.576 10.116C975.531 13.7605 968.04 21.8678 976.924 24.7717C982.73 26.6697 989.558 24.8437 995.529 24.855C1001.02 24.8664 1007.03 26.844 1010.75 31.0587C1015.37 36.2849 1014.15 42.8124 1010.33 48.158C1005.45 54.9829 997.438 58.2505 990.43 62.3402C985.173 65.405 981.201 56.8014 986.44 53.7479C992.057 50.4708 999.298 47.8663 1002.94 42.157C1004.64 39.4862 1004.96 38.1242 1002.48 36.3322C1000.7 35.0498 998.469 34.4778 996.321 34.3319C986.698 33.6822 976.073 37.4555 967.945 30.3502C954.056 18.2082 972.798 2.35904 982.83 -4.24049C992.045 -10.3002 1002.44 -14.0356 1012.04 -19.3963C1018.56 -23.0408 1025.21 -26.4808 1031.69 -30.1897C1033.55 -31.2486 1037.35 -32.9458 1038.2 -35.0655C1039.01 -37.0658 1036.77 -39.2915 1035.17 -40.2822C1026.52 -45.6126 1015.43 -38.7081 1007.76 -34.7359C1000.79 -31.1217 989.611 -24.0637 981.595 -27.5813C976.033 -30.0211 973.599 -37.1889 975.232 -42.8205C977.054 -49.1132 982.29 -54.5117 987.03 -58.7738C992.083 -63.32 998.543 -66.9398 1002.97 -72.1149C1004.91 -74.3842 1004.24 -75.8712 1001.38 -77.0437C998.573 -78.1973 995.241 -77.3335 992.542 -76.2879C986.895 -74.1001 982.849 -82.6696 988.552 -84.8802Z" stroke="#222222" stroke-width="4" stroke-miterlimit="10"/>
<path d="M1565.94 20.1219C1565.94 31.7601 1556.5 41.1953 1544.86 41.1953C1533.22 41.1953 1523.79 31.7601 1523.79 20.1219C1523.79 8.48368 1533.22 -0.951533 1544.86 -0.951533C1556.5 -0.951533 1565.94 8.48368 1565.94 20.1219Z" fill="#222222"/>
<path d="M1523.79 20.1219C1523.79 8.48336 1533.22 -0.951534 1544.86 -0.951534C1556.5 -0.951534 1565.94 8.48336 1565.94 20.1219C1565.94 31.7604 1556.5 41.1953 1544.86 41.1953C1533.22 41.1953 1523.79 31.7604 1523.79 20.1219Z" stroke="#222222" stroke-width="4" stroke-miterlimit="10"/>
<path d="M1562.15 3.07355C1562.15 14.7118 1552.71 24.147 1541.07 24.147C1529.43 24.147 1520 14.7118 1520 3.07355C1520 -8.56466 1529.43 -17.9999 1541.07 -17.9999C1552.71 -17.9999 1562.15 -8.56466 1562.15 3.07355Z" fill="#7DC8D1"/>
<path d="M1520 3.07355C1520 -8.56498 1529.43 -17.9999 1541.07 -17.9999C1552.71 -17.9999 1562.15 -8.56498 1562.15 3.07355C1562.15 14.7121 1552.71 24.147 1541.07 24.147C1529.43 24.147 1520 14.7121 1520 3.07355Z" stroke="#222222" stroke-width="4" stroke-miterlimit="10"/>
<path d="M1081.86 191.815C1080.11 188.449 1074.5 184.993 1071.3 188.435C1068.72 191.208 1067.66 195.641 1065.32 198.712C1060.18 205.48 1052.56 205.716 1046.07 200.611C1042.91 198.122 1039.52 192.576 1035.52 191.491C1029.77 189.928 1026.08 197.041 1025.17 201.492C1024.09 206.777 1024.37 212.352 1024.26 217.715C1024.16 222.797 1025.24 227.801 1024.85 232.863C1024.39 238.938 1015.05 237.333 1015.51 231.296C1015.76 228.042 1014.79 224.733 1014.79 221.465C1014.79 217.836 1014.92 214.197 1014.99 210.568C1015.1 204.72 1015.37 198.617 1017.9 193.224C1020.28 188.166 1024.71 184.141 1030.08 182.489C1036.14 180.627 1041.26 183.232 1045.69 187.282C1048.4 189.769 1053.6 197.461 1057.36 193.508C1060.62 190.091 1061.49 185.012 1064.74 181.557C1073.02 172.774 1086.11 179.589 1090.71 188.454C1093.53 193.862 1084.64 197.164 1081.86 191.815Z" fill="#222222"/>
<path d="M1081.86 191.815C1080.11 188.449 1074.5 184.993 1071.3 188.435C1068.72 191.208 1067.66 195.641 1065.32 198.712C1060.18 205.48 1052.56 205.716 1046.07 200.611C1042.91 198.122 1039.52 192.576 1035.52 191.491C1029.77 189.928 1026.08 197.041 1025.17 201.492C1024.09 206.777 1024.37 212.352 1024.26 217.715C1024.16 222.797 1025.24 227.801 1024.85 232.863C1024.39 238.938 1015.05 237.333 1015.51 231.296C1015.76 228.042 1014.79 224.733 1014.79 221.465C1014.79 217.836 1014.92 214.197 1014.99 210.568C1015.1 204.72 1015.37 198.617 1017.9 193.224C1020.28 188.166 1024.71 184.141 1030.08 182.489C1036.14 180.627 1041.26 183.232 1045.69 187.282C1048.4 189.769 1053.6 197.461 1057.36 193.508C1060.62 190.091 1061.49 185.012 1064.74 181.557C1073.02 172.774 1086.11 179.589 1090.71 188.454C1093.53 193.862 1084.64 197.164 1081.86 191.815Z" stroke="#222222" stroke-width="4" stroke-miterlimit="10"/>
<path d="M1078.07 182.344C1076.32 178.978 1070.71 175.523 1067.51 178.965C1064.93 181.738 1063.87 186.17 1061.54 189.241C1056.39 196.009 1048.78 196.246 1042.28 191.141C1039.12 188.652 1035.73 183.105 1031.73 182.02C1025.99 180.457 1022.3 187.57 1021.38 192.022C1020.3 197.306 1020.58 202.881 1020.48 208.244C1020.37 213.326 1021.45 218.331 1021.07 223.392C1020.6 229.467 1011.27 227.862 1011.73 221.826C1011.97 218.571 1011 215.262 1011 211.994C1011 208.365 1011.14 204.726 1011.2 201.097C1011.32 195.249 1011.58 189.146 1014.12 183.753C1016.49 178.696 1020.92 174.67 1026.3 173.019C1032.35 171.156 1037.48 173.761 1041.9 177.811C1044.61 180.298 1049.81 187.991 1053.58 184.037C1056.83 180.62 1057.7 175.542 1060.96 172.087C1069.23 163.303 1082.32 170.118 1086.93 178.983C1089.74 184.392 1080.85 187.693 1078.07 182.344Z" fill="#7DC8D1"/>
<path d="M1078.07 182.344C1076.32 178.978 1070.71 175.523 1067.51 178.965C1064.93 181.738 1063.87 186.17 1061.54 189.241C1056.39 196.009 1048.78 196.246 1042.28 191.141C1039.12 188.652 1035.73 183.105 1031.73 182.02C1025.99 180.457 1022.3 187.57 1021.38 192.022C1020.3 197.306 1020.58 202.881 1020.48 208.244C1020.37 213.326 1021.45 218.331 1021.07 223.392C1020.6 229.467 1011.27 227.862 1011.73 221.826C1011.97 218.571 1011 215.262 1011 211.994C1011 208.365 1011.14 204.726 1011.2 201.097C1011.32 195.249 1011.58 189.146 1014.12 183.753C1016.49 178.696 1020.92 174.67 1026.3 173.019C1032.35 171.156 1037.48 173.761 1041.9 177.811C1044.61 180.298 1049.81 187.991 1053.58 184.037C1056.83 180.62 1057.7 175.542 1060.96 172.087C1069.23 163.303 1082.32 170.118 1086.93 178.983C1089.74 184.392 1080.85 187.693 1078.07 182.344Z" stroke="#222222" stroke-width="4" stroke-miterlimit="10"/>
<path d="M2084.61 511.434L2278.62 399.57L2300.93 438.151L2106.92 550.015L2084.61 511.434Z" fill="#222222" stroke="#222222" stroke-width="4" stroke-miterlimit="10"/>
<path d="M2081.15 495.865L2275.16 384L2297.46 422.581L2103.45 534.446L2081.15 495.865Z" fill="#7DC8D1" stroke="#222222" stroke-width="4" stroke-miterlimit="10"/>
<path d="M224.698 335.418C233.671 344.302 247.086 347.81 259.459 345.947C272.195 344.029 287.441 336.671 295.315 326.289C298.165 322.532 303.19 314.809 297.988 311.081C292.109 306.867 285.252 313.461 280.359 316.373C272.491 321.056 255.234 323.905 254.252 310.481C253.242 296.644 269.517 292.433 279.004 287.273C284.426 284.323 289.182 292.658 283.741 295.618C278.718 298.351 273.052 300.004 268.329 303.284C266.593 304.488 264.13 306.367 263.905 308.673C263.604 311.749 267.553 311.05 269.789 310.591C276.628 309.19 281.708 303.107 288.364 300.971C294.242 299.083 300.818 300.384 305.343 304.688C315.874 314.712 305.774 330.68 297.236 338.249C287.121 347.215 272.609 354.075 259.124 355.606C244.245 357.294 228.646 352.838 217.902 342.2C213.504 337.846 220.309 331.071 224.698 335.418Z" fill="#222222"/>
<path d="M224.698 335.418C233.671 344.302 247.086 347.81 259.459 345.947C272.195 344.029 287.441 336.671 295.315 326.289C298.165 322.532 303.19 314.809 297.988 311.081C292.109 306.867 285.252 313.461 280.359 316.373C272.491 321.056 255.234 323.905 254.252 310.481C253.242 296.644 269.517 292.433 279.004 287.273C284.426 284.323 289.182 292.658 283.741 295.618C278.718 298.351 273.052 300.004 268.329 303.284C266.593 304.488 264.13 306.367 263.905 308.673C263.604 311.749 267.553 311.05 269.789 310.591C276.628 309.19 281.708 303.107 288.364 300.971C294.242 299.083 300.818 300.384 305.343 304.688C315.874 314.712 305.774 330.68 297.236 338.249C287.121 347.215 272.609 354.075 259.124 355.606C244.245 357.294 228.646 352.838 217.902 342.2C213.504 337.846 220.309 331.071 224.698 335.418Z" stroke="#222222" stroke-width="4" stroke-miterlimit="10"/>
<path d="M221.234 326.768C230.206 335.652 243.622 339.16 255.994 337.297C268.73 335.378 283.977 328.021 291.851 317.639C294.7 313.881 299.725 306.159 294.523 302.43C288.645 298.216 281.787 304.811 276.894 307.722C269.027 312.406 251.769 315.255 250.787 301.83C249.778 287.994 266.053 283.783 275.539 278.622C280.961 275.673 285.717 284.008 280.277 286.968C275.254 289.701 269.588 291.353 264.864 294.633C263.129 295.837 260.666 297.716 260.44 300.022C260.139 303.098 264.088 302.399 266.325 301.941C273.163 300.54 278.243 294.457 284.9 292.32C290.777 290.433 297.354 291.734 301.878 296.038C312.409 306.062 302.309 322.03 293.772 329.598C283.656 338.565 269.144 345.424 255.66 346.955C240.781 348.644 225.181 344.187 214.437 333.55C210.039 329.195 216.845 322.421 221.234 326.768Z" fill="#F9E105"/>
<path d="M221.234 326.768C230.206 335.652 243.622 339.16 255.994 337.297C268.73 335.378 283.977 328.021 291.851 317.639C294.7 313.881 299.725 306.159 294.523 302.43C288.645 298.216 281.787 304.811 276.894 307.722C269.027 312.406 251.769 315.255 250.787 301.83C249.778 287.994 266.053 283.783 275.539 278.622C280.961 275.673 285.717 284.008 280.277 286.968C275.254 289.701 269.588 291.353 264.864 294.633C263.129 295.837 260.666 297.716 260.44 300.022C260.139 303.098 264.088 302.399 266.325 301.941C273.163 300.54 278.243 294.457 284.9 292.32C290.777 290.433 297.354 291.734 301.878 296.038C312.409 306.062 302.309 322.03 293.772 329.598C283.656 338.565 269.144 345.424 255.66 346.955C240.781 348.644 225.181 344.187 214.437 333.55C210.039 329.195 216.845 322.421 221.234 326.768Z" stroke="#222222" stroke-width="4" stroke-miterlimit="10"/>
<path d="M2081.57 379.57L2026.32 539.123L1915.6 411.558L2081.57 379.57Z" fill="#222222" stroke="#222222" stroke-width="4" stroke-miterlimit="10"/>
<path d="M2078.11 364L2022.86 523.553L1912.14 395.988L2078.11 364Z" fill="#6BC298" stroke="#222222" stroke-width="4" stroke-miterlimit="10"/>
<path d="M42.8316 -76.4137C47.6504 -78.2804 52.9819 -79.2405 57.9358 -77.2337C62.4861 -75.3878 66.5652 -70.8016 65.9035 -65.6479C65.2453 -60.5375 60.5062 -56.9166 56.7822 -53.9116C51.8907 -49.9637 46.5315 -46.2788 42.5285 -41.3743C40.9298 -39.4159 38.0839 -36.1549 39.0885 -33.4094C40.0014 -30.9061 42.5147 -32.1724 44.5187 -32.8783C48.8923 -34.4197 53.117 -36.5856 57.2256 -38.7135C65.7407 -43.1268 74.9833 -47.7718 84.8183 -45.1578C95.2873 -42.3742 101.757 -30.4822 92.0932 -22.5917C86.9991 -18.431 80.5763 -15.7322 74.8274 -12.6251C68.3164 -9.10632 61.8954 -5.63075 55.1886 -2.48734C47.7595 0.996877 40.7479 4.83229 34.6214 10.3458C30.9233 13.6726 24.0745 21.0787 32.1981 23.7308C37.5054 25.4643 43.7514 23.7966 49.2111 23.8069C54.2273 23.8173 59.7285 25.6217 63.1304 29.4709C67.3499 34.2457 66.2413 40.2073 62.7441 45.0894C58.2805 51.3226 50.957 54.3068 44.5464 58.0419C39.7415 60.841 36.1093 52.9851 40.8986 50.1946C46.0343 47.2017 52.6562 44.823 55.9854 39.6087C57.5426 37.1694 57.8301 35.9256 55.5628 34.289C53.9398 33.1178 51.8976 32.5953 49.9334 32.4621C41.1359 31.8687 31.4204 35.3149 23.9861 28.8257C11.2862 17.7364 28.4256 3.26318 37.5989 -2.76587C46.024 -8.30187 55.5281 -11.7134 64.303 -16.6076C70.2702 -19.9361 76.35 -23.0795 82.2808 -26.4651C83.9765 -27.4339 87.4546 -28.9823 88.2323 -30.9182C88.9668 -32.745 86.9228 -34.7778 85.454 -35.6809C77.5521 -40.5508 67.4036 -34.2467 60.3971 -30.6171C54.0229 -27.3163 43.7999 -20.8721 36.4678 -24.0829C31.384 -26.3112 29.1583 -32.8575 30.6496 -38.0008C32.3159 -43.7478 37.1035 -48.6801 41.4373 -52.5726C46.0586 -56.7228 51.9651 -60.0289 56.0131 -64.7552C57.7903 -66.8278 57.1754 -68.1858 54.5633 -69.2567C51.9928 -70.312 48.9478 -69.5231 46.4795 -68.5682C41.316 -66.5683 37.6145 -74.3948 42.8316 -76.4137Z" fill="#222222"/>
<path d="M42.8316 -76.4137C47.6504 -78.2804 52.9819 -79.2405 57.9358 -77.2337C62.4861 -75.3878 66.5652 -70.8016 65.9035 -65.6479C65.2453 -60.5375 60.5062 -56.9166 56.7822 -53.9116C51.8907 -49.9637 46.5315 -46.2788 42.5285 -41.3743C40.9298 -39.4159 38.0839 -36.1549 39.0885 -33.4094C40.0014 -30.9061 42.5147 -32.1724 44.5187 -32.8783C48.8923 -34.4197 53.117 -36.5856 57.2256 -38.7135C65.7407 -43.1268 74.9833 -47.7718 84.8183 -45.1578C95.2873 -42.3742 101.757 -30.4822 92.0932 -22.5917C86.9991 -18.431 80.5763 -15.7322 74.8274 -12.6251C68.3164 -9.10632 61.8954 -5.63075 55.1886 -2.48734C47.7595 0.996877 40.7479 4.83229 34.6214 10.3458C30.9233 13.6726 24.0745 21.0787 32.1981 23.7308C37.5054 25.4643 43.7514 23.7966 49.2111 23.8069C54.2273 23.8173 59.7285 25.6217 63.1304 29.4709C67.3499 34.2457 66.2413 40.2073 62.7441 45.0894C58.2805 51.3226 50.957 54.3068 44.5464 58.0419C39.7415 60.841 36.1093 52.9851 40.8986 50.1946C46.0343 47.2017 52.6562 44.823 55.9854 39.6087C57.5426 37.1694 57.8301 35.9256 55.5628 34.289C53.9398 33.1178 51.8976 32.5953 49.9334 32.4621C41.1359 31.8687 31.4204 35.3149 23.9861 28.8257C11.2862 17.7364 28.4256 3.26318 37.5989 -2.76587C46.024 -8.30187 55.5281 -11.7134 64.303 -16.6076C70.2702 -19.9361 76.35 -23.0795 82.2808 -26.4651C83.9765 -27.4339 87.4546 -28.9823 88.2323 -30.9182C88.9668 -32.745 86.9228 -34.7778 85.454 -35.6809C77.5521 -40.5508 67.4036 -34.2467 60.3971 -30.6171C54.0229 -27.3163 43.7999 -20.8721 36.4678 -24.0829C31.384 -26.3112 29.1583 -32.8575 30.6496 -38.0008C32.3159 -43.7478 37.1035 -48.6801 41.4373 -52.5726C46.0586 -56.7228 51.9651 -60.0289 56.0131 -64.7552C57.7903 -66.8278 57.1754 -68.1858 54.5633 -69.2567C51.9928 -70.312 48.9478 -69.5231 46.4795 -68.5682C41.316 -66.5683 37.6145 -74.3948 42.8316 -76.4137Z" stroke="#222222" stroke-width="4" stroke-miterlimit="10"/>
<path d="M39.3675 -85.0636C44.1863 -86.9303 49.5178 -87.8904 54.4717 -85.8836C59.0219 -84.0377 63.1011 -79.4515 62.4394 -74.2978C61.7812 -69.1874 57.0421 -65.5665 53.3181 -62.5615C48.4265 -58.6136 43.0674 -54.9287 39.0644 -50.0242C37.4657 -48.0658 34.6198 -44.8048 35.6244 -42.0593C36.5372 -39.556 39.0506 -40.8223 41.0546 -41.5282C45.4282 -43.0696 49.6529 -45.2355 53.7615 -47.3634C62.2766 -51.7767 71.5192 -56.4217 81.3542 -53.8077C91.8232 -51.0241 98.2926 -39.1321 88.6291 -31.2416C83.535 -27.0809 77.1122 -24.3821 71.3633 -21.275C64.8523 -17.7562 58.4313 -14.2807 51.7245 -11.1372C44.2954 -7.65302 37.2838 -3.81762 31.1573 1.69589C27.4592 5.02268 20.6104 12.4288 28.734 15.0809C34.0413 16.8144 40.2873 15.1466 45.7469 15.157C50.7632 15.1674 56.2644 16.9718 59.6663 20.821C63.8857 25.5958 62.7772 31.5574 59.28 36.4395C54.8163 42.6727 47.4929 45.6569 41.0823 49.392C36.2774 52.1911 32.6452 44.3352 37.4345 41.5447C42.5702 38.5518 49.1921 36.1731 52.5213 30.9588C54.0785 28.5195 54.366 27.2757 52.0986 25.6391C50.4756 24.4679 48.4335 23.9454 46.4692 23.8122C37.6718 23.2188 27.9563 26.665 20.522 20.1758C7.8221 9.08646 24.9615 -5.38672 34.1348 -11.4158C42.5598 -16.9518 52.064 -20.3633 60.8389 -25.2575C66.8061 -28.586 72.8859 -31.7294 78.8166 -35.115C80.5124 -36.0838 83.9905 -37.6322 84.7682 -39.5681C85.5026 -41.3949 83.4587 -43.4277 81.9899 -44.3308C74.088 -49.2007 63.9394 -42.8966 56.933 -39.267C50.5588 -35.9662 40.3358 -29.522 33.0037 -32.7328C27.9199 -34.9611 25.6942 -41.5074 27.1855 -46.6507C28.8518 -52.3977 33.6394 -57.33 37.9732 -61.2225C42.5945 -65.3727 48.501 -68.6788 52.549 -73.4051C54.3262 -75.4777 53.7113 -76.8357 51.0992 -77.9066C48.5287 -78.9619 45.4837 -78.173 43.0154 -77.2181C37.8519 -75.2182 34.1504 -83.0447 39.3675 -85.0636Z" fill="#FEFFFF"/>
<path d="M39.3675 -85.0636C44.1863 -86.9303 49.5178 -87.8904 54.4717 -85.8836C59.0219 -84.0377 63.1011 -79.4515 62.4394 -74.2978C61.7812 -69.1874 57.0421 -65.5665 53.3181 -62.5615C48.4265 -58.6136 43.0674 -54.9287 39.0644 -50.0242C37.4657 -48.0658 34.6198 -44.8048 35.6244 -42.0593C36.5372 -39.556 39.0506 -40.8223 41.0546 -41.5282C45.4282 -43.0696 49.6529 -45.2355 53.7615 -47.3634C62.2766 -51.7767 71.5192 -56.4217 81.3542 -53.8077C91.8232 -51.0241 98.2926 -39.1321 88.6291 -31.2416C83.535 -27.0809 77.1122 -24.3821 71.3633 -21.275C64.8523 -17.7562 58.4313 -14.2807 51.7245 -11.1372C44.2954 -7.65302 37.2838 -3.81762 31.1573 1.69589C27.4592 5.02268 20.6104 12.4288 28.734 15.0809C34.0413 16.8144 40.2873 15.1466 45.7469 15.157C50.7632 15.1674 56.2644 16.9718 59.6663 20.821C63.8857 25.5958 62.7772 31.5574 59.28 36.4395C54.8163 42.6727 47.4929 45.6569 41.0823 49.392C36.2774 52.1911 32.6452 44.3352 37.4345 41.5447C42.5702 38.5518 49.1921 36.1731 52.5213 30.9588C54.0785 28.5195 54.366 27.2757 52.0986 25.6391C50.4756 24.4679 48.4335 23.9454 46.4692 23.8122C37.6718 23.2188 27.9563 26.665 20.522 20.1758C7.8221 9.08646 24.9615 -5.38672 34.1348 -11.4158C42.5598 -16.9518 52.064 -20.3633 60.8389 -25.2575C66.8061 -28.586 72.8859 -31.7294 78.8166 -35.115C80.5124 -36.0838 83.9905 -37.6322 84.7682 -39.5681C85.5026 -41.3949 83.4587 -43.4277 81.9899 -44.3308C74.088 -49.2007 63.9394 -42.8966 56.933 -39.267C50.5588 -35.9662 40.3358 -29.522 33.0037 -32.7328C27.9199 -34.9611 25.6942 -41.5074 27.1855 -46.6507C28.8518 -52.3977 33.6394 -57.33 37.9732 -61.2225C42.5945 -65.3727 48.501 -68.6788 52.549 -73.4051C54.3262 -75.4777 53.7113 -76.8357 51.0992 -77.9066C48.5287 -78.9619 45.4837 -78.173 43.0154 -77.2181C37.8519 -75.2182 34.1504 -83.0447 39.3675 -85.0636Z" stroke="#222222" stroke-width="4" stroke-miterlimit="10"/>
<path d="M131.869 460.439L124.473 516.972L169.794 551.634L222.509 529.765L229.905 473.234L184.586 438.57L131.869 460.439Z" fill="#222222" stroke="#222222" stroke-width="4" stroke-miterlimit="10"/>
<path d="M128.404 444.869L121.008 501.402L166.329 536.064L219.045 514.195L226.441 457.664L181.121 423L128.404 444.869Z" fill="#6BC298" stroke="#222222" stroke-width="4" stroke-miterlimit="10"/>
<path d="M231.232 70.3241C211.432 74.1387 198.433 93.3331 202.255 113.105C206.075 132.881 225.291 145.866 245.091 142.05C264.889 138.234 277.89 119.041 274.067 99.2653C270.246 79.4914 251.032 66.5077 231.232 70.3241ZM227.61 51.583C257.756 45.7737 287.015 65.5406 292.832 95.6496C298.65 125.758 278.857 154.982 248.711 160.791C218.565 166.6 189.308 146.833 183.491 116.723C177.673 86.6155 197.466 57.3923 227.61 51.583Z" fill="#222222"/>
<path d="M231.232 70.3241C211.432 74.1387 198.433 93.3331 202.255 113.105C206.075 132.881 225.291 145.866 245.091 142.05C264.889 138.234 277.89 119.041 274.067 99.2653C270.246 79.4914 251.032 66.5077 231.232 70.3241ZM227.61 51.583C257.756 45.7737 287.015 65.5406 292.832 95.6496C298.65 125.758 278.857 154.982 248.711 160.791C218.565 166.6 189.308 146.833 183.491 116.723C177.673 86.6155 197.466 57.3923 227.61 51.583Z" stroke="#222222" stroke-width="4" stroke-miterlimit="10"/>
<path d="M227.768 54.7543C207.968 58.5689 194.968 77.7633 198.791 97.5354C202.611 117.311 221.827 130.296 241.627 126.48C261.425 122.664 274.426 103.471 270.603 83.6954C266.782 63.9215 247.568 50.9379 227.768 54.7543ZM224.146 36.0132C254.292 30.2038 283.551 49.9708 289.367 80.0797C295.186 110.189 275.393 139.412 245.247 145.221C215.101 151.03 185.844 131.264 180.027 101.153C174.209 71.0457 194.002 41.8225 224.146 36.0132Z" fill="#7DC8D1"/>
<path d="M227.768 54.7543C207.968 58.5689 194.968 77.7633 198.791 97.5354C202.611 117.311 221.827 130.296 241.627 126.48C261.425 122.664 274.426 103.471 270.603 83.6954C266.782 63.9215 247.568 50.9379 227.768 54.7543ZM224.146 36.0132C254.292 30.2038 283.551 49.9708 289.367 80.0797C295.186 110.189 275.393 139.412 245.247 145.221C215.101 151.03 185.844 131.264 180.027 101.153C174.209 71.0457 194.002 41.8225 224.146 36.0132Z" stroke="#222222" stroke-width="4" stroke-miterlimit="10"/>
<path d="M178.434 198.57L123.187 358.124L12.4641 230.558L178.434 198.57Z" fill="#222222" stroke="#222222" stroke-width="4" stroke-miterlimit="10"/>
<path d="M174.97 183L119.723 342.554L9 214.988L174.97 183Z" fill="#EE72A8" stroke="#222222" stroke-width="4" stroke-miterlimit="10"/>
<path d="M2511.32 303.657C2491.15 303.657 2474.75 320.042 2474.75 340.181C2474.75 360.321 2491.15 376.706 2511.32 376.706C2531.48 376.706 2547.89 360.321 2547.89 340.181C2547.89 320.042 2531.48 303.657 2511.32 303.657ZM2511.32 395.793C2480.62 395.793 2455.64 370.845 2455.64 340.181C2455.64 309.516 2480.62 284.57 2511.32 284.57C2542.02 284.57 2567 309.516 2567 340.181C2567 370.845 2542.02 395.793 2511.32 395.793Z" fill="#222222"/>
<path d="M2511.32 303.657C2491.15 303.657 2474.75 320.042 2474.75 340.181C2474.75 360.321 2491.15 376.706 2511.32 376.706C2531.48 376.706 2547.89 360.321 2547.89 340.181C2547.89 320.042 2531.48 303.657 2511.32 303.657ZM2511.32 395.793C2480.62 395.793 2455.64 370.845 2455.64 340.181C2455.64 309.516 2480.62 284.57 2511.32 284.57C2542.02 284.57 2567 309.516 2567 340.181C2567 370.845 2542.02 395.793 2511.32 395.793Z" stroke="#222222" stroke-width="4" stroke-miterlimit="10"/>
<path d="M2507.85 288.087C2487.69 288.087 2471.29 304.472 2471.29 324.611C2471.29 344.752 2487.69 361.136 2507.85 361.136C2528.02 361.136 2544.42 344.752 2544.42 324.611C2544.42 304.472 2528.02 288.087 2507.85 288.087ZM2507.85 380.223C2477.15 380.223 2452.17 355.275 2452.17 324.611C2452.17 293.947 2477.15 269 2507.85 269C2538.56 269 2563.54 293.947 2563.54 324.611C2563.54 355.275 2538.56 380.223 2507.85 380.223Z" fill="#7DC8D1"/>
<path d="M2507.85 288.087C2487.69 288.087 2471.29 304.472 2471.29 324.611C2471.29 344.752 2487.69 361.136 2507.85 361.136C2528.02 361.136 2544.42 344.752 2544.42 324.611C2544.42 304.472 2528.02 288.087 2507.85 288.087ZM2507.85 380.223C2477.15 380.223 2452.17 355.275 2452.17 324.611C2452.17 293.947 2477.15 269 2507.85 269C2538.56 269 2563.54 293.947 2563.54 324.611C2563.54 355.275 2538.56 380.223 2507.85 380.223Z" stroke="#222222" stroke-width="4" stroke-miterlimit="10"/>
<path d="M2302.16 206.816C2302.16 217.445 2293.54 226.062 2282.89 226.062C2272.25 226.062 2263.62 217.445 2263.62 206.816C2263.62 196.187 2272.25 187.57 2282.89 187.57C2293.54 187.57 2302.16 196.187 2302.16 206.816Z" fill="#222222"/>
<path d="M2263.62 206.816C2263.62 196.187 2272.25 187.57 2282.89 187.57C2293.54 187.57 2302.16 196.187 2302.16 206.816C2302.16 217.446 2293.54 226.062 2282.89 226.062C2272.25 226.062 2263.62 217.446 2263.62 206.816Z" stroke="#222222" stroke-width="4" stroke-miterlimit="10"/>
<path d="M2298.7 191.246C2298.7 201.876 2290.07 210.493 2279.43 210.493C2268.79 210.493 2260.16 201.876 2260.16 191.246C2260.16 180.617 2268.79 172 2279.43 172C2290.07 172 2298.7 180.617 2298.7 191.246Z" fill="#7DC8D1"/>
<path d="M2260.16 191.246C2260.16 180.617 2268.79 172 2279.43 172C2290.07 172 2298.7 180.617 2298.7 191.246C2298.7 201.876 2290.07 210.493 2279.43 210.493C2268.79 210.493 2260.16 201.876 2260.16 191.246Z" stroke="#222222" stroke-width="4" stroke-miterlimit="10"/>
<path d="M2501.01 112.586C2505.83 110.719 2511.16 109.759 2516.11 111.768C2520.66 113.612 2524.74 118.2 2524.08 123.352C2523.42 128.462 2518.68 132.083 2514.96 135.088C2510.07 139.038 2504.71 142.721 2500.7 147.625C2499.11 149.584 2496.26 152.845 2497.26 155.592C2498.18 158.094 2500.69 156.829 2502.7 156.123C2507.07 154.582 2511.29 152.416 2515.4 150.286C2523.92 145.873 2533.16 141.228 2542.99 143.842C2553.46 146.625 2559.93 158.517 2550.27 166.408C2545.17 170.569 2538.75 173.267 2533 176.376C2526.49 179.893 2520.07 183.369 2513.36 186.512C2505.94 189.996 2498.92 193.832 2492.8 199.345C2489.1 202.674 2482.25 210.078 2490.37 212.73C2495.68 214.464 2501.93 212.796 2507.39 212.807C2512.4 212.817 2517.9 214.623 2521.3 218.472C2525.53 223.245 2524.42 229.207 2520.92 234.089C2516.46 240.322 2509.13 243.306 2502.72 247.042C2497.92 249.841 2494.28 241.983 2499.07 239.194C2504.21 236.201 2510.83 233.823 2514.16 228.608C2515.72 226.169 2516.01 224.925 2513.74 223.289C2512.12 222.117 2510.07 221.595 2508.11 221.462C2499.31 220.868 2489.59 224.315 2482.16 217.825C2469.46 206.736 2486.6 192.261 2495.77 186.234C2504.2 180.699 2513.7 177.288 2522.48 172.392C2528.45 169.063 2534.52 165.922 2540.46 162.534C2542.15 161.567 2545.63 160.017 2546.41 158.081C2547.14 156.255 2545.1 154.222 2543.63 153.317C2535.73 148.449 2525.58 154.755 2518.57 158.382C2512.2 161.683 2501.97 168.129 2494.64 164.917C2489.56 162.688 2487.33 156.142 2488.83 150.999C2490.49 145.252 2495.28 140.321 2499.61 136.429C2504.23 132.277 2510.14 128.971 2514.19 124.244C2515.96 122.172 2515.35 120.814 2512.74 119.743C2510.17 118.689 2507.12 119.478 2504.65 120.433C2499.49 122.431 2495.79 114.605 2501.01 112.586Z" fill="#222222"/>
<path d="M2501.01 112.586C2505.83 110.719 2511.16 109.759 2516.11 111.768C2520.66 113.612 2524.74 118.2 2524.08 123.352C2523.42 128.462 2518.68 132.083 2514.96 135.088C2510.07 139.038 2504.71 142.721 2500.7 147.625C2499.11 149.584 2496.26 152.845 2497.26 155.592C2498.18 158.094 2500.69 156.829 2502.7 156.123C2507.07 154.582 2511.29 152.416 2515.4 150.286C2523.92 145.873 2533.16 141.228 2542.99 143.842C2553.46 146.625 2559.93 158.517 2550.27 166.408C2545.17 170.569 2538.75 173.267 2533 176.376C2526.49 179.893 2520.07 183.369 2513.36 186.512C2505.94 189.996 2498.92 193.832 2492.8 199.345C2489.1 202.674 2482.25 210.078 2490.37 212.73C2495.68 214.464 2501.93 212.796 2507.39 212.807C2512.4 212.817 2517.9 214.623 2521.3 218.472C2525.53 223.245 2524.42 229.207 2520.92 234.089C2516.46 240.322 2509.13 243.306 2502.72 247.042C2497.92 249.841 2494.28 241.983 2499.07 239.194C2504.21 236.201 2510.83 233.823 2514.16 228.608C2515.72 226.169 2516.01 224.925 2513.74 223.289C2512.12 222.117 2510.07 221.595 2508.11 221.462C2499.31 220.868 2489.59 224.315 2482.16 217.825C2469.46 206.736 2486.6 192.261 2495.77 186.234C2504.2 180.699 2513.7 177.288 2522.48 172.392C2528.45 169.063 2534.52 165.922 2540.46 162.534C2542.15 161.567 2545.63 160.017 2546.41 158.081C2547.14 156.255 2545.1 154.222 2543.63 153.317C2535.73 148.449 2525.58 154.755 2518.57 158.382C2512.2 161.683 2501.97 168.129 2494.64 164.917C2489.56 162.688 2487.33 156.142 2488.83 150.999C2490.49 145.252 2495.28 140.321 2499.61 136.429C2504.23 132.277 2510.14 128.971 2514.19 124.244C2515.96 122.172 2515.35 120.814 2512.74 119.743C2510.17 118.689 2507.12 119.478 2504.65 120.433C2499.49 122.431 2495.79 114.605 2501.01 112.586Z" stroke="#222222" stroke-width="4" stroke-miterlimit="10"/>
<path d="M2497.54 103.936C2502.36 102.069 2507.69 101.109 2512.65 103.118C2517.2 104.962 2521.28 109.55 2520.61 114.702C2519.96 119.812 2515.22 123.433 2511.49 126.438C2506.6 130.388 2501.24 134.071 2497.24 138.975C2495.64 140.934 2492.8 144.195 2493.8 146.942C2494.71 149.444 2497.22 148.179 2499.23 147.473C2503.6 145.932 2507.83 143.766 2511.94 141.636C2520.45 137.223 2529.69 132.578 2539.53 135.192C2550 137.975 2556.47 149.868 2546.8 157.758C2541.71 161.919 2535.29 164.617 2529.54 167.726C2523.03 171.243 2516.61 174.719 2509.9 177.862C2502.47 181.347 2495.46 185.182 2489.33 190.696C2485.63 194.024 2478.78 201.428 2486.91 204.081C2492.22 205.814 2498.46 204.146 2503.92 204.157C2508.94 204.167 2514.44 205.973 2517.84 209.822C2522.06 214.595 2520.95 220.557 2517.45 225.439C2512.99 231.672 2505.67 234.657 2499.26 238.392C2494.45 241.191 2490.82 233.333 2495.61 230.544C2500.75 227.551 2507.37 225.173 2510.7 219.958C2512.25 217.519 2512.54 216.275 2510.27 214.639C2508.65 213.467 2506.61 212.945 2504.64 212.812C2495.85 212.218 2486.13 215.665 2478.7 209.175C2466 198.086 2483.14 183.611 2492.31 177.584C2500.74 172.05 2510.24 168.638 2519.01 163.742C2524.98 160.414 2531.06 157.272 2536.99 153.885C2538.69 152.917 2542.17 151.367 2542.94 149.432C2543.68 147.605 2541.63 145.572 2540.17 144.667C2532.26 139.799 2522.12 146.105 2515.11 149.733C2508.73 153.033 2498.51 159.479 2491.18 156.267C2486.09 154.039 2483.87 147.492 2485.36 142.349C2487.03 136.602 2491.81 131.671 2496.15 127.779C2500.77 123.627 2506.68 120.321 2510.72 115.594C2512.5 113.522 2511.89 112.164 2509.27 111.093C2506.7 110.039 2503.66 110.828 2501.19 111.783C2496.03 113.781 2492.33 105.955 2497.54 103.936Z" fill="#FEFFFF"/>
<path d="M2497.54 103.936C2502.36 102.069 2507.69 101.109 2512.65 103.118C2517.2 104.962 2521.28 109.55 2520.61 114.702C2519.96 119.812 2515.22 123.433 2511.49 126.438C2506.6 130.388 2501.24 134.071 2497.24 138.975C2495.64 140.934 2492.8 144.195 2493.8 146.942C2494.71 149.444 2497.22 148.179 2499.23 147.473C2503.6 145.932 2507.83 143.766 2511.94 141.636C2520.45 137.223 2529.69 132.578 2539.53 135.192C2550 137.975 2556.47 149.868 2546.8 157.758C2541.71 161.919 2535.29 164.617 2529.54 167.726C2523.03 171.243 2516.61 174.719 2509.9 177.862C2502.47 181.347 2495.46 185.182 2489.33 190.696C2485.63 194.024 2478.78 201.428 2486.91 204.081C2492.22 205.814 2498.46 204.146 2503.92 204.157C2508.94 204.167 2514.44 205.973 2517.84 209.822C2522.06 214.595 2520.95 220.557 2517.45 225.439C2512.99 231.672 2505.67 234.657 2499.26 238.392C2494.45 241.191 2490.82 233.333 2495.61 230.544C2500.75 227.551 2507.37 225.173 2510.7 219.958C2512.25 217.519 2512.54 216.275 2510.27 214.639C2508.65 213.467 2506.61 212.945 2504.64 212.812C2495.85 212.218 2486.13 215.665 2478.7 209.175C2466 198.086 2483.14 183.611 2492.31 177.584C2500.74 172.05 2510.24 168.638 2519.01 163.742C2524.98 160.414 2531.06 157.272 2536.99 153.885C2538.69 152.917 2542.17 151.367 2542.94 149.432C2543.68 147.605 2541.63 145.572 2540.17 144.667C2532.26 139.799 2522.12 146.105 2515.11 149.733C2508.73 153.033 2498.51 159.479 2491.18 156.267C2486.09 154.039 2483.87 147.492 2485.36 142.349C2487.03 136.602 2491.81 131.671 2496.15 127.779C2500.77 123.627 2506.68 120.321 2510.72 115.594C2512.5 113.522 2511.89 112.164 2509.27 111.093C2506.7 110.039 2503.66 110.828 2501.19 111.783C2496.03 113.781 2492.33 105.955 2497.54 103.936Z" stroke="#222222" stroke-width="4" stroke-miterlimit="10"/>
<path d="M567.88 -58.4302L421.493 25.9834L567.88 110.395V-58.4302Z" fill="#222222" stroke="#222222" stroke-width="4" stroke-miterlimit="10"/>
<path d="M564.416 -74L418.029 10.4136L564.416 94.8255V-74Z" fill="#F9E105" stroke="#222222" stroke-width="4" stroke-miterlimit="10"/>
<path d="M2394.87 133.767L2367.65 122.546C2376.73 100.572 2366.22 75.3122 2344.22 66.2435C2322.21 57.1732 2296.92 67.6725 2287.84 89.6487L2260.62 78.4279C2275.9 41.4613 2318.44 23.7997 2355.45 39.0566C2392.46 54.3152 2410.14 96.8005 2394.87 133.767Z" fill="#222222" stroke="#222222" stroke-width="4" stroke-miterlimit="10"/>
<path d="M2391.4 118.197L2364.19 106.976C2373.27 85.0016 2362.75 59.7419 2340.75 50.6732C2318.75 41.6028 2293.46 52.1022 2284.38 74.0784L2257.16 62.8576C2272.44 25.891 2314.97 8.22942 2351.99 23.4863C2389 38.7449 2406.68 81.2302 2391.4 118.197Z" fill="#6BC298" stroke="#222222" stroke-width="4" stroke-miterlimit="10"/>
<path d="M511.647 145.351C498.455 129.144 478.676 142.898 465.7 151.475C458.943 155.94 450.645 162.533 442.109 162.381C437.803 162.305 438.362 159.935 439.363 156.335C440.132 153.563 441.215 150.932 442.968 148.64C449.285 140.379 463.892 129.677 460.745 117.631C458.666 109.665 450.11 109.116 443.264 109.924C433.538 111.074 425.437 114.003 417.546 119.873C412.645 123.522 417.428 131.852 422.394 128.158C428.623 123.522 434.856 120.584 442.615 119.602C446.292 119.136 453.162 117.462 450.873 123.079C446.981 132.63 436.86 138.168 432.515 147.403C429.98 152.795 427.275 160.49 430.384 166.175C433.304 171.517 439.824 172.424 445.336 171.713C461.516 169.625 473.032 155.826 487.347 149.397C491.422 147.565 496.231 146.453 500.471 148.429C503.911 150.034 506.703 153.695 506.04 157.62C504.806 164.914 495.482 167.758 489.782 170.593C484.248 173.344 489.107 181.622 494.63 178.877C501.166 175.628 508.435 172.796 512.592 166.419C516.918 159.784 516.67 151.525 511.647 145.351Z" fill="#222222"/>
<path d="M511.647 145.351C498.455 129.144 478.676 142.898 465.7 151.475C458.943 155.94 450.645 162.533 442.109 162.381C437.803 162.305 438.362 159.935 439.363 156.335C440.132 153.563 441.215 150.932 442.968 148.64C449.285 140.379 463.892 129.677 460.745 117.631C458.666 109.665 450.11 109.116 443.264 109.924C433.538 111.074 425.437 114.003 417.546 119.873C412.645 123.522 417.428 131.852 422.394 128.158C428.623 123.522 434.856 120.584 442.615 119.602C446.292 119.136 453.162 117.462 450.873 123.079C446.981 132.63 436.86 138.168 432.515 147.403C429.98 152.795 427.275 160.49 430.384 166.175C433.304 171.517 439.824 172.424 445.336 171.713C461.516 169.625 473.032 155.826 487.347 149.397C491.422 147.565 496.231 146.453 500.471 148.429C503.911 150.034 506.703 153.695 506.04 157.62C504.806 164.914 495.482 167.758 489.782 170.593C484.248 173.344 489.107 181.622 494.63 178.877C501.166 175.628 508.435 172.796 512.592 166.419C516.918 159.784 516.67 151.525 511.647 145.351Z" stroke="#222222" stroke-width="4" stroke-miterlimit="10"/>
<path d="M508.183 136.701C494.991 120.494 475.212 134.247 462.236 142.825C455.479 147.29 447.181 153.883 438.645 153.731C434.339 153.655 434.898 151.284 435.899 147.684C436.668 144.913 437.751 142.282 439.504 139.989C445.821 131.729 460.428 121.027 457.281 108.981C455.202 101.014 446.645 100.466 439.8 101.274C430.074 102.424 421.973 105.353 414.081 111.223C409.181 114.871 413.964 123.201 418.93 119.508C425.158 114.871 431.392 111.934 439.15 110.951C442.828 110.486 449.697 108.811 447.409 114.429C443.517 123.98 433.396 129.518 429.05 138.752C426.516 144.145 423.811 151.84 426.92 157.525C429.84 162.867 436.36 163.773 441.872 163.062C458.051 160.974 469.568 147.176 483.883 140.747C487.958 138.915 492.767 137.803 497.007 139.778C500.447 141.384 503.239 145.044 502.576 148.97C501.342 156.263 492.018 159.108 486.318 161.943C480.784 164.694 485.642 172.972 491.166 170.226C497.701 166.977 504.971 164.145 509.128 157.769C513.453 151.134 513.206 142.875 508.183 136.701Z" fill="#FEFFFF"/>
<path d="M508.183 136.701C494.991 120.494 475.212 134.247 462.236 142.825C455.479 147.29 447.181 153.883 438.645 153.731C434.339 153.655 434.898 151.284 435.899 147.684C436.668 144.913 437.751 142.282 439.504 139.989C445.821 131.729 460.428 121.027 457.281 108.981C455.202 101.014 446.645 100.466 439.8 101.274C430.074 102.424 421.973 105.353 414.081 111.223C409.181 114.871 413.964 123.201 418.93 119.508C425.158 114.871 431.392 111.934 439.15 110.951C442.828 110.486 449.697 108.811 447.409 114.429C443.517 123.98 433.396 129.518 429.05 138.752C426.516 144.145 423.811 151.84 426.92 157.525C429.84 162.867 436.36 163.773 441.872 163.062C458.051 160.974 469.568 147.176 483.883 140.747C487.958 138.915 492.767 137.803 497.007 139.778C500.447 141.384 503.239 145.044 502.576 148.97C501.342 156.263 492.018 159.108 486.318 161.943C480.784 164.694 485.642 172.972 491.166 170.226C497.701 166.977 504.971 164.145 509.128 157.769C513.453 151.134 513.206 142.875 508.183 136.701Z" stroke="#222222" stroke-width="4" stroke-miterlimit="10"/>
<path d="M2186.29 361.956C2185.35 358.618 2186.94 352.813 2191.23 353.112C2194.69 353.352 2198.16 355.646 2201.64 356.238C2209.3 357.541 2214.54 352.948 2215.68 345.489C2216.24 341.855 2215.04 336.042 2217.03 332.826C2219.89 328.195 2226.8 330.636 2230.19 333.037C2234.21 335.886 2237.51 339.78 2240.93 343.287C2244.17 346.612 2246.58 350.624 2250 353.759C2254.1 357.522 2259.34 350.626 2255.26 346.887C2253.06 344.87 2251.64 342.059 2249.6 339.877C2247.33 337.455 2244.97 335.116 2242.65 332.739C2238.93 328.907 2234.93 325.005 2229.87 322.989C2225.13 321.098 2219.66 321.18 2215.04 323.43C2209.83 325.966 2208.03 330.9 2207.61 336.362C2207.35 339.713 2208.69 348.09 2203.7 347.799C2199.4 347.55 2195.64 344.709 2191.31 344.436C2180.3 343.739 2175.81 356.454 2178.28 365.239C2179.78 370.6 2187.78 367.256 2186.29 361.956Z" fill="#222222"/>
<path d="M2186.29 361.956C2185.35 358.618 2186.94 352.813 2191.23 353.112C2194.69 353.352 2198.16 355.646 2201.64 356.238C2209.3 357.541 2214.54 352.948 2215.68 345.489C2216.24 341.855 2215.04 336.042 2217.03 332.826C2219.89 328.195 2226.8 330.636 2230.19 333.037C2234.21 335.886 2237.51 339.78 2240.93 343.287C2244.17 346.612 2246.58 350.624 2250 353.759C2254.1 357.522 2259.34 350.626 2255.26 346.887C2253.06 344.87 2251.64 342.059 2249.6 339.877C2247.33 337.455 2244.97 335.116 2242.65 332.739C2238.93 328.907 2234.93 325.005 2229.87 322.989C2225.13 321.098 2219.66 321.18 2215.04 323.43C2209.83 325.966 2208.03 330.9 2207.61 336.362C2207.35 339.713 2208.69 348.09 2203.7 347.799C2199.4 347.55 2195.64 344.709 2191.31 344.436C2180.3 343.739 2175.81 356.454 2178.28 365.239C2179.78 370.6 2187.78 367.256 2186.29 361.956Z" stroke="#222222" stroke-width="4" stroke-miterlimit="10"/>
<path d="M2182.83 353.305C2181.89 349.968 2183.48 344.162 2187.77 344.461C2191.22 344.702 2194.7 346.996 2198.17 347.588C2205.84 348.89 2211.07 344.297 2212.22 336.839C2212.78 333.204 2211.57 327.392 2213.56 324.175C2216.42 319.544 2223.33 321.985 2226.73 324.387C2230.75 327.236 2234.04 331.13 2237.46 334.637C2240.71 337.962 2243.12 341.974 2246.53 345.109C2250.64 348.871 2255.87 341.975 2251.79 338.237C2249.59 336.22 2248.17 333.409 2246.13 331.227C2243.87 328.805 2241.5 326.466 2239.19 324.089C2235.46 320.257 2231.47 316.354 2226.41 314.339C2221.66 312.448 2216.19 312.529 2211.57 314.78C2206.36 317.316 2204.57 322.25 2204.15 327.712C2203.89 331.063 2205.22 339.439 2200.24 339.149C2195.93 338.9 2192.18 336.059 2187.84 335.786C2176.83 335.088 2172.35 347.804 2174.81 356.589C2176.32 361.95 2184.31 358.606 2182.83 353.305Z" fill="#EE72A8"/>
<path d="M2182.83 353.305C2181.89 349.968 2183.48 344.162 2187.77 344.461C2191.22 344.702 2194.7 346.996 2198.17 347.588C2205.84 348.89 2211.07 344.297 2212.22 336.839C2212.78 333.204 2211.57 327.392 2213.56 324.175C2216.42 319.544 2223.33 321.985 2226.73 324.387C2230.75 327.236 2234.04 331.13 2237.46 334.637C2240.71 337.962 2243.12 341.974 2246.53 345.109C2250.64 348.871 2255.87 341.975 2251.79 338.237C2249.59 336.22 2248.17 333.409 2246.13 331.227C2243.87 328.805 2241.5 326.466 2239.19 324.089C2235.46 320.257 2231.47 316.354 2226.41 314.339C2221.66 312.448 2216.19 312.529 2211.57 314.78C2206.36 317.316 2204.57 322.25 2204.15 327.712C2203.89 331.063 2205.22 339.439 2200.24 339.149C2195.93 338.9 2192.18 336.059 2187.84 335.786C2176.83 335.088 2172.35 347.804 2174.81 356.589C2176.32 361.95 2184.31 358.606 2182.83 353.305Z" stroke="#222222" stroke-width="4" stroke-miterlimit="10"/>
<path d="M2142.92 89.0049L2117.24 56.5207L2078.28 70.6236L2052.6 38.1394L2020.1 49.9017L2013.61 32.0117L2059.03 15.5698L2084.72 48.054L2123.68 33.9493L2149.35 66.4336L2188.31 52.3289L2218.25 90.202L2203.29 101.994L2181.88 74.9002L2142.92 89.0049Z" fill="#222222" stroke="#222222" stroke-width="4" stroke-miterlimit="10"/>
<path d="M2139.45 73.435L2113.78 40.9508L2074.82 55.0538L2049.13 22.5696L2016.63 34.3318L2010.14 16.4419L2055.57 0L2081.25 32.4842L2120.21 18.3795L2145.89 50.8637L2184.85 36.759L2214.78 74.6322L2199.83 86.4239L2178.41 59.3304L2139.45 73.435Z" fill="#F9E105" stroke="#222222" stroke-width="4" stroke-miterlimit="10"/>
<path d="M2396.11 374.705L2377.51 337.724L2406.79 308.436L2388.19 271.448L2412.61 247.012L2399.13 233.57L2364.99 267.72L2383.59 304.707L2354.31 333.996L2372.91 370.977L2343.63 400.262L2365.32 443.383L2382.35 434.84L2366.83 403.992L2396.11 374.705Z" fill="#222222" stroke="#222222" stroke-width="4" stroke-miterlimit="10"/>
<path d="M2392.65 359.135L2374.04 322.155L2403.32 292.866L2384.72 255.878L2409.15 231.442L2395.66 218L2361.52 252.15L2380.12 289.138L2350.84 318.427L2369.45 355.407L2340.17 384.692L2361.86 427.813L2378.88 419.27L2363.37 388.422L2392.65 359.135Z" fill="#EE72A8" stroke="#222222" stroke-width="4" stroke-miterlimit="10"/>
<path d="M498.926 288.589C463.826 295.354 440.782 329.378 447.555 364.433C454.327 399.489 488.393 422.503 523.493 415.739C558.589 408.975 581.635 374.953 574.862 339.896C568.09 304.843 534.024 281.825 498.926 288.589ZM492.507 255.366C545.946 245.068 597.813 280.111 608.126 333.485C618.437 386.86 583.35 438.663 529.91 448.962C476.469 459.263 424.604 424.218 414.291 370.844C403.98 317.468 439.066 265.665 492.507 255.366Z" fill="#222222"/>
<path d="M498.926 288.589C463.826 295.354 440.782 329.378 447.555 364.433C454.327 399.489 488.393 422.503 523.493 415.739C558.589 408.975 581.635 374.953 574.862 339.896C568.09 304.843 534.024 281.825 498.926 288.589ZM492.507 255.366C545.946 245.068 597.813 280.111 608.126 333.485C618.437 386.86 583.35 438.663 529.91 448.962C476.469 459.263 424.604 424.218 414.291 370.844C403.98 317.468 439.066 265.665 492.507 255.366Z" stroke="#222222" stroke-width="4" stroke-miterlimit="10"/>
<path d="M495.462 273.019C460.362 279.783 437.318 313.807 444.091 348.862C450.863 383.919 484.929 406.933 520.029 400.169C555.125 393.405 578.171 359.382 571.398 324.326C564.626 289.272 530.56 266.255 495.462 273.019ZM489.043 239.796C542.482 229.497 594.349 264.54 604.662 317.914C614.973 371.29 579.886 423.093 526.446 433.392C473.005 443.692 421.14 408.648 410.827 355.274C400.516 301.898 435.601 250.095 489.043 239.796Z" fill="#EE72A8"/>
<path d="M495.462 273.019C460.362 279.783 437.318 313.807 444.091 348.862C450.863 383.919 484.929 406.933 520.029 400.169C555.125 393.405 578.171 359.382 571.398 324.326C564.626 289.272 530.56 266.255 495.462 273.019ZM489.043 239.796C542.482 229.497 594.349 264.54 604.662 317.914C614.973 371.29 579.886 423.093 526.446 433.392C473.005 443.692 421.14 408.648 410.827 355.274C400.516 301.898 435.601 250.095 489.043 239.796Z" stroke="#222222" stroke-width="4" stroke-miterlimit="10"/>
<path d="M2105.61 170.611L2150.56 248.281L2195.43 170.57L2105.61 170.611Z" fill="#222222" stroke="#222222" stroke-width="4" stroke-miterlimit="10"/>
<path d="M2102.15 155.042L2147.1 232.712L2191.97 155L2102.15 155.042Z" fill="#EE72A8" stroke="#222222" stroke-width="4" stroke-miterlimit="10"/>
<path d="M610.712 138.811L680.044 214.686L712.768 184.446L643.437 108.57L610.712 138.811Z" fill="#222222" stroke="#222222" stroke-width="4" stroke-miterlimit="10"/>
<path d="M607.248 123.241L676.58 199.116L709.304 168.876L639.972 93L607.248 123.241Z" fill="#7DC8D1" stroke="#222222" stroke-width="4" stroke-miterlimit="10"/>
<path d="M1966.81 191.218L2003.61 210.243L1997.13 251.123L2033.93 270.155L2028.53 304.258L2047.34 307.234L2054.9 259.569L2018.1 240.537L2024.58 199.657L1987.78 180.632L1994.27 139.754L1951.36 117.57L1942.6 134.471L1973.3 150.34L1966.81 191.218Z" fill="#222222" stroke="#222222" stroke-width="4" stroke-miterlimit="10"/>
<path d="M1963.35 175.648L2000.15 194.673L1993.66 235.553L2030.47 254.584L2025.06 288.688L2043.88 291.663L2051.44 243.998L2014.63 224.967L2021.12 184.087L1984.32 165.062L1990.81 124.184L1947.9 102L1939.14 118.9L1969.83 134.77L1963.35 175.648Z" fill="#7DC8D1" stroke="#222222" stroke-width="4" stroke-miterlimit="10"/>
</g>
<defs>
<clipPath id="clip0_302_3485">
<rect width="2576" height="630" fill="white"/>
</clipPath>
</defs>
</svg>
