<svg width="2564" height="746" viewBox="0 0 2564 746" fill="none" xmlns="http://www.w3.org/2000/svg">
<path d="M1211.15 700.781C1199.35 703.392 1191.28 714.446 1193.12 725.464C1194.95 736.484 1206.01 743.299 1217.8 740.688C1229.59 738.075 1237.67 727.021 1235.83 716.001C1233.99 704.983 1222.94 698.169 1211.15 700.781Z" fill="#222222"/>
<path d="M1217.8 740.687C1206 743.3 1194.95 736.485 1193.12 725.465C1191.28 714.445 1199.35 703.393 1211.15 700.78C1222.94 698.167 1233.99 704.982 1235.83 716.002C1237.67 727.022 1229.6 738.074 1217.8 740.687Z" stroke="#222222" stroke-width="4" stroke-miterlimit="10"/>
<path d="M1207.36 683.733C1195.56 686.345 1187.49 697.399 1189.33 708.416C1191.16 719.436 1202.22 726.251 1214.01 723.64C1225.81 721.027 1233.88 709.973 1232.04 698.953C1230.2 687.936 1219.15 681.121 1207.36 683.733Z" fill="#EE72A8"/>
<path d="M1214.01 723.638C1202.22 726.251 1191.16 719.436 1189.33 708.416C1187.49 697.396 1195.56 686.345 1207.36 683.731C1219.15 681.118 1230.2 687.933 1232.04 698.953C1233.88 709.973 1225.81 721.025 1214.01 723.638Z" stroke="#222222" stroke-width="4" stroke-miterlimit="10"/>
<path d="M1146.14 547.665C1125.61 551.625 1112.13 571.547 1116.1 592.07C1120.06 612.596 1139.98 626.074 1160.5 622.113C1181.03 618.152 1194.51 598.231 1190.54 577.705C1186.58 557.18 1166.66 543.704 1146.14 547.665ZM1142.38 528.213C1173.63 522.183 1203.96 542.7 1209.99 573.952C1216.03 605.203 1195.51 635.536 1164.26 641.565C1133 647.595 1102.67 627.078 1096.64 595.825C1090.61 564.575 1111.13 534.243 1142.38 528.213Z" fill="#222222"/>
<path d="M1146.14 547.665C1125.61 551.625 1112.13 571.547 1116.1 592.07C1120.06 612.596 1139.98 626.074 1160.5 622.113C1181.03 618.152 1194.51 598.231 1190.54 577.705C1186.58 557.18 1166.66 543.704 1146.14 547.665ZM1142.38 528.213C1173.63 522.183 1203.96 542.7 1209.99 573.952C1216.03 605.203 1195.51 635.536 1164.26 641.565C1133 647.595 1102.67 627.078 1096.64 595.825C1090.61 564.575 1111.13 534.243 1142.38 528.213Z" stroke="#222222" stroke-width="4" stroke-miterlimit="10"/>
<path d="M1142.54 531.504C1122.02 535.463 1108.54 555.386 1112.5 575.909C1116.46 596.435 1136.38 609.913 1156.91 605.952C1177.44 601.991 1190.91 582.07 1186.95 561.544C1182.99 541.019 1163.07 527.543 1142.54 531.504ZM1138.79 512.052C1170.04 506.022 1200.37 526.539 1206.4 557.791C1212.43 589.042 1191.92 619.375 1160.66 625.404C1129.41 631.434 1099.08 610.917 1093.05 579.664C1087.02 548.414 1107.54 518.081 1138.79 512.052Z" fill="#F9E105"/>
<path d="M1142.54 531.504C1122.02 535.463 1108.54 555.386 1112.5 575.909C1116.46 596.435 1136.38 609.913 1156.91 605.952C1177.44 601.991 1190.91 582.07 1186.95 561.544C1182.99 541.019 1163.07 527.543 1142.54 531.504ZM1138.79 512.052C1170.04 506.022 1200.37 526.539 1206.4 557.791C1212.43 589.042 1191.92 619.375 1160.66 625.404C1129.41 631.434 1099.08 610.917 1093.05 579.664C1087.02 548.414 1107.54 518.081 1138.79 512.052Z" stroke="#222222" stroke-width="4" stroke-miterlimit="10"/>
<path d="M1528.24 437.258L1571.85 449.561L1597.28 412.043L1640.9 424.346L1662.11 393.048L1679.35 404.739L1649.71 448.481L1606.09 436.18L1580.67 473.697L1537.06 461.394L1511.64 498.911L1460.79 484.568L1466.44 464.514L1502.82 474.775L1528.24 437.258Z" fill="#222222" stroke="#222222" stroke-width="4" stroke-miterlimit="10"/>
<path d="M1524.45 420.21L1568.07 432.513L1593.49 394.995L1637.11 407.299L1658.32 376L1675.57 387.691L1645.92 431.433L1602.3 419.132L1576.88 456.649L1533.27 444.346L1507.85 481.863L1457 467.52L1462.66 447.466L1499.04 457.727L1524.45 420.21Z" fill="#EE72A8" stroke="#222222" stroke-width="4" stroke-miterlimit="10"/>
<path d="M1889.6 184.503L1796.79 152.354L1871.04 88.0479L1889.6 184.503Z" fill="#222222" stroke="#222222" stroke-width="4" stroke-miterlimit="10"/>
<path d="M1885.82 167.455L1793 135.306L1867.25 71L1885.82 167.455Z" fill="#EE72A8" stroke="#222222" stroke-width="4" stroke-miterlimit="10"/>
<path d="M1824.79 594.333L1726.79 533.3L1750.46 494.228L1848.46 555.266L1824.79 594.333Z" fill="#222222" stroke="#222222" stroke-width="4" stroke-miterlimit="10"/>
<path d="M1821 577.286L1723 516.252L1746.67 477.18L1844.67 538.218L1821 577.286Z" fill="#7DC8D1" stroke="#222222" stroke-width="4" stroke-miterlimit="10"/>
<path d="M1423.6 624.758L1393.83 612.472C1403.76 588.411 1392.27 560.754 1368.21 550.822C1344.14 540.891 1316.49 552.387 1306.56 576.449L1276.79 564.163C1293.49 523.689 1340.02 504.351 1380.49 521.056C1420.97 537.761 1440.3 584.282 1423.6 624.758Z" fill="#222222" stroke="#222222" stroke-width="4" stroke-miterlimit="10"/>
<path d="M1419.81 607.709L1390.04 595.423C1399.97 571.363 1388.48 543.705 1364.42 533.773C1340.35 523.842 1312.7 535.338 1302.77 559.4L1273 547.114C1289.71 506.64 1336.23 487.302 1376.7 504.007C1417.18 520.712 1436.51 567.233 1419.81 607.709Z" fill="#7DC8D1" stroke="#222222" stroke-width="4" stroke-miterlimit="10"/>
<path d="M816.598 204.757L786.832 192.471C796.761 168.41 785.265 140.753 761.205 130.823C737.142 120.891 709.486 132.388 699.555 156.45L669.789 144.164C686.494 103.688 733.015 84.3497 773.489 101.055C813.965 117.762 833.303 164.281 816.598 204.757Z" fill="#222222" stroke="#222222" stroke-width="4" stroke-miterlimit="10"/>
<path d="M812.809 187.709L783.043 175.423C792.973 151.363 781.477 123.705 757.416 113.775C733.354 103.844 705.698 115.34 695.766 139.402L666 127.116C682.705 86.6401 729.226 67.3018 769.7 84.0071C810.176 100.714 829.515 147.233 812.809 187.709Z" fill="#6BC298" stroke="#222222" stroke-width="4" stroke-miterlimit="10"/>
<path d="M1687.6 119.289L1694.87 150.66C1669.51 156.537 1653.66 181.951 1659.54 207.309C1665.42 232.667 1690.83 248.516 1716.19 242.638L1723.46 274.009C1680.8 283.897 1638.05 257.237 1628.17 214.581C1618.28 171.922 1644.94 129.175 1687.6 119.289Z" fill="#222222" stroke="#222222" stroke-width="4" stroke-miterlimit="10"/>
<path d="M1683.81 102.241L1691.08 133.611C1665.72 139.489 1649.87 164.902 1655.75 190.26C1661.63 215.619 1687.04 231.468 1712.4 225.59L1719.67 256.96C1677.01 266.848 1634.27 240.189 1624.38 197.532C1614.49 154.874 1641.15 112.127 1683.81 102.241Z" fill="#F9E105" stroke="#222222" stroke-width="4" stroke-miterlimit="10"/>
<path d="M1505.6 261.503L1412.79 229.354L1487.04 165.048L1505.6 261.503Z" fill="#222222" stroke="#222222" stroke-width="4" stroke-miterlimit="10"/>
<path d="M1501.82 244.455L1409 212.306L1483.25 148L1501.82 244.455Z" fill="#EE72A8" stroke="#222222" stroke-width="4" stroke-miterlimit="10"/>
<path d="M1591.59 310.406C1592.59 304.841 1592.52 298.92 1589.34 294.019C1586.41 289.515 1580.63 286.084 1575.23 287.865C1569.87 289.63 1566.96 295.47 1564.5 300.094C1561.27 306.165 1558.42 312.685 1553.98 318C1552.2 320.122 1549.29 323.856 1546.13 323.348C1543.25 322.886 1544.09 319.923 1544.43 317.627C1545.18 312.609 1546.63 307.624 1548.07 302.773C1551.05 292.712 1554.13 281.822 1549.28 271.806C1544.12 261.141 1529.99 256.663 1523.51 268.674C1520.1 275.009 1518.53 282.466 1516.38 289.286C1513.94 297.007 1511.54 304.62 1509.55 312.475C1507.34 321.175 1504.67 329.498 1500.01 337.219C1497.2 341.881 1490.66 350.775 1486.12 342.599C1483.16 337.261 1483.66 330.209 1482.52 324.348C1481.47 318.963 1478.38 313.432 1473.54 310.577C1467.53 307.037 1461.36 309.465 1456.83 314.233C1451.06 320.315 1449.37 328.8 1446.68 336.458C1444.66 342.199 1453.86 344.469 1455.87 338.748C1458.02 332.613 1459.21 325.007 1464.12 320.351C1466.42 318.175 1467.7 317.606 1469.93 319.701C1471.53 321.2 1472.51 323.285 1473.06 325.367C1475.52 334.691 1473.83 345.838 1482.35 352.474C1496.9 363.809 1508.91 342.406 1513.49 331.304C1517.7 321.107 1519.39 310.194 1522.84 299.757C1525.18 292.659 1527.3 285.48 1529.71 278.407C1530.4 276.388 1531.35 272.33 1533.27 271.093C1535.08 269.927 1537.69 271.698 1538.96 273.088C1545.84 280.565 1541.16 292.767 1538.71 301.045C1536.48 308.573 1531.67 320.889 1536.64 328.095C1540.09 333.094 1547.59 334.124 1552.81 331.455C1558.64 328.474 1562.96 322.308 1566.24 316.847C1569.75 311.024 1572.08 303.996 1576.32 298.67C1578.18 296.332 1579.77 296.711 1581.46 299.293C1583.13 301.835 1582.91 305.267 1582.39 308.116C1581.31 314.076 1590.5 316.426 1591.59 310.406Z" fill="#222222"/>
<path d="M1591.59 310.406C1592.59 304.841 1592.52 298.92 1589.34 294.019C1586.41 289.515 1580.63 286.084 1575.23 287.865C1569.87 289.63 1566.96 295.47 1564.5 300.094C1561.27 306.165 1558.42 312.685 1553.98 318C1552.2 320.122 1549.29 323.856 1546.13 323.348C1543.25 322.886 1544.09 319.923 1544.43 317.627C1545.18 312.609 1546.63 307.624 1548.07 302.773C1551.05 292.712 1554.13 281.822 1549.28 271.806C1544.12 261.141 1529.99 256.663 1523.51 268.674C1520.1 275.009 1518.53 282.466 1516.38 289.286C1513.94 297.007 1511.54 304.62 1509.55 312.475C1507.34 321.175 1504.67 329.498 1500.01 337.219C1497.2 341.881 1490.66 350.775 1486.12 342.599C1483.16 337.261 1483.66 330.209 1482.52 324.348C1481.47 318.963 1478.38 313.432 1473.54 310.577C1467.53 307.037 1461.36 309.465 1456.83 314.233C1451.06 320.315 1449.37 328.8 1446.68 336.458C1444.66 342.199 1453.86 344.469 1455.87 338.748C1458.02 332.613 1459.21 325.007 1464.12 320.351C1466.42 318.175 1467.7 317.606 1469.93 319.701C1471.53 321.2 1472.51 323.285 1473.06 325.367C1475.52 334.691 1473.83 345.838 1482.35 352.474C1496.9 363.809 1508.91 342.406 1513.49 331.304C1517.7 321.107 1519.39 310.194 1522.84 299.757C1525.18 292.659 1527.3 285.48 1529.71 278.407C1530.4 276.388 1531.35 272.33 1533.27 271.093C1535.08 269.927 1537.69 271.698 1538.96 273.088C1545.84 280.565 1541.16 292.767 1538.71 301.045C1536.48 308.573 1531.67 320.889 1536.64 328.095C1540.09 333.094 1547.59 334.124 1552.81 331.455C1558.64 328.474 1562.96 322.308 1566.24 316.847C1569.75 311.024 1572.08 303.996 1576.32 298.67C1578.18 296.332 1579.77 296.711 1581.46 299.293C1583.13 301.835 1582.91 305.267 1582.39 308.116C1581.31 314.076 1590.5 316.426 1591.59 310.406Z" stroke="#222222" stroke-width="4" stroke-miterlimit="10"/>
<path d="M1587.8 300.936C1588.8 295.37 1588.73 289.449 1585.55 284.547C1582.62 280.044 1576.85 276.614 1571.44 278.394C1566.09 280.16 1563.18 286.002 1560.71 290.623C1557.48 296.695 1554.63 303.215 1550.19 308.53C1548.42 310.651 1545.5 314.385 1542.34 313.877C1539.46 313.415 1540.3 310.452 1540.64 308.157C1541.39 303.139 1542.85 298.153 1544.28 293.302C1547.27 283.244 1550.34 272.352 1545.49 262.335C1540.33 251.67 1526.21 247.192 1519.73 259.204C1516.31 265.538 1514.74 272.996 1512.59 279.813C1510.16 287.534 1507.75 295.149 1505.76 303.004C1503.55 311.704 1500.88 320.028 1496.22 327.749C1493.41 332.41 1486.87 341.304 1482.33 333.128C1479.37 327.79 1479.87 320.738 1478.73 314.877C1477.68 309.492 1474.6 303.961 1469.76 301.106C1463.75 297.566 1457.57 299.994 1453.04 304.762C1447.27 310.845 1445.58 319.329 1442.89 326.987C1440.88 332.729 1450.07 334.998 1452.08 329.277C1454.23 323.142 1455.42 315.537 1460.34 310.881C1462.64 308.704 1463.91 308.136 1466.14 310.231C1467.74 311.729 1468.72 313.815 1469.27 315.896C1471.74 325.22 1470.04 336.368 1478.56 343.003C1493.12 354.338 1505.12 332.935 1509.7 321.833C1513.91 311.636 1515.61 300.724 1519.05 290.286C1521.39 283.189 1523.51 276.009 1525.92 268.936C1526.61 266.917 1527.56 262.86 1529.48 261.623C1531.29 260.456 1533.9 262.227 1535.17 263.617C1542.05 271.094 1537.37 283.298 1534.92 291.574C1532.7 299.102 1527.88 311.418 1532.85 318.624C1536.3 323.623 1543.8 324.654 1549.02 321.985C1554.86 319.003 1559.17 312.837 1562.45 307.376C1565.96 301.553 1568.29 294.526 1572.53 289.199C1574.39 286.862 1575.98 287.24 1577.67 289.822C1579.34 292.364 1579.12 295.797 1578.6 298.646C1577.53 304.605 1586.71 306.956 1587.8 300.936Z" fill="#FEFFFF"/>
<path d="M1587.8 300.936C1588.8 295.37 1588.73 289.449 1585.55 284.547C1582.62 280.044 1576.85 276.614 1571.44 278.394C1566.09 280.16 1563.18 286.002 1560.71 290.623C1557.48 296.695 1554.63 303.215 1550.19 308.53C1548.42 310.651 1545.5 314.385 1542.34 313.877C1539.46 313.415 1540.3 310.452 1540.64 308.157C1541.39 303.139 1542.85 298.153 1544.28 293.302C1547.27 283.244 1550.34 272.352 1545.49 262.335C1540.33 251.67 1526.21 247.192 1519.73 259.204C1516.31 265.538 1514.74 272.996 1512.59 279.813C1510.16 287.534 1507.75 295.149 1505.76 303.004C1503.55 311.704 1500.88 320.028 1496.22 327.749C1493.41 332.41 1486.87 341.304 1482.33 333.128C1479.37 327.79 1479.87 320.738 1478.73 314.877C1477.68 309.492 1474.6 303.961 1469.76 301.106C1463.75 297.566 1457.57 299.994 1453.04 304.762C1447.27 310.845 1445.58 319.329 1442.89 326.987C1440.88 332.729 1450.07 334.998 1452.08 329.277C1454.23 323.142 1455.42 315.537 1460.34 310.881C1462.64 308.704 1463.91 308.136 1466.14 310.231C1467.74 311.729 1468.72 313.815 1469.27 315.896C1471.74 325.22 1470.04 336.368 1478.56 343.003C1493.12 354.338 1505.12 332.935 1509.7 321.833C1513.91 311.636 1515.61 300.724 1519.05 290.286C1521.39 283.189 1523.51 276.009 1525.92 268.936C1526.61 266.917 1527.56 262.86 1529.48 261.623C1531.29 260.456 1533.9 262.227 1535.17 263.617C1542.05 271.094 1537.37 283.298 1534.92 291.574C1532.7 299.102 1527.88 311.418 1532.85 318.624C1536.3 323.623 1543.8 324.654 1549.02 321.985C1554.86 319.003 1559.17 312.837 1562.45 307.376C1565.96 301.553 1568.29 294.526 1572.53 289.199C1574.39 286.862 1575.98 287.24 1577.67 289.822C1579.34 292.364 1579.12 295.797 1578.6 298.646C1577.53 304.605 1586.71 306.956 1587.8 300.936Z" stroke="#222222" stroke-width="4" stroke-miterlimit="10"/>
<path d="M1244.79 146.773L1269.52 126.149C1286.19 146.141 1316.02 148.838 1336.01 132.167C1356 115.494 1358.7 85.6651 1342.03 65.6752L1366.76 45.0488C1394.8 78.6773 1390.26 128.85 1356.64 156.896C1323.01 184.94 1272.83 180.4 1244.79 146.773Z" fill="#222222" stroke="#222222" stroke-width="4" stroke-miterlimit="10"/>
<path d="M1241 129.724L1265.73 109.1C1282.4 129.092 1312.23 131.789 1332.22 115.118C1352.21 98.4449 1354.91 68.6163 1338.24 48.6264L1362.97 28C1391.01 61.6284 1386.47 111.801 1352.85 139.847C1319.22 167.892 1269.05 163.351 1241 129.724Z" fill="#7DC8D1" stroke="#222222" stroke-width="4" stroke-miterlimit="10"/>
<path d="M1840.68 354.947C1818.63 354.947 1800.69 372.888 1800.69 394.939C1800.69 416.991 1818.63 434.932 1840.68 434.932C1862.73 434.932 1880.67 416.991 1880.67 394.939C1880.67 372.888 1862.73 354.947 1840.68 354.947ZM1840.68 455.831C1807.11 455.831 1779.79 428.514 1779.79 394.939C1779.79 361.363 1807.11 334.048 1840.68 334.048C1874.26 334.048 1901.57 361.363 1901.57 394.939C1901.57 428.514 1874.26 455.831 1840.68 455.831Z" fill="#222222"/>
<path d="M1840.68 354.947C1818.63 354.947 1800.69 372.888 1800.69 394.939C1800.69 416.991 1818.63 434.932 1840.68 434.932C1862.73 434.932 1880.67 416.991 1880.67 394.939C1880.67 372.888 1862.73 354.947 1840.68 354.947ZM1840.68 455.831C1807.11 455.831 1779.79 428.514 1779.79 394.939C1779.79 361.363 1807.11 334.048 1840.68 334.048C1874.26 334.048 1901.57 361.363 1901.57 394.939C1901.57 428.514 1874.26 455.831 1840.68 455.831Z" stroke="#222222" stroke-width="4" stroke-miterlimit="10"/>
<path d="M1836.89 337.899C1814.84 337.899 1796.9 355.839 1796.9 377.89C1796.9 399.943 1814.84 417.883 1836.89 417.883C1858.95 417.883 1876.88 399.943 1876.88 377.89C1876.88 355.839 1858.95 337.899 1836.89 337.899ZM1836.89 438.783C1803.32 438.783 1776 411.466 1776 377.89C1776 344.315 1803.32 317 1836.89 317C1870.47 317 1897.78 344.315 1897.78 377.89C1897.78 411.466 1870.47 438.783 1836.89 438.783Z" fill="#7DC8D1"/>
<path d="M1836.89 337.899C1814.84 337.899 1796.9 355.839 1796.9 377.89C1796.9 399.943 1814.84 417.883 1836.89 417.883C1858.95 417.883 1876.88 399.943 1876.88 377.89C1876.88 355.839 1858.95 337.899 1836.89 337.899ZM1836.89 438.783C1803.32 438.783 1776 411.466 1776 377.89C1776 344.315 1803.32 317 1836.89 317C1870.47 317 1897.78 344.315 1897.78 377.89C1897.78 411.466 1870.47 438.783 1836.89 438.783Z" stroke="#222222" stroke-width="4" stroke-miterlimit="10"/>
<path d="M747.809 513.424C736.4 505.633 729.847 491.956 729.287 478.284C728.709 464.211 733.46 446.311 742.992 435.703C746.439 431.863 753.7 424.864 758.788 429.677C764.535 435.116 758.867 443.848 756.749 449.705C753.346 459.125 753.857 478.248 768.494 476.516C783.58 474.73 784.733 456.382 788.317 445.123C790.365 438.69 780.418 435.313 778.363 441.768C776.465 447.729 775.862 454.155 773.315 459.908C772.379 462.022 770.871 465.056 768.439 465.778C765.194 466.738 765.126 462.353 765.154 459.856C765.245 452.221 770.733 445.506 771.65 437.915C772.46 431.212 769.7 424.419 764.135 420.454C751.177 411.226 736.102 425.383 729.734 436.122C722.189 448.843 717.821 465.85 718.971 480.646C720.238 496.972 728.262 512.799 741.925 522.13C747.517 525.946 753.391 517.237 747.809 513.424Z" fill="#222222"/>
<path d="M747.809 513.424C736.4 505.633 729.847 491.956 729.287 478.284C728.709 464.211 733.46 446.311 742.992 435.703C746.439 431.863 753.7 424.864 758.788 429.677C764.535 435.116 758.867 443.848 756.749 449.705C753.346 459.125 753.857 478.248 768.494 476.516C783.58 474.73 784.733 456.382 788.317 445.123C790.365 438.69 780.418 435.313 778.363 441.768C776.465 447.729 775.862 454.155 773.315 459.908C772.379 462.022 770.871 465.056 768.439 465.778C765.194 466.738 765.126 462.353 765.154 459.856C765.245 452.221 770.733 445.506 771.65 437.915C772.46 431.212 769.7 424.419 764.135 420.454C751.177 411.226 736.102 425.383 729.734 436.122C722.189 448.843 717.821 465.85 718.971 480.646C720.238 496.972 728.262 512.799 741.925 522.13C747.517 525.946 753.391 517.237 747.809 513.424Z" stroke="#222222" stroke-width="4" stroke-miterlimit="10"/>
<path d="M744.02 503.952C732.611 496.161 726.059 482.485 725.498 468.812C724.921 454.74 729.671 436.839 739.203 426.232C742.651 422.392 749.911 415.393 754.999 420.206C760.746 425.645 755.079 434.377 752.961 440.234C749.557 449.654 750.069 468.776 764.705 467.045C779.791 465.259 780.945 446.911 784.529 435.652C786.576 429.219 776.63 425.842 774.574 432.297C772.676 438.258 772.074 444.684 769.526 450.436C768.591 452.55 767.083 455.585 764.651 456.307C761.406 457.267 761.337 452.882 761.366 450.385C761.457 442.75 766.944 436.034 767.861 428.444C768.672 421.74 765.912 414.948 760.347 410.983C747.388 401.754 732.314 415.912 725.946 426.65C718.401 439.372 714.033 456.379 715.182 471.174C716.45 487.501 724.474 503.327 738.137 512.658C743.729 516.475 749.603 507.766 744.02 503.952Z" fill="#6BC298"/>
<path d="M744.02 503.952C732.611 496.161 726.059 482.485 725.498 468.812C724.921 454.74 729.671 436.839 739.203 426.232C742.651 422.392 749.911 415.393 754.999 420.206C760.746 425.645 755.079 434.377 752.961 440.234C749.557 449.654 750.069 468.776 764.705 467.045C779.791 465.259 780.945 446.911 784.529 435.652C786.576 429.219 776.63 425.842 774.574 432.297C772.676 438.258 772.074 444.684 769.526 450.436C768.591 452.55 767.083 455.585 764.651 456.307C761.406 457.267 761.337 452.882 761.366 450.385C761.457 442.75 766.944 436.034 767.861 428.444C768.672 421.74 765.912 414.948 760.347 410.983C747.388 401.754 732.314 415.912 725.946 426.65C718.401 439.372 714.033 456.379 715.182 471.174C716.45 487.501 724.474 503.327 738.137 512.658C743.729 516.475 749.603 507.766 744.02 503.952Z" stroke="#222222" stroke-width="4" stroke-miterlimit="10"/>
<path d="M1148.27 349.689L1188.51 370.519L1181.42 415.28L1221.67 436.119L1215.75 473.46L1236.33 476.718L1244.6 424.528L1204.35 403.69L1211.44 358.929L1171.2 338.098L1178.29 293.339L1131.37 269.049L1121.79 287.554L1155.36 304.93L1148.27 349.689Z" fill="#222222" stroke="#222222" stroke-width="4" stroke-miterlimit="10"/>
<path d="M1144.48 332.64L1184.72 353.471L1177.63 398.232L1217.88 419.07L1211.97 456.411L1232.54 459.669L1240.81 407.479L1200.56 386.641L1207.65 341.88L1167.41 321.049L1174.5 276.29L1127.58 252L1118 270.505L1151.57 287.881L1144.48 332.64Z" fill="#F9E105" stroke="#222222" stroke-width="4" stroke-miterlimit="10"/>
<path d="M922.788 430.092L971.94 515.136L1021.01 430.049L922.788 430.092Z" fill="#222222" stroke="#222222" stroke-width="4" stroke-miterlimit="10"/>
<path d="M919 413.044L968.152 498.087L1017.22 413L919 413.044Z" fill="#EE72A8" stroke="#222222" stroke-width="4" stroke-miterlimit="10"/>
<path d="M1276.71 283.99L1352.01 366.612L1388.32 333.045L1313.02 250.422L1276.71 283.99Z" fill="#222222" stroke="#222222" stroke-width="4" stroke-miterlimit="10"/>
<path d="M1272.92 266.942L1348.22 349.564L1384.53 315.997L1309.23 233.374L1272.92 266.942Z" fill="#6BC298" stroke="#222222" stroke-width="4" stroke-miterlimit="10"/>
<path d="M864.296 246.528C869.892 247.335 875.487 249.282 879.126 253.857C882.469 258.058 883.892 264.626 880.492 269.185C877.118 273.707 870.655 274.616 865.491 275.483C858.71 276.624 851.624 277.262 845.172 279.791C842.598 280.801 838.131 282.384 837.612 285.544C837.138 288.421 840.213 288.561 842.501 288.965C847.498 289.842 852.686 290.044 857.744 290.219C868.229 290.581 879.533 291.113 887.497 298.885C895.977 307.161 895.746 321.978 882.299 324.317C875.209 325.55 867.639 324.677 860.491 324.556C852.396 324.417 844.41 324.283 836.33 323.682C827.381 323.018 818.639 322.913 809.839 324.883C804.527 326.073 794.02 329.458 800.335 336.349C804.461 340.852 811.307 342.615 816.503 345.555C821.278 348.258 825.546 352.933 826.718 358.432C828.175 365.252 823.913 370.343 817.955 373.124C810.354 376.674 801.773 375.586 793.658 375.71C787.574 375.801 788.337 366.354 794.401 366.263C800.902 366.166 808.49 367.453 814.462 364.267C817.258 362.776 818.202 361.743 816.919 358.965C816.004 356.977 814.339 355.381 812.54 354.199C804.476 348.91 793.368 346.983 789.773 336.802C783.634 319.403 807.744 314.798 819.723 313.974C830.724 313.217 841.614 315.066 852.607 315.107C860.08 315.134 867.562 315.401 875.033 315.353C877.167 315.342 881.314 315.732 883.096 314.302C884.779 312.953 883.922 309.917 883.011 308.267C878.098 299.379 865.041 299.946 856.416 299.646C848.568 299.372 835.363 300.033 830.103 293.032C826.457 288.175 827.857 280.738 832.043 276.631C836.718 272.044 843.931 269.911 850.152 268.524C856.787 267.047 864.19 267.062 870.587 264.728C873.394 263.703 873.54 262.078 871.627 259.655C869.744 257.268 866.418 256.386 863.554 255.973C857.558 255.107 858.24 245.655 864.296 246.528Z" fill="#222222"/>
<path d="M864.296 246.528C869.892 247.335 875.487 249.282 879.126 253.857C882.469 258.058 883.892 264.626 880.492 269.185C877.118 273.707 870.655 274.616 865.491 275.483C858.71 276.624 851.624 277.262 845.172 279.791C842.598 280.801 838.131 282.384 837.612 285.544C837.138 288.421 840.213 288.561 842.501 288.965C847.498 289.842 852.686 290.044 857.744 290.219C868.229 290.581 879.533 291.113 887.497 298.885C895.977 307.161 895.746 321.978 882.299 324.317C875.209 325.55 867.639 324.677 860.491 324.556C852.396 324.417 844.41 324.283 836.33 323.682C827.381 323.018 818.639 322.913 809.839 324.883C804.527 326.073 794.02 329.458 800.335 336.349C804.461 340.852 811.307 342.615 816.503 345.555C821.278 348.258 825.546 352.933 826.718 358.432C828.175 365.252 823.913 370.343 817.955 373.124C810.354 376.674 801.773 375.586 793.658 375.71C787.574 375.801 788.337 366.354 794.401 366.263C800.902 366.166 808.49 367.453 814.462 364.267C817.258 362.776 818.202 361.743 816.919 358.965C816.004 356.977 814.339 355.381 812.54 354.199C804.476 348.91 793.368 346.983 789.773 336.802C783.634 319.403 807.744 314.798 819.723 313.974C830.724 313.217 841.614 315.066 852.607 315.107C860.08 315.134 867.562 315.401 875.033 315.353C877.167 315.342 881.314 315.732 883.096 314.302C884.779 312.953 883.922 309.917 883.011 308.267C878.098 299.379 865.041 299.946 856.416 299.646C848.568 299.372 835.363 300.033 830.103 293.032C826.457 288.175 827.857 280.738 832.043 276.631C836.718 272.044 843.931 269.911 850.152 268.524C856.787 267.047 864.19 267.062 870.587 264.728C873.394 263.703 873.54 262.078 871.627 259.655C869.744 257.268 866.418 256.386 863.554 255.973C857.558 255.107 858.24 245.655 864.296 246.528Z" stroke="#222222" stroke-width="4" stroke-miterlimit="10"/>
<path d="M860.508 237.057C866.103 237.864 871.699 239.811 875.338 244.386C878.681 248.587 880.103 255.154 876.703 259.714C873.33 264.235 866.866 265.145 861.703 266.012C854.921 267.153 847.835 267.791 841.383 270.32C838.809 271.329 834.342 272.913 833.823 276.073C833.35 278.95 836.424 279.09 838.712 279.494C843.709 280.371 848.898 280.573 853.955 280.748C864.44 281.109 875.745 281.642 883.708 289.414C892.189 297.69 891.958 312.506 878.51 314.846C871.42 316.079 863.851 315.206 856.702 315.084C848.608 314.946 840.622 314.812 832.541 314.211C823.593 313.546 814.851 313.442 806.05 315.412C800.739 316.602 790.231 319.987 796.547 326.878C800.672 331.381 807.518 333.144 812.714 336.084C817.489 338.787 821.757 343.462 822.93 348.961C824.386 355.78 820.124 360.872 814.167 363.653C806.565 367.203 797.984 366.115 789.869 366.238C783.785 366.329 784.548 356.883 790.612 356.792C797.113 356.695 804.701 357.981 810.674 354.795C813.47 353.305 814.413 352.272 813.131 349.493C812.216 347.506 810.551 345.909 808.751 344.727C800.687 339.439 789.58 337.512 785.984 327.331C779.845 309.932 803.955 305.327 815.934 304.503C826.936 303.746 837.826 305.594 848.818 305.636C856.291 305.663 863.773 305.93 871.244 305.882C873.379 305.871 877.525 306.261 879.308 304.831C880.99 303.482 880.134 300.446 879.223 298.796C874.309 289.908 861.252 290.474 852.627 290.173C844.78 289.901 831.575 290.562 826.315 283.561C822.668 278.704 824.068 271.267 828.254 267.16C832.929 262.572 840.143 260.439 846.363 259.053C852.999 257.575 860.401 257.59 866.798 255.257C869.606 254.232 869.751 252.607 867.838 250.184C865.955 247.797 862.629 246.915 859.765 246.502C853.77 245.636 854.452 236.184 860.508 237.057Z" fill="#FEFFFF"/>
<path d="M860.508 237.057C866.103 237.864 871.699 239.811 875.338 244.386C878.681 248.587 880.103 255.154 876.703 259.714C873.33 264.235 866.866 265.145 861.703 266.012C854.921 267.153 847.835 267.791 841.383 270.32C838.809 271.329 834.342 272.913 833.823 276.073C833.35 278.95 836.424 279.09 838.712 279.494C843.709 280.371 848.898 280.573 853.955 280.748C864.44 281.109 875.745 281.642 883.708 289.414C892.189 297.69 891.958 312.506 878.51 314.846C871.42 316.079 863.851 315.206 856.702 315.084C848.608 314.946 840.622 314.812 832.541 314.211C823.593 313.546 814.851 313.442 806.05 315.412C800.739 316.602 790.231 319.987 796.547 326.878C800.672 331.381 807.518 333.144 812.714 336.084C817.489 338.787 821.757 343.462 822.93 348.961C824.386 355.78 820.124 360.872 814.167 363.653C806.565 367.203 797.984 366.115 789.869 366.238C783.785 366.329 784.548 356.883 790.612 356.792C797.113 356.695 804.701 357.981 810.674 354.795C813.47 353.305 814.413 352.272 813.131 349.493C812.216 347.506 810.551 345.909 808.751 344.727C800.687 339.439 789.58 337.512 785.984 327.331C779.845 309.932 803.955 305.327 815.934 304.503C826.936 303.746 837.826 305.594 848.818 305.636C856.291 305.663 863.773 305.93 871.244 305.882C873.379 305.871 877.525 306.261 879.308 304.831C880.99 303.482 880.134 300.446 879.223 298.796C874.309 289.908 861.252 290.474 852.627 290.173C844.78 289.901 831.575 290.562 826.315 283.561C822.668 278.704 824.068 271.267 828.254 267.16C832.929 262.572 840.143 260.439 846.363 259.053C852.999 257.575 860.401 257.59 866.798 255.257C869.606 254.232 869.751 252.607 867.838 250.184C865.955 247.797 862.629 246.915 859.765 246.502C853.77 245.636 854.452 236.184 860.508 237.057Z" fill="#F9E105" stroke="#222222" stroke-width="4" stroke-miterlimit="10"/>
<path d="M985.557 592.943L953.378 591.748C952.412 617.762 930.461 638.138 904.448 637.172C878.434 636.206 858.058 614.257 859.024 588.244L826.844 587.048C825.217 630.805 859.494 667.726 903.252 669.351C947.009 670.976 983.932 636.7 985.557 592.943Z" fill="#222222" stroke="#222222" stroke-width="4" stroke-miterlimit="10"/>
<path d="M981.768 575.895L949.589 574.7C948.623 600.713 926.672 621.09 900.659 620.123C874.645 619.157 854.269 597.209 855.235 571.195L823.056 570C821.428 613.757 855.705 650.678 899.464 652.303C943.221 653.928 980.143 619.652 981.768 575.895Z" fill="#7DC8D1" stroke="#222222" stroke-width="4" stroke-miterlimit="10"/>
<path d="M1080.79 112.094L1129.94 197.138L1179.01 112.049L1080.79 112.094Z" fill="#222222" stroke="#222222" stroke-width="4" stroke-miterlimit="10"/>
<path d="M1077 95.0455L1126.15 180.089L1175.23 95L1077 95.0455Z" fill="#EE72A8" stroke="#222222" stroke-width="4" stroke-miterlimit="10"/>
<path d="M987.341 39.5905C992.612 37.5466 998.443 36.4953 1003.86 38.6945C1008.83 40.7138 1013.3 45.7373 1012.57 51.3784C1011.85 56.9739 1006.67 60.9386 1002.6 64.2289C997.248 68.5534 991.389 72.5863 987.011 77.9564C985.263 80.1007 982.151 83.6714 983.247 86.6794C984.248 89.4185 986.994 88.0338 989.188 87.261C993.969 85.5732 998.589 83.2016 1003.08 80.8698C1012.39 76.0376 1022.5 70.9515 1033.26 73.8137C1044.71 76.8616 1051.78 89.8826 1041.21 98.5222C1035.64 103.078 1028.62 106.033 1022.33 109.437C1015.21 113.288 1008.19 117.093 1000.85 120.535C992.732 124.35 985.064 128.55 978.364 134.587C974.32 138.231 966.828 146.339 975.712 149.242C981.518 151.14 988.347 149.314 994.317 149.326C999.805 149.337 1005.82 151.315 1009.54 155.529C1014.16 160.756 1012.94 167.283 1009.12 172.629C1004.24 179.454 996.227 182.721 989.218 186.811C983.961 189.876 979.989 181.272 985.229 178.219C990.845 174.942 998.087 172.337 1001.73 166.628C1003.43 163.957 1003.74 162.595 1001.27 160.803C999.49 159.521 997.257 158.948 995.109 158.803C985.486 158.153 974.862 161.926 966.733 154.821C952.845 142.679 971.586 126.83 981.618 120.23C990.834 114.171 1001.23 110.435 1010.82 105.074C1017.35 101.43 1024 97.9899 1030.48 94.281C1032.34 93.2221 1036.14 91.5249 1036.99 89.4052C1037.8 87.4049 1035.56 85.1792 1033.95 84.1885C1025.31 78.8581 1014.21 85.7626 1006.55 89.7348C999.581 93.349 988.4 100.407 980.383 96.8894C974.822 94.4496 972.388 87.2818 974.021 81.6502C975.843 75.3576 981.078 69.959 985.818 65.6969C990.872 61.1507 997.331 57.5309 1001.76 52.3558C1003.7 50.0865 1003.03 48.5995 1000.17 47.427C997.361 46.2734 994.029 47.1372 991.33 48.1828C985.683 50.3706 981.637 41.8011 987.341 39.5905Z" fill="#222222"/>
<path d="M987.341 39.5905C992.612 37.5466 998.443 36.4953 1003.86 38.6945C1008.83 40.7138 1013.3 45.7373 1012.57 51.3784C1011.85 56.9739 1006.67 60.9386 1002.6 64.2289C997.248 68.5534 991.389 72.5863 987.011 77.9564C985.263 80.1007 982.151 83.6714 983.247 86.6794C984.248 89.4185 986.994 88.0338 989.188 87.261C993.969 85.5732 998.589 83.2016 1003.08 80.8698C1012.39 76.0376 1022.5 70.9515 1033.26 73.8137C1044.71 76.8616 1051.78 89.8826 1041.21 98.5222C1035.64 103.078 1028.62 106.033 1022.33 109.437C1015.21 113.288 1008.19 117.093 1000.85 120.535C992.732 124.35 985.064 128.55 978.364 134.587C974.32 138.231 966.828 146.339 975.712 149.242C981.518 151.14 988.347 149.314 994.317 149.326C999.805 149.337 1005.82 151.315 1009.54 155.529C1014.16 160.756 1012.94 167.283 1009.12 172.629C1004.24 179.454 996.227 182.721 989.218 186.811C983.961 189.876 979.989 181.272 985.229 178.219C990.845 174.942 998.087 172.337 1001.73 166.628C1003.43 163.957 1003.74 162.595 1001.27 160.803C999.49 159.521 997.257 158.948 995.109 158.803C985.486 158.153 974.862 161.926 966.733 154.821C952.845 142.679 971.586 126.83 981.618 120.23C990.834 114.171 1001.23 110.435 1010.82 105.074C1017.35 101.43 1024 97.9899 1030.48 94.281C1032.34 93.2221 1036.14 91.5249 1036.99 89.4052C1037.8 87.4049 1035.56 85.1792 1033.95 84.1885C1025.31 78.8581 1014.21 85.7626 1006.55 89.7348C999.581 93.349 988.4 100.407 980.383 96.8894C974.822 94.4496 972.388 87.2818 974.021 81.6502C975.843 75.3576 981.078 69.959 985.818 65.6969C990.872 61.1507 997.331 57.5309 1001.76 52.3558C1003.7 50.0865 1003.03 48.5995 1000.17 47.427C997.361 46.2734 994.029 47.1372 991.33 48.1828C985.683 50.3706 981.637 41.8011 987.341 39.5905Z" stroke="#222222" stroke-width="4" stroke-miterlimit="10"/>
<path d="M983.552 30.1198C988.824 28.0759 994.655 27.0246 1000.07 29.2238C1005.05 31.2431 1009.51 36.2666 1008.78 41.9077C1008.07 47.5032 1002.88 51.4679 998.811 54.7582C993.459 59.0827 987.6 63.1156 983.223 68.4857C981.474 70.63 978.362 74.2007 979.459 77.2087C980.459 79.9478 983.206 78.5631 985.399 77.7903C990.18 76.1025 994.8 73.7309 999.296 71.3991C1008.61 66.5669 1018.72 61.4808 1029.47 64.343C1040.92 67.3909 1047.99 80.4119 1037.42 89.0515C1031.85 93.6072 1024.83 96.5622 1018.54 99.9661C1011.42 103.817 1004.4 107.623 997.066 111.064C988.943 114.879 981.276 119.079 974.576 125.116C970.531 128.76 963.04 136.868 971.924 139.772C977.73 141.67 984.558 139.844 990.529 139.855C996.017 139.866 1002.03 141.844 1005.75 146.059C1010.37 151.285 1009.15 157.812 1005.33 163.158C1000.45 169.983 992.438 173.25 985.43 177.34C980.173 180.405 976.201 171.801 981.44 168.748C987.057 165.471 994.298 162.866 997.939 157.157C999.64 154.486 999.957 153.124 997.477 151.332C995.702 150.05 993.469 149.478 991.321 149.332C981.698 148.682 971.073 152.456 962.945 145.35C949.056 133.208 967.798 117.359 977.83 110.76C987.045 104.7 997.439 100.964 1007.04 95.6037C1013.56 91.9592 1020.21 88.5192 1026.69 84.8103C1028.55 83.7514 1032.35 82.0542 1033.2 79.9345C1034.01 77.9342 1031.77 75.7085 1030.17 74.7178C1021.52 69.3874 1010.43 76.2919 1002.76 80.2641C995.793 83.8783 984.611 90.9363 976.595 87.4187C971.033 84.9789 968.599 77.8111 970.232 72.1795C972.054 65.8868 977.29 60.4883 982.03 56.2262C987.083 51.68 993.543 48.0602 997.968 42.8851C999.911 40.6158 999.241 39.1288 996.384 37.9563C993.573 36.8027 990.241 37.6665 987.542 38.7121C981.895 40.8999 977.849 32.3304 983.552 30.1198Z" fill="#FEFFFF"/>
<path d="M983.552 30.1198C988.824 28.0759 994.655 27.0246 1000.07 29.2238C1005.05 31.2431 1009.51 36.2666 1008.78 41.9077C1008.07 47.5032 1002.88 51.4679 998.811 54.7582C993.459 59.0827 987.6 63.1156 983.223 68.4857C981.474 70.63 978.362 74.2007 979.459 77.2087C980.459 79.9478 983.206 78.5631 985.399 77.7903C990.18 76.1025 994.8 73.7309 999.296 71.3991C1008.61 66.5669 1018.72 61.4808 1029.47 64.343C1040.92 67.3909 1047.99 80.4119 1037.42 89.0515C1031.85 93.6072 1024.83 96.5622 1018.54 99.9661C1011.42 103.817 1004.4 107.623 997.066 111.064C988.943 114.879 981.276 119.079 974.576 125.116C970.531 128.76 963.04 136.868 971.924 139.772C977.73 141.67 984.558 139.844 990.529 139.855C996.017 139.866 1002.03 141.844 1005.75 146.059C1010.37 151.285 1009.15 157.812 1005.33 163.158C1000.45 169.983 992.438 173.25 985.43 177.34C980.173 180.405 976.201 171.801 981.44 168.748C987.057 165.471 994.298 162.866 997.939 157.157C999.64 154.486 999.957 153.124 997.477 151.332C995.702 150.05 993.469 149.478 991.321 149.332C981.698 148.682 971.073 152.456 962.945 145.35C949.056 133.208 967.798 117.359 977.83 110.76C987.045 104.7 997.439 100.964 1007.04 95.6037C1013.56 91.9592 1020.21 88.5192 1026.69 84.8103C1028.55 83.7514 1032.35 82.0542 1033.2 79.9345C1034.01 77.9342 1031.77 75.7085 1030.17 74.7178C1021.52 69.3874 1010.43 76.2919 1002.76 80.2641C995.793 83.8783 984.611 90.9363 976.595 87.4187C971.033 84.9789 968.599 77.8111 970.232 72.1795C972.054 65.8868 977.29 60.4883 982.03 56.2262C987.083 51.68 993.543 48.0602 997.968 42.8851C999.911 40.6158 999.241 39.1288 996.384 37.9563C993.573 36.8027 990.241 37.6665 987.542 38.7121C981.895 40.8999 977.849 32.3304 983.552 30.1198Z" stroke="#222222" stroke-width="4" stroke-miterlimit="10"/>
<path d="M1560.94 135.122C1560.94 146.76 1551.5 156.195 1539.86 156.195C1528.22 156.195 1518.79 146.76 1518.79 135.122C1518.79 123.484 1528.22 114.048 1539.86 114.048C1551.5 114.048 1560.94 123.484 1560.94 135.122Z" fill="#222222"/>
<path d="M1518.79 135.122C1518.79 123.483 1528.22 114.048 1539.86 114.048C1551.5 114.048 1560.94 123.483 1560.94 135.122C1560.94 146.76 1551.5 156.195 1539.86 156.195C1528.22 156.195 1518.79 146.76 1518.79 135.122Z" stroke="#222222" stroke-width="4" stroke-miterlimit="10"/>
<path d="M1557.15 118.074C1557.15 129.712 1547.71 139.147 1536.07 139.147C1524.43 139.147 1515 129.712 1515 118.074C1515 106.435 1524.43 97.0001 1536.07 97.0001C1547.71 97.0001 1557.15 106.435 1557.15 118.074Z" fill="#7DC8D1"/>
<path d="M1515 118.074C1515 106.435 1524.43 97.0001 1536.07 97.0001C1547.71 97.0001 1557.15 106.435 1557.15 118.074C1557.15 129.712 1547.71 139.147 1536.07 139.147C1524.43 139.147 1515 129.712 1515 118.074Z" stroke="#222222" stroke-width="4" stroke-miterlimit="10"/>
<path d="M1076.86 306.815C1075.11 303.449 1069.5 299.993 1066.3 303.435C1063.72 306.208 1062.66 310.641 1060.32 313.712C1055.18 320.48 1047.56 320.716 1041.07 315.611C1037.91 313.122 1034.52 307.576 1030.52 306.491C1024.77 304.928 1021.08 312.041 1020.17 316.492C1019.09 321.777 1019.37 327.352 1019.26 332.715C1019.16 337.797 1020.24 342.801 1019.85 347.863C1019.39 353.938 1010.05 352.333 1010.51 346.296C1010.76 343.042 1009.79 339.733 1009.79 336.465C1009.79 332.836 1009.92 329.197 1009.99 325.568C1010.1 319.72 1010.37 313.617 1012.9 308.224C1015.28 303.166 1019.71 299.141 1025.08 297.489C1031.14 295.627 1036.26 298.232 1040.69 302.282C1043.4 304.769 1048.6 312.461 1052.36 308.508C1055.62 305.091 1056.49 300.012 1059.74 296.557C1068.02 287.774 1081.11 294.589 1085.71 303.454C1088.53 308.862 1079.64 312.164 1076.86 306.815Z" fill="#222222"/>
<path d="M1076.86 306.815C1075.11 303.449 1069.5 299.993 1066.3 303.435C1063.72 306.208 1062.66 310.641 1060.32 313.712C1055.18 320.48 1047.56 320.716 1041.07 315.611C1037.91 313.122 1034.52 307.576 1030.52 306.491C1024.77 304.928 1021.08 312.041 1020.17 316.492C1019.09 321.777 1019.37 327.352 1019.26 332.715C1019.16 337.797 1020.24 342.801 1019.85 347.863C1019.39 353.938 1010.05 352.333 1010.51 346.296C1010.76 343.042 1009.79 339.733 1009.79 336.465C1009.79 332.836 1009.92 329.197 1009.99 325.568C1010.1 319.72 1010.37 313.617 1012.9 308.224C1015.28 303.166 1019.71 299.141 1025.08 297.489C1031.14 295.627 1036.26 298.232 1040.69 302.282C1043.4 304.769 1048.6 312.461 1052.36 308.508C1055.62 305.091 1056.49 300.012 1059.74 296.557C1068.02 287.774 1081.11 294.589 1085.71 303.454C1088.53 308.862 1079.64 312.164 1076.86 306.815Z" stroke="#222222" stroke-width="4" stroke-miterlimit="10"/>
<path d="M1073.07 297.344C1071.32 293.978 1065.71 290.523 1062.51 293.965C1059.93 296.738 1058.87 301.17 1056.54 304.241C1051.39 311.009 1043.78 311.246 1037.28 306.141C1034.12 303.652 1030.73 298.105 1026.73 297.02C1020.99 295.457 1017.3 302.57 1016.38 307.022C1015.3 312.306 1015.58 317.881 1015.48 323.244C1015.37 328.326 1016.45 333.331 1016.07 338.392C1015.6 344.467 1006.27 342.862 1006.73 336.826C1006.97 333.571 1006 330.262 1006 326.994C1006 323.365 1006.14 319.726 1006.2 316.097C1006.32 310.249 1006.58 304.146 1009.12 298.753C1011.49 293.696 1015.92 289.67 1021.3 288.019C1027.35 286.156 1032.48 288.761 1036.9 292.811C1039.61 295.298 1044.81 302.991 1048.58 299.037C1051.83 295.62 1052.7 290.542 1055.96 287.087C1064.23 278.303 1077.32 285.118 1081.93 293.983C1084.74 299.392 1075.85 302.693 1073.07 297.344Z" fill="#7DC8D1"/>
<path d="M1073.07 297.344C1071.32 293.978 1065.71 290.523 1062.51 293.965C1059.93 296.738 1058.87 301.17 1056.54 304.241C1051.39 311.009 1043.78 311.246 1037.28 306.141C1034.12 303.652 1030.73 298.105 1026.73 297.02C1020.99 295.457 1017.3 302.57 1016.38 307.022C1015.3 312.306 1015.58 317.881 1015.48 323.244C1015.37 328.326 1016.45 333.331 1016.07 338.392C1015.6 344.467 1006.27 342.862 1006.73 336.826C1006.97 333.571 1006 330.262 1006 326.994C1006 323.365 1006.14 319.726 1006.2 316.097C1006.32 310.249 1006.58 304.146 1009.12 298.753C1011.49 293.696 1015.92 289.67 1021.3 288.019C1027.35 286.156 1032.48 288.761 1036.9 292.811C1039.61 295.298 1044.81 302.991 1048.58 299.037C1051.83 295.62 1052.7 290.542 1055.96 287.087C1064.23 278.303 1077.32 285.118 1081.93 293.983C1084.74 299.392 1075.85 302.693 1073.07 297.344Z" stroke="#222222" stroke-width="4" stroke-miterlimit="10"/>
<path d="M2079.46 626.434L2273.46 514.57L2295.76 553.151L2101.77 665.015L2079.46 626.434Z" fill="#222222" stroke="#222222" stroke-width="4" stroke-miterlimit="10"/>
<path d="M2076 610.865L2270 499L2292.3 537.581L2098.3 649.446L2076 610.865Z" fill="#7DC8D1" stroke="#222222" stroke-width="4" stroke-miterlimit="10"/>
<path d="M219.683 450.418C228.655 459.302 242.069 462.81 254.441 460.947C267.176 459.029 282.421 451.671 290.295 441.289C293.144 437.532 298.169 429.809 292.967 426.081C287.089 421.867 280.232 428.461 275.339 431.373C267.472 436.056 250.216 438.905 249.234 425.481C248.225 411.644 264.498 407.433 273.985 402.273C279.406 399.323 284.162 407.658 278.722 410.618C273.699 413.351 268.034 415.004 263.31 418.284C261.575 419.488 259.112 421.367 258.887 423.673C258.585 426.749 262.534 426.05 264.77 425.591C271.608 424.19 276.688 418.107 283.344 415.971C289.221 414.083 295.797 415.384 300.321 419.688C310.852 429.712 300.753 445.68 292.216 453.249C282.101 462.215 267.59 469.075 254.106 470.606C239.229 472.294 223.63 467.838 212.887 457.2C208.489 452.846 215.294 446.071 219.683 450.418Z" fill="#222222"/>
<path d="M219.683 450.418C228.655 459.302 242.069 462.81 254.441 460.947C267.176 459.029 282.421 451.671 290.295 441.289C293.144 437.532 298.169 429.809 292.967 426.081C287.089 421.867 280.232 428.461 275.339 431.373C267.472 436.056 250.216 438.905 249.234 425.481C248.225 411.644 264.498 407.433 273.985 402.273C279.406 399.323 284.162 407.658 278.722 410.618C273.699 413.351 268.034 415.004 263.31 418.284C261.575 419.488 259.112 421.367 258.887 423.673C258.585 426.749 262.534 426.05 264.77 425.591C271.608 424.19 276.688 418.107 283.344 415.971C289.221 414.083 295.797 415.384 300.321 419.688C310.852 429.712 300.753 445.68 292.216 453.249C282.101 462.215 267.59 469.075 254.106 470.606C239.229 472.294 223.63 467.838 212.887 457.2C208.489 452.846 215.294 446.071 219.683 450.418Z" stroke="#222222" stroke-width="4" stroke-miterlimit="10"/>
<path d="M216.219 441.768C225.19 450.652 238.605 454.16 250.976 452.297C263.712 450.378 278.957 443.021 286.831 432.639C289.68 428.881 294.704 421.159 289.503 417.43C283.625 413.216 276.768 419.811 271.875 422.722C264.008 427.406 246.752 430.255 245.77 416.83C244.76 402.994 261.034 398.783 270.52 393.622C275.941 390.673 280.698 399.008 275.257 401.968C270.235 404.701 264.569 406.353 259.846 409.633C258.111 410.837 255.648 412.716 255.422 415.022C255.121 418.098 259.07 417.399 261.306 416.941C268.144 415.54 273.224 409.457 279.88 407.32C285.757 405.433 292.333 406.734 296.857 411.038C307.388 421.062 297.288 437.03 288.751 444.598C278.636 453.565 264.126 460.424 250.642 461.955C235.764 463.644 220.166 459.187 209.422 448.55C205.025 444.195 211.83 437.421 216.219 441.768Z" fill="#F9E105"/>
<path d="M216.219 441.768C225.19 450.652 238.605 454.16 250.976 452.297C263.712 450.378 278.957 443.021 286.831 432.639C289.68 428.881 294.704 421.159 289.503 417.43C283.625 413.216 276.768 419.811 271.875 422.722C264.008 427.406 246.752 430.255 245.77 416.83C244.76 402.994 261.034 398.783 270.52 393.622C275.941 390.673 280.698 399.008 275.257 401.968C270.235 404.701 264.569 406.353 259.846 409.633C258.111 410.837 255.648 412.716 255.422 415.022C255.121 418.098 259.07 417.399 261.306 416.941C268.144 415.54 273.224 409.457 279.88 407.32C285.757 405.433 292.333 406.734 296.857 411.038C307.388 421.062 297.288 437.03 288.751 444.598C278.636 453.565 264.126 460.424 250.642 461.955C235.764 463.644 220.166 459.187 209.422 448.55C205.025 444.195 211.83 437.421 216.219 441.768Z" stroke="#222222" stroke-width="4" stroke-miterlimit="10"/>
<path d="M2076.42 494.57L2021.18 654.123L1910.46 526.558L2076.42 494.57Z" fill="#222222" stroke="#222222" stroke-width="4" stroke-miterlimit="10"/>
<path d="M2072.96 479L2017.71 638.553L1907 510.988L2072.96 479Z" fill="#6BC298" stroke="#222222" stroke-width="4" stroke-miterlimit="10"/>
<path d="M37.8292 38.5863C42.6477 36.7196 47.9788 35.7595 52.9323 37.7663C57.4823 39.6122 61.5611 44.1984 60.8995 49.3521C60.2413 54.4625 55.5026 58.0834 51.7788 61.0884C46.8876 65.0363 41.5288 68.7212 37.5261 73.6257C35.9275 75.5841 33.0818 78.8451 34.0864 81.5906C34.9992 84.0939 37.5123 82.8276 39.5162 82.1217C43.8895 80.5803 48.1139 78.4144 52.2222 76.2865C60.7367 71.8732 69.9786 67.2282 79.8129 69.8422C90.2811 72.6258 96.7502 84.5178 87.0873 92.4083C81.9935 96.569 75.5713 99.2678 69.8228 102.375C63.3122 105.894 56.8916 109.369 50.1853 112.513C42.7568 115.997 35.7457 119.832 29.6196 125.346C25.9217 128.673 19.0734 136.079 27.1965 138.731C32.5033 140.464 38.7489 138.797 44.2082 138.807C49.2241 138.817 54.7249 140.622 58.1266 144.471C62.3457 149.246 61.2372 155.207 57.7403 160.089C53.277 166.323 45.9541 169.307 39.5439 173.042C34.7394 175.841 31.1074 167.985 35.8963 165.195C41.0317 162.202 47.6532 159.823 50.9821 154.609C52.5391 152.169 52.8266 150.926 50.5594 149.289C48.9366 148.118 46.8945 147.595 44.9304 147.462C36.1336 146.869 26.4188 150.315 18.9851 143.826C6.28606 132.736 23.4242 118.263 32.5969 112.234C41.0213 106.698 50.5248 103.287 59.2991 98.3924C65.2659 95.0639 71.3452 91.9205 77.2755 88.5349C78.9712 87.5661 82.449 86.0177 83.2267 84.0818C83.9611 82.255 81.9173 80.2222 80.4486 79.3191C72.5472 74.4492 62.3994 80.7533 55.3935 84.3829C49.0197 87.6837 38.7974 94.1279 31.4659 90.9171C26.3825 88.6888 24.1568 82.1425 25.6481 76.9992C27.3143 71.2522 32.1015 66.3199 36.435 62.4274C41.056 58.2772 46.9621 54.9711 51.0098 50.2448C52.7868 48.1722 52.1719 46.8142 49.5601 45.7433C46.9898 44.688 43.9449 45.4769 41.4768 46.4318C36.3137 48.4317 32.6125 40.6052 37.8292 38.5863Z" fill="#222222"/>
<path d="M37.8292 38.5863C42.6477 36.7196 47.9788 35.7595 52.9323 37.7663C57.4823 39.6122 61.5611 44.1984 60.8995 49.3521C60.2413 54.4625 55.5026 58.0834 51.7788 61.0884C46.8876 65.0363 41.5288 68.7212 37.5261 73.6257C35.9275 75.5841 33.0818 78.8451 34.0864 81.5906C34.9992 84.0939 37.5123 82.8276 39.5162 82.1217C43.8895 80.5803 48.1139 78.4144 52.2222 76.2865C60.7367 71.8732 69.9786 67.2282 79.8129 69.8422C90.2811 72.6258 96.7502 84.5178 87.0873 92.4083C81.9935 96.569 75.5713 99.2678 69.8228 102.375C63.3122 105.894 56.8916 109.369 50.1853 112.513C42.7568 115.997 35.7457 119.832 29.6196 125.346C25.9217 128.673 19.0734 136.079 27.1965 138.731C32.5033 140.464 38.7489 138.797 44.2082 138.807C49.2241 138.817 54.7249 140.622 58.1266 144.471C62.3457 149.246 61.2372 155.207 57.7403 160.089C53.277 166.323 45.9541 169.307 39.5439 173.042C34.7394 175.841 31.1074 167.985 35.8963 165.195C41.0317 162.202 47.6532 159.823 50.9821 154.609C52.5391 152.169 52.8266 150.926 50.5594 149.289C48.9366 148.118 46.8945 147.595 44.9304 147.462C36.1336 146.869 26.4188 150.315 18.9851 143.826C6.28606 132.736 23.4242 118.263 32.5969 112.234C41.0213 106.698 50.5248 103.287 59.2991 98.3924C65.2659 95.0639 71.3452 91.9205 77.2755 88.5349C78.9712 87.5661 82.449 86.0177 83.2267 84.0818C83.9611 82.255 81.9173 80.2222 80.4486 79.3191C72.5472 74.4492 62.3994 80.7533 55.3935 84.3829C49.0197 87.6837 38.7974 94.1279 31.4659 90.9171C26.3825 88.6888 24.1568 82.1425 25.6481 76.9992C27.3143 71.2522 32.1015 66.3199 36.435 62.4274C41.056 58.2772 46.9621 54.9711 51.0098 50.2448C52.7868 48.1722 52.1719 46.8142 49.5601 45.7433C46.9898 44.688 43.9449 45.4769 41.4768 46.4318C36.3137 48.4317 32.6125 40.6052 37.8292 38.5863Z" stroke="#222222" stroke-width="4" stroke-miterlimit="10"/>
<path d="M34.3654 29.9364C39.1838 28.0697 44.5149 27.1096 49.4684 29.1164C54.0184 30.9623 58.0972 35.5485 57.4356 40.7022C56.7775 45.8126 52.0387 49.4335 48.3149 52.4385C43.4237 56.3864 38.0649 60.0713 34.0623 64.9758C32.4636 66.9342 29.618 70.1952 30.6225 72.9407C31.5353 75.444 34.0484 74.1777 36.0523 73.4718C40.4256 71.9304 44.65 69.7645 48.7583 67.6366C57.2728 63.2233 66.5148 58.5783 76.3491 61.1923C86.8173 63.9759 93.2863 75.8679 83.6235 83.7584C78.5296 87.9191 72.1074 90.6179 66.3589 93.725C59.8483 97.2438 53.4278 100.719 46.7215 103.863C39.2929 107.347 32.2818 111.182 26.1557 116.696C22.4579 120.023 15.6096 127.429 23.7326 130.081C29.0395 131.814 35.2851 130.147 40.7443 130.157C45.7602 130.167 51.261 131.972 54.6627 135.821C58.8818 140.596 57.7734 146.557 54.2765 151.439C49.8131 157.673 42.4902 160.657 36.0801 164.392C31.2755 167.191 27.6435 159.335 32.4325 156.545C37.5678 153.552 44.1893 151.173 47.5182 145.959C49.0753 143.52 49.3628 142.276 47.0956 140.639C45.4727 139.468 43.4307 138.945 41.4666 138.812C32.6698 138.219 22.955 141.665 15.5212 135.176C2.8222 124.086 19.9603 109.613 29.133 103.584C37.5575 98.0482 47.0609 94.6367 55.8353 89.7425C61.802 86.414 67.8813 83.2706 73.8117 79.885C75.5073 78.9162 78.9852 77.3678 79.7628 75.4319C80.4972 73.6051 78.4534 71.5723 76.9847 70.6692C69.0833 65.7993 58.9355 72.1034 51.9296 75.733C45.5558 79.0338 35.3336 85.478 28.002 82.2672C22.9186 80.0389 20.693 73.4926 22.1842 68.3493C23.8504 62.6023 28.6377 57.67 32.9711 53.7775C37.5921 49.6273 43.4982 46.3212 47.5459 41.5949C49.3229 39.5223 48.7081 38.1643 46.0962 37.0934C43.5259 36.0381 40.4811 36.827 38.013 37.7819C32.8499 39.7818 29.1486 31.9553 34.3654 29.9364Z" fill="#FEFFFF"/>
<path d="M34.3654 29.9364C39.1838 28.0697 44.5149 27.1096 49.4684 29.1164C54.0184 30.9623 58.0972 35.5485 57.4356 40.7022C56.7775 45.8126 52.0387 49.4335 48.3149 52.4385C43.4237 56.3864 38.0649 60.0713 34.0623 64.9758C32.4636 66.9342 29.618 70.1952 30.6225 72.9407C31.5353 75.444 34.0484 74.1777 36.0523 73.4718C40.4256 71.9304 44.65 69.7645 48.7583 67.6366C57.2728 63.2233 66.5148 58.5783 76.3491 61.1923C86.8173 63.9759 93.2863 75.8679 83.6235 83.7584C78.5296 87.9191 72.1074 90.6179 66.3589 93.725C59.8483 97.2438 53.4278 100.719 46.7215 103.863C39.2929 107.347 32.2818 111.182 26.1557 116.696C22.4579 120.023 15.6096 127.429 23.7326 130.081C29.0395 131.814 35.2851 130.147 40.7443 130.157C45.7602 130.167 51.261 131.972 54.6627 135.821C58.8818 140.596 57.7734 146.557 54.2765 151.439C49.8131 157.673 42.4902 160.657 36.0801 164.392C31.2755 167.191 27.6435 159.335 32.4325 156.545C37.5678 153.552 44.1893 151.173 47.5182 145.959C49.0753 143.52 49.3628 142.276 47.0956 140.639C45.4727 139.468 43.4307 138.945 41.4666 138.812C32.6698 138.219 22.955 141.665 15.5212 135.176C2.8222 124.086 19.9603 109.613 29.133 103.584C37.5575 98.0482 47.0609 94.6367 55.8353 89.7425C61.802 86.414 67.8813 83.2706 73.8117 79.885C75.5073 78.9162 78.9852 77.3678 79.7628 75.4319C80.4972 73.6051 78.4534 71.5723 76.9847 70.6692C69.0833 65.7993 58.9355 72.1034 51.9296 75.733C45.5558 79.0338 35.3336 85.478 28.002 82.2672C22.9186 80.0389 20.693 73.4926 22.1842 68.3493C23.8504 62.6023 28.6377 57.67 32.9711 53.7775C37.5921 49.6273 43.4982 46.3212 47.5459 41.5949C49.3229 39.5223 48.7081 38.1643 46.0962 37.0934C43.5259 36.0381 40.4811 36.827 38.013 37.7819C32.8499 39.7818 29.1486 31.9553 34.3654 29.9364Z" stroke="#222222" stroke-width="4" stroke-miterlimit="10"/>
<path d="M126.86 575.439L119.464 631.972L164.782 666.634L217.494 644.765L224.889 588.234L179.573 553.57L126.86 575.439Z" fill="#222222" stroke="#222222" stroke-width="4" stroke-miterlimit="10"/>
<path d="M123.396 559.869L116 616.402L161.318 651.064L214.029 629.195L221.425 572.664L176.109 538L123.396 559.869Z" fill="#6BC298" stroke="#222222" stroke-width="4" stroke-miterlimit="10"/>
<path d="M226.216 185.324C206.418 189.139 193.419 208.333 197.241 228.105C201.061 247.881 220.275 260.866 240.074 257.05C259.871 253.234 272.871 234.041 269.048 214.265C265.228 194.491 246.015 181.508 226.216 185.324ZM222.594 166.583C252.738 160.774 281.995 180.541 287.811 210.65C293.629 240.758 273.837 269.982 243.694 275.791C213.55 281.6 184.295 261.833 178.479 231.723C172.661 201.615 192.452 172.392 222.594 166.583Z" fill="#222222"/>
<path d="M226.216 185.324C206.418 189.139 193.419 208.333 197.241 228.105C201.061 247.881 220.275 260.866 240.074 257.05C259.871 253.234 272.871 234.041 269.048 214.265C265.228 194.491 246.015 181.508 226.216 185.324ZM222.594 166.583C252.738 160.774 281.995 180.541 287.811 210.65C293.629 240.758 273.837 269.982 243.694 275.791C213.55 281.6 184.295 261.833 178.479 231.723C172.661 201.615 192.452 172.392 222.594 166.583Z" stroke="#222222" stroke-width="4" stroke-miterlimit="10"/>
<path d="M222.752 169.754C202.954 173.569 189.955 192.763 193.778 212.535C197.597 232.311 216.811 245.296 236.61 241.48C256.407 237.664 269.407 218.471 265.585 198.695C261.764 178.922 242.551 165.938 222.752 169.754ZM219.131 151.013C249.274 145.204 278.531 164.971 284.347 195.08C290.165 225.189 270.374 254.412 240.23 260.221C210.086 266.03 180.831 246.264 175.015 216.153C169.197 186.046 188.989 156.823 219.131 151.013Z" fill="#7DC8D1"/>
<path d="M222.752 169.754C202.954 173.569 189.955 192.763 193.778 212.535C197.597 232.311 216.811 245.296 236.61 241.48C256.407 237.664 269.407 218.471 265.585 198.695C261.764 178.922 242.551 165.938 222.752 169.754ZM219.131 151.013C249.274 145.204 278.531 164.971 284.347 195.08C290.165 225.189 270.374 254.412 240.23 260.221C210.086 266.03 180.831 246.264 175.015 216.153C169.197 186.046 188.989 156.823 219.131 151.013Z" stroke="#222222" stroke-width="4" stroke-miterlimit="10"/>
<path d="M173.422 313.57L118.178 473.124L7.46387 345.558L173.422 313.57Z" fill="#222222" stroke="#222222" stroke-width="4" stroke-miterlimit="10"/>
<path d="M169.958 298L114.715 457.554L4 329.988L169.958 298Z" fill="#EE72A8" stroke="#222222" stroke-width="4" stroke-miterlimit="10"/>
<path d="M2506.14 418.657C2485.98 418.657 2469.57 435.042 2469.57 455.181C2469.57 475.321 2485.98 491.706 2506.14 491.706C2526.3 491.706 2542.71 475.321 2542.71 455.181C2542.71 435.042 2526.3 418.657 2506.14 418.657ZM2506.14 510.793C2475.44 510.793 2450.46 485.845 2450.46 455.181C2450.46 424.516 2475.44 399.57 2506.14 399.57C2536.84 399.57 2561.82 424.516 2561.82 455.181C2561.82 485.845 2536.84 510.793 2506.14 510.793Z" fill="#222222"/>
<path d="M2506.14 418.657C2485.98 418.657 2469.57 435.042 2469.57 455.181C2469.57 475.321 2485.98 491.706 2506.14 491.706C2526.3 491.706 2542.71 475.321 2542.71 455.181C2542.71 435.042 2526.3 418.657 2506.14 418.657ZM2506.14 510.793C2475.44 510.793 2450.46 485.845 2450.46 455.181C2450.46 424.516 2475.44 399.57 2506.14 399.57C2536.84 399.57 2561.82 424.516 2561.82 455.181C2561.82 485.845 2536.84 510.793 2506.14 510.793Z" stroke="#222222" stroke-width="4" stroke-miterlimit="10"/>
<path d="M2502.68 403.087C2482.51 403.087 2466.11 419.472 2466.11 439.611C2466.11 459.752 2482.51 476.136 2502.68 476.136C2522.84 476.136 2539.24 459.752 2539.24 439.611C2539.24 419.472 2522.84 403.087 2502.68 403.087ZM2502.68 495.223C2471.98 495.223 2447 470.275 2447 439.611C2447 408.947 2471.98 384 2502.68 384C2533.38 384 2558.35 408.947 2558.35 439.611C2558.35 470.275 2533.38 495.223 2502.68 495.223Z" fill="#7DC8D1"/>
<path d="M2502.68 403.087C2482.51 403.087 2466.11 419.472 2466.11 439.611C2466.11 459.752 2482.51 476.136 2502.68 476.136C2522.84 476.136 2539.24 459.752 2539.24 439.611C2539.24 419.472 2522.84 403.087 2502.68 403.087ZM2502.68 495.223C2471.98 495.223 2447 470.275 2447 439.611C2447 408.947 2471.98 384 2502.68 384C2533.38 384 2558.35 408.947 2558.35 439.611C2558.35 470.275 2533.38 495.223 2502.68 495.223Z" stroke="#222222" stroke-width="4" stroke-miterlimit="10"/>
<path d="M2297 321.816C2297 332.445 2288.38 341.062 2277.73 341.062C2267.09 341.062 2258.46 332.445 2258.46 321.816C2258.46 311.187 2267.09 302.57 2277.73 302.57C2288.38 302.57 2297 311.187 2297 321.816Z" fill="#222222"/>
<path d="M2258.46 321.816C2258.46 311.187 2267.09 302.57 2277.73 302.57C2288.37 302.57 2297 311.187 2297 321.816C2297 332.446 2288.37 341.062 2277.73 341.062C2267.09 341.062 2258.46 332.446 2258.46 321.816Z" stroke="#222222" stroke-width="4" stroke-miterlimit="10"/>
<path d="M2293.54 306.246C2293.54 316.876 2284.91 325.493 2274.27 325.493C2263.63 325.493 2255 316.876 2255 306.246C2255 295.617 2263.63 287 2274.27 287C2284.91 287 2293.54 295.617 2293.54 306.246Z" fill="#7DC8D1"/>
<path d="M2255 306.246C2255 295.617 2263.63 287 2274.27 287C2284.91 287 2293.54 295.617 2293.54 306.246C2293.54 316.876 2284.91 325.493 2274.27 325.493C2263.63 325.493 2255 316.876 2255 306.246Z" stroke="#222222" stroke-width="4" stroke-miterlimit="10"/>
<path d="M2495.83 227.586C2500.65 225.719 2505.98 224.759 2510.93 226.768C2515.48 228.612 2519.56 233.2 2518.9 238.352C2518.24 243.462 2513.5 247.083 2509.78 250.088C2504.89 254.038 2499.53 257.721 2495.53 262.625C2493.93 264.584 2491.08 267.845 2492.09 270.592C2493 273.094 2495.51 271.829 2497.52 271.123C2501.89 269.582 2506.11 267.416 2510.22 265.286C2518.74 260.873 2527.98 256.228 2537.81 258.842C2548.28 261.625 2554.75 273.517 2545.09 281.408C2539.99 285.569 2533.57 288.267 2527.82 291.376C2521.31 294.893 2514.89 298.369 2508.18 301.512C2500.76 304.996 2493.75 308.832 2487.62 314.345C2483.92 317.674 2477.07 325.078 2485.2 327.73C2490.5 329.464 2496.75 327.796 2502.21 327.807C2507.22 327.817 2512.72 329.623 2516.13 333.472C2520.35 338.245 2519.24 344.207 2515.74 349.089C2511.28 355.322 2503.95 358.306 2497.54 362.042C2492.74 364.841 2489.11 356.983 2493.9 354.194C2499.03 351.201 2505.65 348.823 2508.98 343.608C2510.54 341.169 2510.83 339.925 2508.56 338.289C2506.94 337.117 2504.9 336.595 2502.93 336.462C2494.13 335.868 2484.42 339.315 2476.99 332.825C2464.29 321.736 2481.42 307.261 2490.6 301.234C2499.02 295.699 2508.53 292.288 2517.3 287.392C2523.27 284.063 2529.34 280.922 2535.27 277.534C2536.97 276.567 2540.45 275.017 2541.23 273.081C2541.96 271.255 2539.92 269.222 2538.45 268.317C2530.55 263.449 2520.4 269.755 2513.39 273.382C2507.02 276.683 2496.8 283.129 2489.47 279.917C2484.38 277.688 2482.16 271.142 2483.65 265.999C2485.32 260.252 2490.1 255.321 2494.44 251.429C2499.06 247.277 2504.96 243.971 2509.01 239.244C2510.79 237.172 2510.17 235.814 2507.56 234.743C2504.99 233.689 2501.94 234.478 2499.48 235.433C2494.31 237.431 2490.61 229.605 2495.83 227.586Z" fill="#222222"/>
<path d="M2495.83 227.586C2500.65 225.719 2505.98 224.759 2510.93 226.768C2515.48 228.612 2519.56 233.2 2518.9 238.352C2518.24 243.462 2513.5 247.083 2509.78 250.088C2504.89 254.038 2499.53 257.721 2495.53 262.625C2493.93 264.584 2491.08 267.845 2492.09 270.592C2493 273.094 2495.51 271.829 2497.52 271.123C2501.89 269.582 2506.11 267.416 2510.22 265.286C2518.74 260.873 2527.98 256.228 2537.81 258.842C2548.28 261.625 2554.75 273.517 2545.09 281.408C2539.99 285.569 2533.57 288.267 2527.82 291.376C2521.31 294.893 2514.89 298.369 2508.18 301.512C2500.76 304.996 2493.75 308.832 2487.62 314.345C2483.92 317.674 2477.07 325.078 2485.2 327.73C2490.5 329.464 2496.75 327.796 2502.21 327.807C2507.22 327.817 2512.72 329.623 2516.13 333.472C2520.35 338.245 2519.24 344.207 2515.74 349.089C2511.28 355.322 2503.95 358.306 2497.54 362.042C2492.74 364.841 2489.11 356.983 2493.9 354.194C2499.03 351.201 2505.65 348.823 2508.98 343.608C2510.54 341.169 2510.83 339.925 2508.56 338.289C2506.94 337.117 2504.9 336.595 2502.93 336.462C2494.13 335.868 2484.42 339.315 2476.99 332.825C2464.29 321.736 2481.42 307.261 2490.6 301.234C2499.02 295.699 2508.53 292.288 2517.3 287.392C2523.27 284.063 2529.34 280.922 2535.27 277.534C2536.97 276.567 2540.45 275.017 2541.23 273.081C2541.96 271.255 2539.92 269.222 2538.45 268.317C2530.55 263.449 2520.4 269.755 2513.39 273.382C2507.02 276.683 2496.8 283.129 2489.47 279.917C2484.38 277.688 2482.16 271.142 2483.65 265.999C2485.32 260.252 2490.1 255.321 2494.44 251.429C2499.06 247.277 2504.96 243.971 2509.01 239.244C2510.79 237.172 2510.17 235.814 2507.56 234.743C2504.99 233.689 2501.94 234.478 2499.48 235.433C2494.31 237.431 2490.61 229.605 2495.83 227.586Z" stroke="#222222" stroke-width="4" stroke-miterlimit="10"/>
<path d="M2492.36 218.936C2497.18 217.069 2502.52 216.109 2507.47 218.118C2512.02 219.962 2516.1 224.55 2515.43 229.702C2514.78 234.812 2510.04 238.433 2506.32 241.438C2501.42 245.388 2496.07 249.071 2492.06 253.975C2490.46 255.934 2487.62 259.195 2488.62 261.942C2489.54 264.444 2492.05 263.179 2494.05 262.473C2498.42 260.932 2502.65 258.766 2506.76 256.636C2515.27 252.223 2524.52 247.578 2534.35 250.192C2544.82 252.975 2551.28 264.868 2541.62 272.758C2536.53 276.919 2530.11 279.617 2524.36 282.726C2517.85 286.243 2511.43 289.719 2504.72 292.862C2497.29 296.347 2490.28 300.182 2484.16 305.696C2480.46 309.024 2473.61 316.428 2481.73 319.081C2487.04 320.814 2493.28 319.146 2498.74 319.157C2503.76 319.167 2509.26 320.973 2512.66 324.822C2516.88 329.595 2515.77 335.557 2512.27 340.439C2507.81 346.672 2500.49 349.657 2494.08 353.392C2489.27 356.191 2485.64 348.333 2490.43 345.544C2495.57 342.551 2502.19 340.173 2505.52 334.958C2507.07 332.519 2507.36 331.275 2505.1 329.639C2503.47 328.467 2501.43 327.945 2499.47 327.812C2490.67 327.218 2480.95 330.665 2473.52 324.175C2460.82 313.086 2477.96 298.611 2487.13 292.584C2495.56 287.05 2505.06 283.638 2513.84 278.742C2519.8 275.414 2525.88 272.272 2531.81 268.885C2533.51 267.917 2536.99 266.367 2537.76 264.432C2538.5 262.605 2536.45 260.572 2534.98 259.667C2527.08 254.799 2516.94 261.105 2509.93 264.733C2503.56 268.033 2493.33 274.479 2486 271.267C2480.92 269.039 2478.69 262.492 2480.18 257.349C2481.85 251.602 2486.64 246.671 2490.97 242.779C2495.59 238.627 2501.5 235.321 2505.54 230.594C2507.32 228.522 2506.71 227.164 2504.1 226.093C2501.53 225.039 2498.48 225.828 2496.01 226.783C2490.85 228.781 2487.15 220.955 2492.36 218.936Z" fill="#FEFFFF"/>
<path d="M2492.36 218.936C2497.18 217.069 2502.52 216.109 2507.47 218.118C2512.02 219.962 2516.1 224.55 2515.43 229.702C2514.78 234.812 2510.04 238.433 2506.32 241.438C2501.42 245.388 2496.07 249.071 2492.06 253.975C2490.46 255.934 2487.62 259.195 2488.62 261.942C2489.54 264.444 2492.05 263.179 2494.05 262.473C2498.42 260.932 2502.65 258.766 2506.76 256.636C2515.27 252.223 2524.52 247.578 2534.35 250.192C2544.82 252.975 2551.28 264.868 2541.62 272.758C2536.53 276.919 2530.11 279.617 2524.36 282.726C2517.85 286.243 2511.43 289.719 2504.72 292.862C2497.29 296.347 2490.28 300.182 2484.16 305.696C2480.46 309.024 2473.61 316.428 2481.73 319.081C2487.04 320.814 2493.28 319.146 2498.74 319.157C2503.76 319.167 2509.26 320.973 2512.66 324.822C2516.88 329.595 2515.77 335.557 2512.27 340.439C2507.81 346.672 2500.49 349.657 2494.08 353.392C2489.27 356.191 2485.64 348.333 2490.43 345.544C2495.57 342.551 2502.19 340.173 2505.52 334.958C2507.07 332.519 2507.36 331.275 2505.1 329.639C2503.47 328.467 2501.43 327.945 2499.47 327.812C2490.67 327.218 2480.95 330.665 2473.52 324.175C2460.82 313.086 2477.96 298.611 2487.13 292.584C2495.56 287.05 2505.06 283.638 2513.84 278.742C2519.8 275.414 2525.88 272.272 2531.81 268.885C2533.51 267.917 2536.99 266.367 2537.76 264.432C2538.5 262.605 2536.45 260.572 2534.98 259.667C2527.08 254.799 2516.94 261.105 2509.93 264.733C2503.56 268.033 2493.33 274.479 2486 271.267C2480.92 269.039 2478.69 262.492 2480.18 257.349C2481.85 251.602 2486.64 246.671 2490.97 242.779C2495.59 238.627 2501.5 235.321 2505.54 230.594C2507.32 228.522 2506.71 227.164 2504.1 226.093C2501.53 225.039 2498.48 225.828 2496.01 226.783C2490.85 228.781 2487.15 220.955 2492.36 218.936Z" stroke="#222222" stroke-width="4" stroke-miterlimit="10"/>
<path d="M562.84 56.5698L416.463 140.983L562.84 225.395V56.5698Z" fill="#222222" stroke="#222222" stroke-width="4" stroke-miterlimit="10"/>
<path d="M559.377 41L413 125.414L559.377 209.825V41Z" fill="#F9E105" stroke="#222222" stroke-width="4" stroke-miterlimit="10"/>
<path d="M2082.63 23.9536L2053.21 22.862C2052.33 46.62 2032.26 65.2296 2008.47 64.3473C1984.69 63.465 1966.05 43.4195 1966.94 19.6615L1937.51 18.5698C1936.03 58.5328 1967.37 92.2523 2007.38 93.7366C2047.39 95.2209 2081.15 63.9166 2082.63 23.9536Z" fill="#222222" stroke="#222222" stroke-width="4" stroke-miterlimit="10"/>
<path d="M2079.17 8.38376L2049.75 7.29213C2048.86 31.0502 2028.79 49.6598 2005.01 48.7775C1981.22 47.8952 1962.59 27.8497 1963.47 4.09163L1934.05 3C1932.56 42.963 1963.91 76.6824 2003.92 78.1668C2043.92 79.6511 2077.69 48.3468 2079.17 8.38376Z" fill="#7DC8D1" stroke="#222222" stroke-width="4" stroke-miterlimit="10"/>
<path d="M2389.7 248.767L2362.48 237.546C2371.56 215.572 2361.05 190.312 2339.05 181.244C2317.05 172.173 2291.76 182.673 2282.68 204.649L2255.46 193.428C2270.74 156.461 2313.27 138.8 2350.28 154.057C2387.29 169.315 2404.97 211.801 2389.7 248.767Z" fill="#222222" stroke="#222222" stroke-width="4" stroke-miterlimit="10"/>
<path d="M2386.24 233.197L2359.02 221.976C2368.1 200.002 2357.59 174.742 2335.59 165.673C2313.58 156.603 2288.3 167.102 2279.22 189.078L2252 177.858C2267.27 140.891 2309.81 123.229 2346.82 138.486C2383.83 153.745 2401.51 196.23 2386.24 233.197Z" fill="#6BC298" stroke="#222222" stroke-width="4" stroke-miterlimit="10"/>
<path d="M506.611 260.351C493.42 244.144 473.642 257.898 460.668 266.475C453.911 270.94 445.613 277.533 437.078 277.381C432.772 277.305 433.332 274.935 434.333 271.335C435.102 268.563 436.184 265.932 437.937 263.64C444.254 255.379 458.86 244.677 455.712 232.631C453.634 224.665 445.078 224.116 438.233 224.924C428.508 226.074 420.407 229.003 412.516 234.873C407.617 238.522 412.399 246.852 417.364 243.158C423.593 238.522 429.826 235.584 437.584 234.602C441.261 234.136 448.13 232.462 445.842 238.079C441.95 247.63 431.83 253.168 427.484 262.403C424.95 267.795 422.245 275.49 425.354 281.175C428.274 286.517 434.793 287.424 440.305 286.713C456.483 284.625 467.999 270.826 482.313 264.397C486.388 262.565 491.196 261.453 495.436 263.429C498.876 265.034 501.668 268.695 501.004 272.62C499.771 279.914 490.448 282.758 484.748 285.593C479.214 288.344 484.072 296.622 489.596 293.877C496.13 290.628 503.4 287.796 507.556 281.419C511.881 274.784 511.634 266.525 506.611 260.351Z" fill="#222222"/>
<path d="M506.611 260.351C493.42 244.144 473.642 257.898 460.668 266.475C453.911 270.94 445.613 277.533 437.078 277.381C432.772 277.305 433.332 274.935 434.333 271.335C435.102 268.563 436.184 265.932 437.937 263.64C444.254 255.379 458.86 244.677 455.712 232.631C453.634 224.665 445.078 224.116 438.233 224.924C428.508 226.074 420.407 229.003 412.516 234.873C407.617 238.522 412.399 246.852 417.364 243.158C423.593 238.522 429.826 235.584 437.584 234.602C441.261 234.136 448.13 232.462 445.842 238.079C441.95 247.63 431.83 253.168 427.484 262.403C424.95 267.795 422.245 275.49 425.354 281.175C428.274 286.517 434.793 287.424 440.305 286.713C456.483 284.625 467.999 270.826 482.313 264.397C486.388 262.565 491.196 261.453 495.436 263.429C498.876 265.034 501.668 268.695 501.004 272.62C499.771 279.914 490.448 282.758 484.748 285.593C479.214 288.344 484.072 296.622 489.596 293.877C496.13 290.628 503.4 287.796 507.556 281.419C511.881 274.784 511.634 266.525 506.611 260.351Z" stroke="#222222" stroke-width="4" stroke-miterlimit="10"/>
<path d="M503.147 251.701C489.956 235.494 470.178 249.247 457.204 257.825C450.447 262.29 442.149 268.883 433.614 268.731C429.308 268.655 429.868 266.284 430.869 262.684C431.638 259.913 432.72 257.282 434.473 254.989C440.79 246.729 455.396 236.027 452.249 223.981C450.17 216.014 441.614 215.466 434.769 216.274C425.044 217.424 416.944 220.353 409.053 226.223C404.153 229.871 408.935 238.201 413.9 234.508C420.129 229.871 426.362 226.934 434.12 225.951C437.797 225.486 444.666 223.811 442.378 229.429C438.486 238.98 428.366 244.518 424.02 253.752C421.487 259.145 418.781 266.84 421.89 272.525C424.81 277.867 431.329 278.773 436.841 278.062C453.019 275.974 464.535 262.176 478.849 255.747C482.924 253.915 487.732 252.803 491.972 254.778C495.412 256.384 498.204 260.044 497.54 263.97C496.307 271.263 486.984 274.108 481.284 276.943C475.75 279.694 480.608 287.972 486.132 285.226C492.667 281.977 499.936 279.145 504.093 272.769C508.417 266.134 508.17 257.875 503.147 251.701Z" fill="#FEFFFF"/>
<path d="M503.147 251.701C489.956 235.494 470.178 249.247 457.204 257.825C450.447 262.29 442.149 268.883 433.614 268.731C429.308 268.655 429.868 266.284 430.869 262.684C431.638 259.913 432.72 257.282 434.473 254.989C440.79 246.729 455.396 236.027 452.249 223.981C450.17 216.014 441.614 215.466 434.769 216.274C425.044 217.424 416.944 220.353 409.053 226.223C404.153 229.871 408.935 238.201 413.9 234.508C420.129 229.871 426.362 226.934 434.12 225.951C437.797 225.486 444.666 223.811 442.378 229.429C438.486 238.98 428.366 244.518 424.02 253.752C421.487 259.145 418.781 266.84 421.89 272.525C424.81 277.867 431.329 278.773 436.841 278.062C453.019 275.974 464.535 262.176 478.849 255.747C482.924 253.915 487.732 252.803 491.972 254.778C495.412 256.384 498.204 260.044 497.54 263.97C496.307 271.263 486.984 274.108 481.284 276.943C475.75 279.694 480.608 287.972 486.132 285.226C492.667 281.977 499.936 279.145 504.093 272.769C508.417 266.134 508.17 257.875 503.147 251.701Z" stroke="#222222" stroke-width="4" stroke-miterlimit="10"/>
<path d="M2181.13 476.956C2180.2 473.618 2181.79 467.813 2186.08 468.112C2189.53 468.352 2193.01 470.646 2196.48 471.238C2204.14 472.541 2209.38 467.948 2210.52 460.489C2211.08 456.855 2209.88 451.042 2211.87 447.826C2214.73 443.195 2221.64 445.636 2225.03 448.037C2229.06 450.886 2232.35 454.78 2235.77 458.287C2239.01 461.612 2241.42 465.624 2244.84 468.759C2248.94 472.522 2254.18 465.626 2250.1 461.887C2247.9 459.87 2246.48 457.059 2244.44 454.877C2242.17 452.455 2239.81 450.116 2237.49 447.739C2233.77 443.907 2229.78 440.005 2224.72 437.989C2219.97 436.098 2214.5 436.18 2209.88 438.43C2204.67 440.966 2202.88 445.9 2202.46 451.362C2202.2 454.713 2203.53 463.09 2198.55 462.799C2194.24 462.55 2190.48 459.709 2186.15 459.436C2175.14 458.739 2170.66 471.454 2173.12 480.239C2174.63 485.6 2182.62 482.256 2181.13 476.956Z" fill="#222222"/>
<path d="M2181.13 476.956C2180.2 473.618 2181.79 467.813 2186.08 468.112C2189.53 468.352 2193.01 470.646 2196.48 471.238C2204.14 472.541 2209.38 467.948 2210.52 460.489C2211.08 456.855 2209.88 451.042 2211.87 447.826C2214.73 443.195 2221.64 445.636 2225.03 448.037C2229.06 450.886 2232.35 454.78 2235.77 458.287C2239.01 461.612 2241.42 465.624 2244.84 468.759C2248.94 472.522 2254.18 465.626 2250.1 461.887C2247.9 459.87 2246.48 457.059 2244.44 454.877C2242.17 452.455 2239.81 450.116 2237.49 447.739C2233.77 443.907 2229.78 440.005 2224.72 437.989C2219.97 436.098 2214.5 436.18 2209.88 438.43C2204.67 440.966 2202.88 445.9 2202.46 451.362C2202.2 454.713 2203.53 463.09 2198.55 462.799C2194.24 462.55 2190.48 459.709 2186.15 459.436C2175.14 458.739 2170.66 471.454 2173.12 480.239C2174.63 485.6 2182.62 482.256 2181.13 476.956Z" stroke="#222222" stroke-width="4" stroke-miterlimit="10"/>
<path d="M2177.67 468.305C2176.73 464.968 2178.32 459.162 2182.61 459.461C2186.07 459.702 2189.54 461.996 2193.02 462.588C2200.68 463.89 2205.91 459.297 2207.06 451.839C2207.62 448.204 2206.42 442.392 2208.41 439.175C2211.27 434.544 2218.18 436.985 2221.57 439.387C2225.59 442.236 2228.88 446.13 2232.31 449.637C2235.55 452.962 2237.96 456.974 2241.37 460.109C2245.48 463.871 2250.71 456.975 2246.63 453.237C2244.43 451.22 2243.01 448.409 2240.97 446.227C2238.71 443.805 2236.34 441.466 2234.03 439.089C2230.3 435.257 2226.31 431.354 2221.25 429.339C2216.51 427.448 2211.03 427.529 2206.41 429.78C2201.21 432.316 2199.41 437.25 2198.99 442.712C2198.73 446.063 2200.06 454.439 2195.08 454.149C2190.78 453.9 2187.02 451.059 2182.69 450.786C2171.68 450.088 2167.19 462.804 2169.66 471.589C2171.16 476.95 2179.16 473.606 2177.67 468.305Z" fill="#EE72A8"/>
<path d="M2177.67 468.305C2176.73 464.968 2178.32 459.162 2182.61 459.461C2186.07 459.702 2189.54 461.996 2193.02 462.588C2200.68 463.89 2205.91 459.297 2207.06 451.839C2207.62 448.204 2206.42 442.392 2208.41 439.175C2211.27 434.544 2218.18 436.985 2221.57 439.387C2225.59 442.236 2228.88 446.13 2232.31 449.637C2235.55 452.962 2237.96 456.974 2241.37 460.109C2245.48 463.871 2250.71 456.975 2246.63 453.237C2244.43 451.22 2243.01 448.409 2240.97 446.227C2238.71 443.805 2236.34 441.466 2234.03 439.089C2230.3 435.257 2226.31 431.354 2221.25 429.339C2216.51 427.448 2211.03 427.529 2206.41 429.78C2201.21 432.316 2199.41 437.25 2198.99 442.712C2198.73 446.063 2200.06 454.439 2195.08 454.149C2190.78 453.9 2187.02 451.059 2182.69 450.786C2171.68 450.088 2167.19 462.804 2169.66 471.589C2171.16 476.95 2179.16 473.606 2177.67 468.305Z" stroke="#222222" stroke-width="4" stroke-miterlimit="10"/>
<path d="M2137.77 204.005L2112.09 171.521L2073.14 185.624L2047.45 153.139L2014.95 164.902L2008.46 147.012L2053.89 130.57L2079.57 163.054L2118.53 148.949L2144.2 181.434L2183.16 167.329L2213.09 205.202L2198.14 216.994L2176.72 189.9L2137.77 204.005Z" fill="#222222" stroke="#222222" stroke-width="4" stroke-miterlimit="10"/>
<path d="M2134.3 188.435L2108.63 155.951L2069.67 170.054L2043.99 137.57L2011.49 149.332L2005 131.442L2050.42 115L2076.1 147.484L2115.06 133.38L2140.74 165.864L2179.69 151.759L2209.63 189.632L2194.67 201.424L2173.26 174.33L2134.3 188.435Z" fill="#F9E105" stroke="#222222" stroke-width="4" stroke-miterlimit="10"/>
<path d="M2390.94 489.705L2372.34 452.724L2401.62 423.436L2383.02 386.448L2407.44 362.012L2393.96 348.57L2359.82 382.72L2378.42 419.707L2349.14 448.996L2367.74 485.977L2338.46 515.262L2360.15 558.383L2377.18 549.84L2361.66 518.992L2390.94 489.705Z" fill="#222222" stroke="#222222" stroke-width="4" stroke-miterlimit="10"/>
<path d="M2387.48 474.135L2368.87 437.155L2398.15 407.866L2379.55 370.878L2403.98 346.442L2390.49 333L2356.36 367.15L2374.96 404.138L2345.68 433.427L2364.28 470.407L2335 499.692L2356.69 542.813L2373.71 534.27L2358.2 503.422L2387.48 474.135Z" fill="#EE72A8" stroke="#222222" stroke-width="4" stroke-miterlimit="10"/>
<path d="M493.891 403.589C458.794 410.354 435.751 444.378 442.523 479.433C449.296 514.489 483.359 537.503 518.456 530.739C553.55 523.975 576.594 489.953 569.822 454.896C563.05 419.843 528.987 396.825 493.891 403.589ZM487.472 370.366C540.908 360.068 592.771 395.111 603.083 448.485C613.394 501.86 578.309 553.663 524.873 563.962C471.436 574.263 419.574 539.218 409.262 485.844C398.951 432.468 434.035 380.665 487.472 370.366Z" fill="#222222"/>
<path d="M493.891 403.589C458.794 410.354 435.751 444.378 442.523 479.433C449.296 514.489 483.359 537.503 518.456 530.739C553.55 523.975 576.594 489.953 569.822 454.896C563.05 419.843 528.987 396.825 493.891 403.589ZM487.472 370.366C540.908 360.068 592.771 395.111 603.083 448.485C613.394 501.86 578.309 553.663 524.873 563.962C471.436 574.263 419.574 539.218 409.262 485.844C398.951 432.468 434.035 380.665 487.472 370.366Z" stroke="#222222" stroke-width="4" stroke-miterlimit="10"/>
<path d="M490.427 388.019C455.33 394.783 432.287 428.807 439.06 463.862C445.832 498.919 479.895 521.933 514.992 515.169C550.086 508.405 573.13 474.382 566.358 439.326C559.586 404.272 525.523 381.255 490.427 388.019ZM484.008 354.796C537.444 344.497 589.307 379.54 599.619 432.914C609.93 486.29 574.845 538.093 521.409 548.392C467.972 558.692 416.111 523.648 405.798 470.274C395.488 416.898 430.571 365.095 484.008 354.796Z" fill="#EE72A8"/>
<path d="M490.427 388.019C455.33 394.783 432.287 428.807 439.06 463.862C445.832 498.919 479.895 521.933 514.992 515.169C550.086 508.405 573.13 474.382 566.358 439.326C559.586 404.272 525.523 381.255 490.427 388.019ZM484.008 354.796C537.444 344.497 589.307 379.54 599.619 432.914C609.93 486.29 574.845 538.093 521.409 548.392C467.972 558.692 416.111 523.648 405.798 470.274C395.488 416.898 430.571 365.095 484.008 354.796Z" stroke="#222222" stroke-width="4" stroke-miterlimit="10"/>
<path d="M2100.46 285.611L2145.41 363.281L2190.28 285.57L2100.46 285.611Z" fill="#222222" stroke="#222222" stroke-width="4" stroke-miterlimit="10"/>
<path d="M2097 270.042L2141.94 347.712L2186.81 270L2097 270.042Z" fill="#EE72A8" stroke="#222222" stroke-width="4" stroke-miterlimit="10"/>
<path d="M605.669 253.811L674.996 329.686L707.718 299.446L638.391 223.57L605.669 253.811Z" fill="#222222" stroke="#222222" stroke-width="4" stroke-miterlimit="10"/>
<path d="M602.205 238.241L671.532 314.116L704.254 283.876L634.927 208L602.205 238.241Z" fill="#7DC8D1" stroke="#222222" stroke-width="4" stroke-miterlimit="10"/>
<path d="M1961.67 306.218L1998.47 325.243L1991.99 366.123L2028.79 385.155L2023.38 419.258L2042.2 422.234L2049.76 374.569L2012.96 355.537L2019.44 314.657L1982.64 295.632L1989.13 254.754L1946.22 232.57L1937.46 249.471L1968.16 265.34L1961.67 306.218Z" fill="#222222" stroke="#222222" stroke-width="4" stroke-miterlimit="10"/>
<path d="M1958.21 290.648L1995.01 309.673L1988.52 350.553L2025.32 369.584L2019.92 403.688L2038.73 406.663L2046.29 358.998L2009.49 339.967L2015.98 299.087L1979.18 280.062L1985.66 239.184L1942.76 217L1934 233.9L1964.69 249.77L1958.21 290.648Z" fill="#7DC8D1" stroke="#222222" stroke-width="4" stroke-miterlimit="10"/>
</svg>
